<svg id="LIMIT_COUNTRY" data-name="LIMIT COUNTRY" xmlns="http://www.w3.org/2000/svg" viewBox="0 0 460.37 259"><defs><style>.cls-1,.cls-2,.cls-5{fill:none;stroke:#e8e0d5;stroke-miterlimit:10;stroke-width:0.25px;}.cls-2,.cls-3,.cls-5{opacity:0.99;}.cls-4{fill:#e8e0d5;}.cls-5{stroke-linecap:square;}</style></defs><polygon class="cls-1" points="266.57 125.04 266.53 125 266.37 124.93 266.36 124.93 266.07 124.75 265.91 124.68 265.68 124.58 265.66 124.58 265.38 124.36 265.38 124.36 265.26 124.25 264.8 124.04 264.61 124 264.57 124.01 264.51 124.06 264.52 124.16 264.92 124.37 265.37 124.57 265.78 124.68 265.8 124.69 265.98 124.87 266.2 124.93 266.21 124.93 266.38 124.99 266.38 124.99 266.66 125.08 266.58 125.05 266.57 125.04"/><polygon class="cls-1" points="292.48 175.5 292.48 175.46 292.47 175.46 292.46 175.46 292.46 175.46 292.46 175.5 292.47 175.52 292.49 175.53 292.5 175.53 292.5 175.53 292.48 175.5"/><polygon class="cls-1" points="242.14 81.61 242.03 81.63 241.97 81.67 241.93 81.7 241.93 81.79 241.94 81.86 242.05 81.89 242.09 81.89 242.18 81.86 242.19 81.81 242.21 81.72 242.21 81.69 242.18 81.64 242.14 81.61"/><polygon class="cls-1" points="267.21 54.38 266.89 54.38 266.77 54.54 266.76 54.55 266.57 54.76 266.55 54.77 266.34 54.85 266.26 54.91 266.01 55.11 266.01 55.11 265.79 55.29 265.56 55.49 265.55 55.49 265.03 55.8 264.9 55.88 264.9 55.88 264.65 56.01 264 56.5 264 56.51 263.8 56.65 263.23 57.15 263.23 57.16 263.02 57.33 262.8 57.53 262.74 57.92 262.97 58.23 263.44 58.3 263.83 58.09 263.83 58.09 264.22 57.88 264.27 57.88 264.68 58.09 264.71 58.14 264.68 58.62 264.93 58.91 265.23 58.95 265.59 58.7 265.65 58.28 265.65 58.27 265.77 57.73 265.78 57.72 266.01 57.24 266.02 57.23 266.43 56.86 266.7 56.44 267 55.95 267.22 55.26 267.25 55.06 267.21 54.91 267.21 54.89 267.25 54.52 267.21 54.38"/><polygon class="cls-1" points="366.39 220.78 366.24 220.81 366.23 220.81 366.28 220.86 366.34 220.84 366.43 220.78 366.47 220.72 366.42 220.77 366.39 220.78"/><polygon class="cls-1" points="366.35 231.31 366.38 231.33 366.43 231.33 366.45 231.33 366.46 231.32 366.38 231.3 366.35 231.31"/><polygon class="cls-1" points="366.33 223.87 366.35 223.8 366.35 223.79 366.37 223.73 366.36 223.7 366.32 223.71 366.29 223.75 366.25 223.81 366.26 223.87 366.33 223.87"/><polygon class="cls-1" points="367.82 220.74 367.77 220.7 367.76 220.68 367.75 220.65 367.65 220.57 367.58 220.57 367.52 220.58 367.52 220.58 367.63 220.6 367.67 220.62 367.71 220.66 367.73 220.69 367.75 220.82 367.77 220.84 367.86 220.84 367.9 220.77 367.91 220.76 367.86 220.76 367.82 220.74"/><polygon class="cls-1" points="361.35 226.25 361.34 226.26 361.35 226.28 361.38 226.3 361.41 226.3 361.44 226.28 361.44 226.26 361.44 226.25 361.44 226.25 361.35 226.25"/><rect class="cls-1" x="365.13" y="210.7" height="0.01" transform="translate(-55.47 182.23) rotate(-26.11)"/><polygon class="cls-1" points="270.83 70.09 270.79 70.13 270.77 70.16 270.78 70.16 270.87 70.16 270.9 70.14 270.92 70.06 270.92 70.06 270.86 70.07 270.83 70.09"/><path class="cls-2" d="M286.58,217.82v0l-.14-.24h0l-.1-.15,0,0-.23,0h0l-.1.06,0,0v.15l.06.14h0l.06.14h0l.22.31,0,0h.17l.05,0,0-.07v0l0-.13v0Z"/><path class="cls-2" d="M288.28,225.88h0l-.07,0h0l-.07,0,0,.05v.1h0l0,.1,0,0,.07,0h0l.09,0,0-.06v-.06l0-.08V226l0,0Z"/><path class="cls-2" d="M226.07,248v-.16l-.06-.05h-.09l0,0-.05.12h0l0,.07v.14l0,.12,0,0,.1.07H226l.07,0,0,0,0-.19,0-.06Z"/><path class="cls-2" d="M253.84,244.7h-.35l-.17,0-.22-.09-.11-.08h0l-.13-.08,0-.1.05-.11.16-.18h0l.14-.17v-.07l-.18-.23,0,0-.19,0,0,0-.23.17h0l-.15.12-.27.18h0l-.12.1v0l-.08.13-.19.1-.21,0,0,0-.11.19v.19l-.18.12,0,0v.21l.07.18,0,0,.39.1,0,0,.18-.17.24,0,.33.09.07-.07,0-.22v0l-.13-.27v-.12l.12-.12.31.1.17.19.09.18,0,0,.24.07h0l.27,0h0l.3-.13,0,0v-.18Z"/><path class="cls-2" d="M321.18,137.47l-.07,0H321l-.1,0h0l-.07.05v.08l.07.1,0,0,.1,0h0l.09,0,0,0,0-.1v0l0-.05Z"/><path class="cls-2" d="M327.2,126.08h-.12l-.1,0,0,.05v.1l0,0,.07.05h.15l.05,0,0,0,0-.07v-.07l0-.05Z"/><path class="cls-2" d="M337.79,121.51l-.06,0-.11,0h0l-.05,0,0,0v.08l0,0,0,0h0l.09.05.07,0,.07-.09v-.15Z"/><path class="cls-2" d="M329.44,133.39l-.14,0,0,0,0,.05v.05l0,0v0l0,0,0,0h.09l.09-.07,0-.07,0-.07Z"/><path class="cls-2" d="M343.56,124.05l-.07,0h-.06l-.07,0,0,0v.1l0,0,.07,0h.05l.09,0,0-.08,0-.05Z"/><path class="cls-2" d="M337.86,120l-.05,0h0l0,0-.05,0,0,0v.07l0,0,.05,0h.05l.1,0,0,0v-.05l0,0Z"/><path class="cls-2" d="M258.83,57.62l0,0-.13-.08h0l-.17,0h0l-.14.06,0,0-.12.17-.22.13h0l-.18.12v0l-.09.14-.11.18v0l0,.1,0,0,.17.09h0l.28.07h0l.2-.07h0l.22-.16h0l.12-.1v0l.13-.22h0l.07-.13v0l0-.1v-.14Z"/><path class="cls-2" d="M261.81,60.92l-.12.08,0,0,0,0-.11,0-.06.06v.1l0,0,.12,0h.07l.18,0,0,0,.05,0v-.13l0,0-.09-.07Z"/><path class="cls-2" d="M270.94,69.94l-.11,0h0l-.05,0v0l-.05,0h0l0,.1,0,.08.07,0h.17l.07,0,0,0,0-.1h0v0l0,0Z"/><path class="cls-2" d="M257.36,58.76h-.06l-.09.05,0,0,0,.1v0l0,.1.05,0h.11l.07,0,0-.06,0-.18,0,0Z"/><g class="cls-3"><path class="cls-4" d="M233.3,18.29l0,0,0,.08,0,.05,0,.07,0,.1v0l0,0,0,.05v.11l0,.13V19l0,.05,0,0,.06.18,0,.09.08,0,.19.12.19.12.08,0,.11.07.06.06.07.08h.18l.14,0,.07-.08.06-.06,0,0,.07.15,0,0,0,0,.16.17.09.08.14.24.08.13.07.1.05.07,0,.16v0l0,0,.06.09v0l0,0,.16.14,0,0,.05,0,.12,0h.15l.08,0,.09.07.1.05.08.11,0,0,.11.22.05.08h0l0,.14h0l0,0,0,0,0,0,0,.08-.06.12.05.11,0,0,.05.12,0,.22V23l.06.15v0l0,0,.06.08.06.07.09,0,.19,0h.41l.36-.08h.09l.32,0h.28l.19,0,.17.06.21.25.2.2,0,0,0,0,.26.15.27.17.06,0,.27.21.22.28.13.17.31.48.28.29.08.08h.33l.06-.05.12-.09.2-.1h.2l.22,0h.13l.17.05.08,0,.08,0,.2-.06,0,0h0l.12-.09.1-.09.09-.07.07-.05,0-.09,0-.09,0-.1,0,0h0l0,0,.13-.06.11,0,.15,0h.44l.13.08.08.05.06,0h.35l.2,0h0l0,0,0,0,.23,0,.22.1.16.07.28.1.25.12,0,0,.14.24.09.16.12.2.06.12.1.32,0,.06,0,.05.22.2.14.09.06,0H248l.22,0,.21.09.07,0h.11l.05,0,.11,0,.05,0,0,0,.05-.06.15-.06.3,0,.5-.06.32-.1.36-.18.24-.14,0,0,0,0,.21-.2.18-.14.18-.06h.09l.15.11.17.1,0,0h.2l.05,0,.11,0h.07l.07,0,.07.07.06.17,0,.11.09.19.05.13h.14l.16,0,.16.06h.37l.07-.07.07-.08h0l.08.22,0,.07.06,0,.47.33.11.08,0,0h0l.19.07.08,0,.15.12,0,0h0l.18.07.11,0h.26l-.05.06,0,0,0,0,0,.11-.12.22-.16.15-.16.15,0,0v0l-.13.19,0,.07v.55l0,.07-.24.33-.09.19-.12.15,0,0v.05l-.11.38-.11.24-.06.14-.15.17-.27.13-.2,0-.27-.06-.28-.08-.09,0-.09,0-.12.06-.1.06,0,.12,0,.24-.07.42-.1.29-.07.3-.05.26-.15.21-.1.1-.12.14,0,0,0,0,0,.12v.1l0,.19v.06l0,.06.09.12,0,.11,0,.16h.18l.05,0,0,0,0,0,0,0v0l0,.11,0,.12V35l.16.06.22.1.15,0h.36l.16,0,.19,0h.07l.08.1.07.17.07.12v0l0,0,.09.09,0,.09,0,.1,0,.11,0,.16,0,.17-.05.19-.16.3,0,.05v.33l0,.12.06.15.06.12.07.14v0l0,0,.07.08v0l0,.07,0,0v.06l0,.28v0l0,0,0,.11,0,.06.05,0,.09.08.07.07v0l0,.07-.07.12-.06.08-.05.07v.6l0,.2-.1.19,0,.07v.07l0,.2v.08l.06.06.16.17.07.08h.3l.16-.06.07,0,.1,0,0-.11,0-.15.09-.21.13,0H255l.08,0h0l0,.12,0,.13,0,.11.11.05.18.06.06,0h.06l.15,0,.18,0,.17,0h.3l.18,0,.17.05.13,0h0l.11.21.09.23,0,.11,0,0,0,0,.1.11.05.06h.08l.1,0h.28l.2,0,.12,0,.07-.1,0-.08,0-.05h.22l.13.06.15.11.12.07.06.1,0,0,0,.09,0,0-.19.15-.07.07,0,0v0l-.08.15-.11.14,0,0v.06l-.05.23v.06l0,0,.06.23,0,.07.05,0,.17.16,0,0,.06,0,.2,0,.3.05.31,0,.15,0,.23.09,0,0,0,.14V44l.08.15,0,.07.07,0,.12.06.26.14.12.05.2.08,0,.06.15.18.15.14.16.12h0l0,0,.31.14.08,0H262l.07,0,.12,0,.05-.11.06-.13.05-.1.15-.11.14,0,0,0,0,0,.11.2.14.25.11.21.08.11,0,0,0,0,.19.14,0,.07.05.11,0,.17,0,.15,0,.11v.14l0,.25.25,0H264l.14-.05.05,0,0,0,.22-.23.24-.18.14-.12L265,46l.08,0,.1.14.09.18v0l0,0,.16.18.15.13.06,0h.07l.3,0h.05l.26,0h.18l.34.07h.76l.42,0,.35-.08h0l0,0,.25-.13.35-.27.26-.1.2-.07.16,0h.19l.42.07.55.23.17.17.18.24.21.22,0,0,0,0,.11.06.09.15.11.21,0,0,0,0,.24.22.07.06h.25l.18,0h0l0,0,.18-.1H273v0l-.07.13-.07.11.05.12.06.15.05.11.11,0,.18,0-.06,0h-.05l-.41.25-.25.23-.15.18-.14.14-.21.12-.16,0,0-.05,0-.3.12-.1.05,0,0-.06.14-.31,0-.08,0-.09-.07-.26v0l0,0-.12-.22,0-.08-.1,0-.35-.12-.05,0h0l-.28,0h-.07l-.43.16-.37.22,0,0,0,0-.24.26,0,0,0,0-.21.39-.07.22-.29.32-.16.17-.35.15-.54.29-.05,0,0,0-.19.3-.37.4-.29.28L267,51l-.34,0-.35-.12h-.09l-.52,0h0l0,0-.27.1-.52.09h-.05l0,0-.22.14-.26.17.23.22.21.21.25.19.05.39-.18.6v.41l-.07.4v.64l0,.34-.22.23-.3.13-.54.16-.18.06v.44l-.11.23-.21,0-.48-.06h-.35l-.16,0h-.05l-.35.17-.22.1-.19.09-.36.22-.08,0,0,.08-.08.22-.17.2-.16.05-.35-.17h-.05l-.42-.09v0l0-.22,0-.12-.08-.09-.2-.22-.1-.1-.14,0-.33.06-.08,0,0,.06-.14.14-.23.19h-.43l-.23-.12-.17-.07-.17-.09-.4-.19-.07,0h0l-.3-.09v.35l0,0,0,0,0,0-.1.15-.17.28,0,0v0l-.05.2,0,.11.06.09.07.11.16.25.09.13.08.12,0,0-.15.17-.25.21h0v0l-.12.16-.05.06v.32l0,.06.17.28.09.17,0,.24-.06.07h-.07l-.15-.07-.08,0,0,0h-.24l-.07.08-.09.12-.2.13-.12.06-.19.1-.08,0,0,.07-.05.09-.05.1.05.11.06.15.05.11h0l0,0-.19.16,0,0,0,.06-.06.17-.07.1-.05,0-.25.08-.11.05h-.11l-.11,0-.17-.09h0l-.11-.08,0,0h0l-.1,0h-.23l-.11,0h-.07l0,0-.09.08-.09.07,0,0,0,0-.07.09v0l0,0,0,.11,0,.08,0,.08v0h0l0,.07,0,.1-.17.26,0,.08-.11.09,0,0,0,0-.1.17-.07.13,0,.07,0,.09,0,.15.05.19v.07l.08.12.08.15.08.17.08.13,0,.14,0,.13v.4l-.11.23-.08.22,0,0v.34l.09.46,0,.18v.18l0,.09,0,.13-.05.14,0,.1-.12.18,0,.06v.27l0,.25v0l0,0,0,.07,0,.16-.09.19-.14.22-.14.08-.11.05-.09,0h-.16l0,0v0l0-.06-.05-.11-.11,0-.12,0,0,0h-.17l-.21,0-.14,0-.14,0-.26,0-.23,0-.21,0h0l0,0-.25.14,0,0,0,.06-.12.18-.16.15-.1.06,0,0,0,0-.2.22-.14.2-.13.16-.2.24-.16.16-.19.17-.33.31-.15.14-.18.13-.17.09,0,0,0,0-.15.18-.15.2-.23.19-.2.16L246,72l0,0,0,0-.1.18-.05.13,0,0-.17,0H245l0,0-.34-.21,0,.4v0l-.08.21-.09.06-.12,0h0l-.06-.15,0-.07,0-.13v-.06l-.06-.13-.08-.11a.3.3,0,0,0-.07-.2l-.09-.09h-.11l-.13,0-.08.08s-.1.13-.06.43l0,.16h0l-.26,0h-.06l-.15.07h0l0,0-.19.16-.05,0,0,.06-.08.23,0,0v.23l0,.2-.06.14-.17.36,0,0v0l-.08.5-.06.39-.1.56-.08.27,0,0h-.06l-.1-.06L241.6,76l-.13.09-.18.12,0,0,0,0-.15.19-.19.39-.13.27-.1.35,0,.26-.07.39-.08.47-.1.31,0,.21-.11.16,0,.06v.07l0,.32v.79l0,.2-.07.13-.11.15-.13.14-.05.06v.07l0,.21v.06l0,0,.06.19,0,.06,0,0,.12.11.12.1,0,0,.07.19.11.26,0,0v0l.09.11,0,.07h0l-.14.15,0,0,0,0,0,0-.05.09h0l0,0-.09.07-.1.07v.29l-.06.13-.07.07h-.19l-.12,0-.1,0-.05.09-.18.36,0,0v.54l0,.35v.33l0,.24,0,.07L239,86h-.17l-.12,0-.16-.09,0,0h0l-.2,0-.09,0-.09,0-.23.11-.06,0,0,.06-.14.19,0,0v0l0,.17-.12.14,0,0v0l-.12.33v.3l0,.32v.19l-.06.2,0,.07,0,.07.09.29.06.24,0,0,0,0,.16.19.23.39,0,0,0,0,.1.09,0,0h0l.2.11.21.1.21.09,0,.08,0,0,0,0,.12.1.06,0v0l0,.1,0,.16v.14l0,.16v.07l0,0,.17.2.08.07,0,.06v0l0,0,0,0,0,0,0,0,.06,0,0,.09.13.29.16-.11.08.24,0,.23v.26l0,.25.11.53v0l0,0,.18.36.23.53.28.46.14.19.18.36.23.35,0,0,0,0,.17.15.19.16.21.2.09.06.05,0h0l.12.07v.09l0,0,.1.19.13.23,0,0,0,0,.12.1.25.33.21.28.21.28.16.19.29.29.17.16.08.15,0,0,0,0,.31.21.11.09,0,0h0l.16,0,.13,0h.25l.17,0,.13.08.41.24.26.18.25.17.25.14.22.17.22.2.5.53.2.24,0,0,0,0,.16.1.41.33.15.13,0,0,.05,0,.42.11.14,0h.08v.15l.07.21.13.26v.31l.05.19,0,.08.06.05.1.1,0,0h0l.22.12.15.08.13.14.13.15.15.12,0,0v.11l0,.06,0,0v.06h0l-.07,0,0,0-.08,0,0,.06-.05.06,0,0-.1.07,0,0,0,0-.07.08,0,0v0l0,0-.09.11-.1.18V105l0,.14-.06.19v.27l0,.2,0,.27,0,.15v0l0,0,.07.16.12.25.17.44.1.3.13.26.38.73.35.43.19.32.45.77,0,0,0,0,.36.38.19.39.17.28.18.24.54.7.18.21.59.57.27.37,0,0,0,0,.33.25.36.33.49.33.07.13,0,0,0,0,.29.28.25.17.14.16.32.24.14.14.28.23.33.23.13.09.23.14.09.14,0,.11.13.06h0l0,0,.14.12.09.07.12.1.11.09,0,0h0l.23.12.16.09.18.12.17.07.16.12.1.08.06.06,0,.08,0,.08v.07l0,.17,0,.17-.07.22,0,.1.05.09.08.14,0,0v0l.22.24.12.27,0,0,0,0,.31.34.32.48.17.2.26.22.28.22.29.23.36.35.16.1.31.27.16.2.29.28.12.09.14.07.11.1.12.1.09.07.1.12,0,.07,0,.11.1,0,.1,0,.17.16.11.12.17.17.26.21.21.21.12.09-.17,0h-.21l0,0-.06.05-.1.09v.13l0,.1v.13l.12.06.4.21.5.23.36.09.14.14,0,0,.06,0,.22.06.17.06.25.08.06,0,.18.13,0,0h0l.15.06.16.1.16.11.15.22,0,.08h0l0,.06v0l0,.11v.14l0,.11.1,0,.09.05.1,0,.07,0,0,0,0,0,.06,0,0,0,0,0,0-.09h0l0,0,.07.06.07.1,0,0,0,0,.15.08.15.17,0,0,.05,0,.09,0,.05,0h.25l.07-.1,0-.09v0l.33.27.5.44.89.82.33.24.27.21.21.18,0,0,0,0,.07,0H272l.13.15.27.2,0,0h.06l.27,0H273l0,0,.1-.05v.05l0,.06.32.53.29.44.08.1,0,0h0l.22.17.23.15,0,0h.05l.19,0h.25l.14,0h.2l-.13.09-.23.18,0,0,0,0-.15.21,0,0v0l-.09.22v.37l0,.08.09.14.1.17,0,0,0,0,.17.15.13.12,0,0,0,0,.16.08h.06l.14,0h.08l.2,0h.08l.06,0,.11-.09.11,0h0l0,0,.11-.07v.19l0,.17v.08l.05.23v.05l.08.16.13.37v0l.18.3.09.14,0,.1.13.06h0l.14.24,0,0,0,0,.23.19.33.22.22.2.25.16.29.24.07.2.13.34.12.39v0l0,0,.32.43.22.46.28.48.31.48.38.74.18.27.4.8v0l0,0,.3.35,0,0,0,0,.35.26.47.26,0,0h0l.36.08.1.18.19.23.23.39.05.24v0l.08.17,0,0,0,0,.23.24,0,0,0,0,.09.06.08.15.07,0,0,0,.06,0,.14,0,.11,0h.06l.06,0,.14,0,.11-.05.1-.06.1,0,.07-.05,0,0v0l0,.06.05.09v.15l0,.2,0,.07,0,.06.09.09,0,0,.05,0,.08,0h.19v.16l.06.06.08.08,0,.14,0,.08,0,.06v.2l0,0,.18.34.08.08,0,0,0,0,.22.15.24.13h.06l.28.06.07.05h-.22l-.07,0-.21.15-.15.1-.05,0,0,0-.07.13,0,.08v.08l0,.21v.06l.07.16.07.18,0,.27-.06.21v1l.14.46.1.46.19.48.51,1,.16.4,0,0,0,0,.22.26.14.52.33.69.84,1.32,0,.11h-.09l-.09.09-.09.08v.54l0,.3v.06l.07.19,0,.12,0,0-.07.11.05.12.1.28.12.25.14.38.14.46.14.34.09.24,0,.28v.29l0,.05.07.15,0,.22v0l.14.29.42.73.15.24.12.23.09.32,0,.2,0,.12,0,0v0l0,.34.07.27.19.49.09.13,0,.09h0l-.23.07,0,.23,0,.13.05.25.12.34.15.32,0,.06.05,0,.08.06.07.1,0,.3v.15l0,.15-.05.19v.26l0,.13v.06l0,.06.06.16v.05l.16.26.19.25.1.13,0,.05.06,0,.05,0,0,.1v.09l0,.29.06.18,0,.22-.08.1-.07.08v0l-.06-.09,0-.11,0-.21-.07-.25,0-.08-.08-.16h-.23l-.06,0-.15.09-.09.05,0,.11-.05.2v.52l0,.22.07.16,0,.06,0,0-.16.15-.07.06v.1l0,.18v.19l0,.19.05.18v0l0,0,.09.13,0,.22v.16l0,.2V170l.06.19.16.3.3.41.05.08,0,.05.05,0,.15.09.16.08-.05.08-.11.14-.09.11.05.13,0,.05.05.13.14,0,.1,0,.06.07,0,.19v.07l0,.06,0,.1,0,0,0,0,.11.12.07.08h.05l0,0-.12.46-.07.27-.15.11h-.05l-.2-.09-.05-.08v-.08h0l.09,0,.05,0,0,0,.08-.06.05,0,0-.07,0-.08,0-.07,0-.08,0-.09,0-.08-.06,0-.23-.18,0,0h0l-.2-.09-.11,0-.1,0-.06,0-.06,0,0,0-.09.14-.09.14,0,0v.05l0,.23v.06l0,.05,0,.08,0,.15v.17l0,.06,0,0,0,.1.07.1,0,.07.05.08H291v.09l0,.08.12.18,0,.07.08,0,.06,0,.06,0h.06l.12,0h.05l0,0,.08-.05h0v.14l0,0h0l-.16.09,0,.16v.08l0,.09.05.18v0l0,0,.12.23.15.29v.15l-.09.25-.09.15,0,.07v.32l.07.17,0,.1V177l0,.16,0,.06v0l0,.25,0,.22,0,.16V178l.13.26,0,.06.05,0,.1.06.2.41.33.56.24.28.27.37.19.21.21.34.19.27.13.16.09.2.06.11v.17l-.07,0-.07,0-.12-.06-.12.07-.19.11,0,0,0,0-.09.09-.15.17v0h0l0,0-.09.07,0,0,0,0-.16.24,0,.06v.4l0,.2V183l.28.76v0l.29.47,0,0,0,0,.31.21.33.22-.05.22-.19.34,0,0v.06l0,.48v.36l-.21.16h-.26l-.36-.21-.3-.17-.2-.15-.27-.28,0-.07.2-.3,0,0v0l.11-.4.21-.29,0,0v0l.12-.26,0-.05v-.49l0,0-.1-.2,0-.07-.07,0-.1-.05-.09,0-.09,0-.32.08h-.06l-.05,0-.35.33-.17.2-.32.53-.33.28,0,0,0,0-.2.28-.12.16-.06.06v.08l0,.6v.1l0,.05.1.23.22-.09.07,0v0l-.1.34,0,0v.05l0,.23v.05l0,0,.24.47,0,.06.06,0,.19.12.17.13.09.4,0,.09.08.06.44.29.13.16v.13l-.1.06-.12,0-.18,0v.19l0,.15-.17,0-.15-.15-.34-.27-.08-.15,0-.18v0l0,0-.1-.17-.18-.29-.06-.09-.11,0-.34-.06-.14,0-.09.1-.14.16-.16.17.16.17.21.22.27.21.08.2.05.59v0l0,.05.24.42,0,.07v0l0,0-.07,0,0,.06-.23.4-.06.17-.05.12.08.12,0,0,.2.42h0l-.05.08,0,.07V192l0,.25.07.23.07.25-.1.22-.2.18,0,0,0,.05-.11.26,0,.17,0,.09,0,.09.12.21.11.3.1.28.15.31v0l0,0,.31.31.11.09.17.25,0,.11-.05.14-.08.19-.06.17,0,.08,0,.07,0,.1,0,.07.06.05.1.08,0,.06v.07l0,0-.1.05,0-.06,0-.1,0,0,0,0-.08-.08,0,0-.05,0-.14-.05h-.05l-.05-.11,0-.05.05-.08v-.08l0-.18,0-.11.07-.23,0-.08,0-.08-.05-.15-.1-.29-.27.16-.14.08-.08,0,0,.1-.07.26-.19.28-.19.17-.26.14,0,0,0,0-.21.2,0,0,0,0-.15.26,0,.06v.37l.06.17v.06l0,0,.16.16.05.05h.06l.14.05.11,0,.09-.06.18-.11h0l0,0,0,0h0v.06l.1.06,0,0v.15l0,0,.09.23,0,.05.05,0,.25.21.13.17,0,0h0l.07.07-.09.07-.23.14-.07,0,0,.07-.21.44v.07l0,.24-.24.46-.17.29-.17.31-.11.25h0l-.1-.11,0,0,0,0L289,201l0,0h-.51l-.2,0h-.07l-.07,0-.12.06-.11,0,0,.12,0,.07v.37l-.09.13,0,0v0l-.12.36-.07.42-.11.33-.08.32,0,.29,0,.34V204l0,.23v.05l0,0,.12.22v.15l-.2.22-.31.19-.4.22-.25.05-.35,0-.17,0-.22-.09-.11-.09-.05-.05h-.09l-.1,0h-.09l-.33.08h0l0,0-.33.16-.29.19-.05,0,0,.07-.17.38-.13.38-.13.34-.23.35-.1.21,0,.05,0,0-.28-.16,0,0h0l-.24,0h-.07l-.47,0-.42.08-.36.06h-.05l-.42.17,0,0,0,0-.31.31-.45.52,0,0v0l-.12.25-.23.34-.27.16-.23.07-.29.1-.39.09h0l-.3.15-.05,0,0,0-.16.19,0,0v0l-.14.34-.05.24h-.09l-.08.06-.15.11-.05,0,0,.05-.09.18,0,0-.19-.17-.25-.17-.06,0h-.45l-.25,0h-.07l-.79.38-.45.11-.42.11h-.06l-.05.05-.46.43,0,0,0,.06-.18.48-.19.93-.17.71-.3.39-.24.14-.28,0-.35-.1-.32-.09h-.3l-.44,0-.21.05-.42.14-.17.08h0l0,0-.27.25-.73.57-.23.1-.56.15-.36.09-.5.21-.2.12-.31.14-.26.13-.07,0,0,.07,0,.09-.36.16-.08,0,0,.07v0l-.23.21h0l0,0-.14.2-.41.13-.25.12-.05,0,0,0-.18.2-.18.07h-.75l-.42.07L263,218l-.06,0,0,.05-.15.18-.31.23,0,0,0,0-.22.29-.18.18-.24.16h-.17l-.16-.12-.12-.13,0,0,0,0-.27-.15,0,0h0l-.08,0-.1,0-.09.06-.1.06,0,0,0,0-.25.3-.2.18-.27.15-.16.11-.16.13,0,0,0,0,0,.08-.06-.12-.07-.15v-.08l0-.16.11,0,.19-.07h0l0,0,.17-.13.09-.08v-.42l-.07-.08-.1-.11-.07-.08h-.1l-.34,0-.17,0-.26-.25-.12-.09-.11-.21-.07-.13,0-.1-.12,0h0l-.25-.08h-.09l-.21,0h-.1l-.07.08-.07.08-.2.07-.17,0-.13,0,0,.12,0,.11,0,.06V218l0,.28,0,.09-.11.17h-.16l-.1,0-.25.08.09.25.1.25,0,.06.05,0,.12.1v.12l-.2.2-.25.15-.47,0-.08-.45.09-.21v-.2l0-.44-.39.2-.21.11,0,0,0,0-.09.08L255,219v.09l0,.14v.09l.08.31-.28.19-.25.21-.1.09,0,.13,0,.35v.06l.13.36,0,.16-.19.05-.46-.1-.54-.1-1-.18.8.62.22.17.17.22,0,0,0,0,.51.31.35.16.13,0,0,.3,0,.26.05.25-.13.4-.22.3-.25.21-.17.14-.27.09-.3.16,0,0,0,0-.19.21,0,0v0l-.14.26-.58.27-.42.19.39.25.58.36.21.41v.18l-.15.37-.17.24-.46.13h-.23l-.31-.08-.31-.38-.12.49,0,.17-.21.33,0,.07v.35l0,0,.35.71.22.48.11.42-.11.43-.18.35-.37.29-.76.36-.39,0h-.38l-.44,0-.39-.25-.51-.37-.43-.27-.53-.4-1.23-1-.31-.22-.4-.35-1.19-1,.81,1.33.24.37.57.67.71.71.37.35.51.54,0,.24-.11.33-.14.19-.46.2-.22.15-.07,0,0,.07-.23.54,0,0v.05l0,.49v.36l0,.14-.09.08-.1,0h-.17l-.21.07-.21,0-.52.06-.62.14-.42.13-.5.15-.47.1-.67.21-.32.12-.32.07-.28.09-.34.05-.24.07-.22.09-.45.19-.45.24-.3.14-.65.27-.4.18-.77.25h0l0,0-.17.1-.83.36-.42.15h0l0,0-.23.17-.05,0,0,.05-.23.36-.1.18-.29.21-.15.14-.29.41-.22.39v.06l-.12.46-.21.45-.22.43-.25.48-.34.53-.27.3-.62.49-.34.16-.29.2,0,0,0,0-.81.94-.68.48-.78.41-.63.27-.43.21-.75.23-.69.08-.74,0-.43-.09-.48-.1-.4-.12-.23-.14,0-.12,0,0,.24,0h.08l.44-.09.29-.11.08,0,0-.07.09-.17.07-.11-.05-.11-.11-.23,0-.24.08-.08.05-.05,0-.07.06-.25.12-.31.21-.14.31-.1.29-.13.09,0,0-.09.08-.19.13-.32-.35,0h-.22l-.06,0-.4.21-.28.15-.21,0-.11-.12-.06-.22.1-.42.18-.44.12-.59V241l0-.85,0-.57v-1.37l0-.43.24-1,.06-.45.15-2.22.07-.92,0-.95,0-.66.05-.21v-.26l.11-.71.09-.65.12-.53.21-.69.17-1,.25-.37.2-.16.69-.33.59-.42.58-.44.42-.18.22,0,.18-.05v-.4l-.07-.5v-.06l0,0-.31-.48,0,0,0,0-.57-.49-.58-.34,0,0h0l-.44-.07h-.12l-.48.15-.14,0-.22-.06-.31-.18-.2-.27-.14-.25-.51-.84,0-.06-.07,0-.67-.34-.06,0H225l-.46,0h-.06l-.05,0-.44.28,0,0,0,0-.24.37-.37.33-.26.06-.3-.11-.24-.71-.05-.57-.18-.67v-.06l-.05,0-.29-.3-.39-.45-.29-.27,0-.05h-.08l-.41-.07h-.38v-.38h0l.2-.06.17,0,.22.12.05,0h.6l.07-.14.14-.25.12-.23.25-.39.3-.48.2-.2.18,0,.23,0h.08l.06,0,.22-.11.19,0,.47.1.28,0,.43.05.22,0,.21,0h.45l.31,0,.53-.1h.06l.05,0,.28-.23,0,0v0l.21-.26.31-.48.3-.41.34-.39.33-.25.55-.3.21-.12.64-.39,0,0,0-.05.1-.14,0-.07v-.27l0-.14v0l0,0-.09-.17-.12-.19-.1-.12-.1-.11-.07-.21v-.16l0-.25v0l0,0-.12-.22-.32-.4,0,0v-.08l.07-.1.15-.12.13-.12.27-.12.22-.11.13-.06,0,.11-.09.26.26.07.09,0,.06,0h.05l.25-.05.12,0h.27l.11,0,0,0,.08.17.19,0,.07,0h.21l.38.15.36.15.31.07h.18l.17.06.41.15.12,0,.11-.07.22-.16,0,0,0,0,.13-.17.18-.17.21-.2.22-.28,0,0,0,0,.05-.18.07-.15.1.09.08.07h.45l.15,0,.14.08.06,0,0,0H236l.09,0,.08-.05.2-.13.33-.13.25-.11.54-.14.34-.08.34-.06.3-.08.55-.19.23-.14.38-.15.25,0,0,0,.12.46v0l0,0,.27.38v0h0l.21.19.13.15.12.2.08.19,0,.08,0,.31,0,.14,0,.09.06.06.05.05,0,0h0l.37.22h.06l.35.09H242l.06,0,.19-.06.21-.06,0-.22V212l.1-.09.09-.07.06,0,0-.07,0-.09,0,0,.4.42.21.19.51.36.32.26,0,0h.05l.24.07.18,0h.43l.25,0h.22l.09.05.15.09.16.1.35.2,0-.4v-.17l0-.34-.05-.29-.13-.39v0l0,0-.26-.35-.2-.29,0-.33v-.27l0-.11h.1l.19,0,.12,0,.08,0h.06l.34,0-.13-.32-.17-.4-.06-.5v-.06l-.24-.61-.1-.17-.1-.18-.2.07-.48.16h0l0,0h0l-.13-.11-.48-.44,0,0,0,0-.35-.18-.1-.26-.05-.22v0l0,0-.12-.18,0-.07-.07,0-.53-.23-.21-.07-.36-.16-.27-.21-.11-.35-.21-.49,0-.08-.09,0-.1-.05v0l.06-.28.08-.34,0-.08,0-.07-.06-.15,0-.13,0-.29.18-.21.07-.11,0-.06v-.36l-.13-.07-.17-.08h0l0-.28.06-.34,0-.23V202l0-.24v-.07l-.05-.06-.16-.21,0,0,0,0-.19-.12h-.07l-.4-.11h-.07l0-.09,0-.2,0-.11.09-.07,0,0,0-.05.06-.13.15-.19.17-.22.14-.1h.2l.24.1.21.16.27.18,0,0h0l.15,0,.07,0,.08,0,.19-.08.06,0,0-.06.18-.23,0-.05V200l0-.2,0-.16.05-.07.11-.08,0,0,0,0,.08-.14v0l.1-.09.12-.11,0-.15-.05-.13v-.16l0-.08.21-.08.4.05.18.12.28.25,0,0,.06,0,.22,0h.22l.16.09.06,0h.33l.07-.06.12-.1,0,.05.07,0,.29.12,0,0h.12l.31.08.09,0,.07,0,0,.07v0l0,0,0,0,.09.1,0,0,0,0,.13.08,0,0,.08.11.05.07.08,0,.14,0,0,0h.05l.21,0,.15,0,.28-.12.11-.06h.23l.05,0,.09.06.15.1.06,0,0,0h0l.11,0,.14,0,.1,0h.15l.25.06,0-.25,0-.13v-.06l0-.07,0-.11,0,0,0,0-.11-.13-.15-.18-.06-.05,0-.08v-.2l0-.34v-.23l.08-.13.09-.18.1-.22,0,0v-.05l0-.19v0l0-.14.05-.08h0l.22,0v-.44l0-.05-.14-.19-.07-.14-.21-.49-.13-.27h0l.12-.08.11-.07h0l0,0,.05.07.08,0,.21.05.21,0h.08l.24-.06.13,0,0,0,0,0h0l.18.05h.45l.25,0,.31,0,.24,0,.2.06.09,0,.09,0,.13-.06.1-.05h0l.2.05h.43l.06,0,.33-.19.06,0,0,0,.19-.28v-.06l.09-.27.28-.57.22-.2.07,0,.22,0,.26.12.37.13,0,0h.48l.21,0,.41-.06.26-.08h0l0,0,.38-.23.21-.14.2-.14.53-.41,0,0,0,0,.25-.3.39-.46.49-.49.41-.58.06-.14.15-.16.06-.05.12,0,.15-.06.25-.08v0h.24l.12,0,.15-.06.17-.1.18-.11.18-.05.28-.05.15,0h.19l.24.1.28.16.17.29.15.33.1.16.06.09.12,0,.28,0h.09l.08,0,.13-.09.05,0,0-.05.09-.15,0-.06v-.18l.11-.14.22-.17.16-.13.07,0,.1,0,.34-.2.14-.11,0,0v0l.1-.13h0l.08,0,.05-.08,0-.06v-.07l.07-.27v-.11l0-.08.05-.51.05-.22.1-.24.08-.21.13-.23,0-.09,0-.1,0-.12V187l.09-.2.12-.23,0-.08,0-.09-.05-.21,0-.33,0-.2v0l0,0-.1-.18-.06-.16V185l0-.14v-.34l0-.07-.1-.12-.07-.12-.06-.33,0-.19,0-.31,0-.24v-.18l.07-.11-.15-.1-.09-.18-.13-.24-.09-.14-.31-.37-.05-.07,0-.2-.05-.25-.07-.38v0l0,0-.06-.15,0-.24.14-.36V180l0-.4v-.38l.12-.46.2-.52.12-.37.28-.55.19-.38.22-.49.12-.36.1-.34.21-.39.09-.08.05-.05,0-.07,0-.1.06-.18.07-.15v-.06l.05-.3,0-.32v-1.37l0-.36-.09-.62-.13-.46v0l-.25-.47-.15-.23-.24-.73,0-.19v0l0,0-.14-.33-.11-.22-.18-.35-.24-.35-.09-.1,0,0h0l-.36-.24-.27-.2,0,0h0l-.14,0-.08,0v-.18l.13-.28.18-.2.07-.08v-.25l0,0-.07-.12V166l0-.17,0-.16-.13-.09,0,0v-.23l0-.11,0-.06,0-.06-.06-.23,0-.07,0,0-.13-.12-.12-.1-.06-.05H264l-.24-.08-.08-.08-.08-.13v-.08l0-.23.08-.26v-.31l-.05-.07-.05-.06-.05-.06-.07,0-.14,0-.09-.06-.12-.16v-.07l0-.29.13-.14.12-.16.09-.13.12-.17.14-.15,0,0,0,0,.15-.37.1-.28.12-.18,0-.06v-.3l-.09-.34-.06-.22,0-.11v-.14l.06-.15.15-.19,0,0v-.05l0-.14.18-.28.07-.17.12-.18h0l.06,0,.05,0,.05,0H265l.07,0,.14,0,.1-.11.11-.12,0,0,0-.06.16-.46,0-.12,0-.06,0-.06v-.07l0-.2,0-.08.07-.11,0,0v-.05l0-.16.09-.12,0,0v0l.09-.17,0-.12,0-.15V156l0-.12v-.06l-.06-.1,0-.05.14-.21,0,0,.27-.44,0-.06v-.21l0-.18v-.08l-.05-.23,0-.3v-.26l-.13-.07-.23-.13v0l.06-.12.05-.08,0-.09-.07-.28v0l0,0-.09-.13v-.12l0,0,.2-.23,0,0,.17-.09.19-.1h0l0,0,.14-.13,0,0,0,0,.19-.3,0-.07v-.35l-.06-.07-.07-.06,0,0,0,0-.57-.28-.16-.11-.26-.16-.11-.13,0,0,0,0-.14-.08-.12-.21,0-.17-.06-.2v-.05l-.06-.11,0,0,0,0-.05-.05.13-.09.54-.13.23-.1.15,0h.09l.15.06.12.09.16.11.15-.13,0,0,.26-.14.08,0,0-.1.08-.27,0-.11-.07-.1,0-.05V148l.06-.11.08-.16,0-.06v-.06l0-.41v-.07l0-.1-.08-.24,0,0,0,0-.14-.17,0-.08.14-.1.17-.16.11-.13.09-.09,0-.13-.09-.38-.08-.18,0-.07,0-.06.18-.3,0,0v-.05l0-.18v-.05l0-.06-.12-.36v0l0,0-.13-.24-.13-.2-.11-.11.09-.11,0-.06.28-.42-.5,0-.19,0-.32,0-.28-.12-.05-.12-.08-.22-.1-.25,0,0,0,0-.29-.3-.24-.17-.19-.12-.06,0h-.49l-.22.06-.3-.1-.14-.14-.1-.26,0,0v0l-.18-.25-.16-.23v-.33l0,0-.13-.24,0-.05,0,0-.2-.15-.26-.17h-.05l-.34-.13-.1-.08v-.08l.05-.23V139l0-.37v-.06l0-.06-.08-.11,0,0,0,0-.24-.18,0,0-.05,0-.21-.05-.09,0-.11-.2,0-.08.09-.17,0,0v-.05l0-.23v-.14l-.11-.09-.08-.06,0-.08,0-.07.07,0,.25-.11.31-.16.31-.21.13-.06.16,0h0l0,0,.23-.12.11-.08.31-.08.28,0,.15,0,.24,0,.17,0h.07l.05,0,.18-.12.09,0,0-.11.07-.31,0-.2.08-.19.08-.14.14-.14,0,0v0l.09-.13v-.06l0-.13,0-.05V134l0-.31v-.09l-.05,0,0-.12h-.06l0,0,0-.11.08-.16,0-.07V133l0-.18,0-.16-.16,0-.33-.09-.06,0-.07,0-.19.05h-.06l-.22.13-.21.08-.15.06-.29,0-.16,0-.1,0-.07-.11-.08-.16,0,0,0,0-.14-.11-.16-.22-.28-.3,0,0,0,0-.21-.12-.2-.09h-.06l-.37-.06-.29-.05-.23-.17-.18-.12-.18-.23-.06-.15,0-.12,0-.09.13-.37,0-.18v-.09l0-.15,0-.09,0-.08-.05,0-.06-.05h-.07l-.18,0-.21-.12-.41-.31-.09-.07-.11,0-.07,0h-.46l0,0h0v0l-.06,0-.06,0-.08,0-.1,0h-.05l0-.06-.13,0h-.23l-.1,0h-.12l0,0v-.13l0-.19,0-.12-.08-.08-.1-.1-.13-.09-.13-.07h-.09l-.12-.13-.07-.08-.05,0-.07-.11-.07-.06-.13-.11-.05,0,0-.11,0-.34V127l0-.22v-.16l0-.11v-.12l0-.22v-.06l0-.14,0-.1-.08-.06-.07-.06,0,0,0,0-.22-.06-.15-.07-.11-.09,0,0H256l-.14,0-.15,0-.1.1-.06.07,0,0,0,.06,0,.15v.1l0,.12,0,.16v.06l-.15.27-.05.12,0,.08-.1.1-.11.06-.14.07h0l0,0-.13.11,0,0,0,0-.08.11-.07.06-.09.06h-.06l-.1,0-.08-.07,0,0h0l-.14,0-.13,0-.14-.09-.13-.07-.08-.16,0,0-.1-.31,0-.18v-.07l0,0-.11-.15,0-.1,0-.1,0-.07.11-.14.11-.18,0-.06v-.28l-.06-.07-.05,0,0,0-.06,0-.23-.08-.11,0-.08,0-.13-.06-.06-.06,0,0,0,0-.24-.11-.07-.06,0-.22v-.06h0l.05-.08v-.1l0-.09v-.06l-.05-.05-.16-.18-.13-.23-.14-.16,0-.07V123l0-.42,0-.31V122l0-.35,0-.25.05-.45v-.19l0-.06-.08-.13-.09-.12,0,0,0,0-.1-.08-.09-.1-.06-.13v0h.19l.2,0v-.2l0-.8v-.49l-.36.18-.06,0-.11.07v0l0,0,0,0-.06,0-.17,0-.13,0-.3-.15h-.06l0,0,0,0-.1-.06-.32-.25-.12-.14v0l0-.12.08-.09,0,0,0,0,.06-.14v-.37l-.11-.08-.21-.16-.12-.06-.29-.23-.06-.11-.12-.19-.31-.43-.11-.22,0,0,0,0-.11-.1-.17-.14,0-.08.06,0,.06,0,.14,0,.05-.13,0-.06,0-.06V115l0-.09v-.07l0,0-.11-.13,0,0h0l-.17-.13-.07-.18,0-.13,0-.12-.09-.06-.13-.07,0,0h0l-.15,0-.1,0-.08.06-.12.07-.1.06v.12l0,.2v.13l-.07.08h0l-.13-.07-.23-.14-.29-.15-.14-.11-.24-.18-.21-.17-.51-.35-.21-.27L245,113v0l0,0-.27-.27-.25-.21-.15-.17-.1-.18-.26-.33-.11-.1-.13-.17-.2-.24-.12-.14-.13-.15-.23-.29-.25-.23-.17-.22-.17-.21-.34-.4-.13-.19-.15-.29-.21-.29v0l0,0-.31-.27-.07,0-.28-.14-.16-.09-.17-.16,0,0h0l-.2-.07-.09,0h-.38l0-.19-.05-.2v-.13l-.05-.07-.12-.16-.14-.2-.19-.27v0l0,0-.23-.2-.07-.08,0-.11,0-.25v-.21l0,0-.09-.21v0l0,0-.11-.14,0,0,0,0-.26-.19-.15-.12-.2-.16,0,0,0,0,0-.1,0-.11,0-.13v-.37l0,0,.08-.08,0,0,0-.08,0,0v-.27l0,0v-.25l-.11-.08-.14-.09,0-.09,0-.11-.11-.05-.12,0-.08,0-.07,0-.09,0,0,0v-.28l0-.17,0-.14v-.28l-.05-.06-.12-.13-.06-.06-.08,0-.15,0-.13,0-.05-.21-.13-.27-.11-.2-.06-.17-.07-.17-.15-.35v0l0,0,0,0,0,0h0l-.31-.21,0,0h0l-.16,0h-.28l0,0-.16.07-.06,0,0,.06-.12.17,0,.06v.22l-.05.15,0,.06-.09,0-.21-.08-.2-.08-.19-.15-.27-.16-.07-.1v-.2l.05-.12,0-.13,0-.24,0-.19-.17-.08-.16-.08-.16-.08-.13.13-.11.11,0,0-.14-.14,0,0-.06,0-.13,0,0-.06-.05-.14v0l0,0-.1-.11,0,0,0,0-.34-.19-.16-.12,0-.07.06-.11,0,0v0l0-.17v-.07l0-.07-.12-.37,0-.06-.05,0-.1-.09,0,0-.06,0-.32-.09-.11-.06-.18-.21-.15-.2-.17-.26-.06-.19v-.15l.11-.4.06-.19.05-.12.08-.17,0-.05v-.24l.11-.23v0l0-.14h0l.14-.12.14-.06,0,0,.07,0,0-.09,0-.08,0-.14,0-.16v-.33l0-.07v0l0,0-.07-.1,0-.06-.05,0-.2-.11-.15-.07,0-.06,0-.1,0-.15-.12-.11-.1-.08-.09-.08-.12,0h-.08l-.11,0-.3-.08-.07,0-.07,0L230,92l-.29,0-.16-.08h0l-.08-.12,0,0,0,0-.1-.08-.06,0h-.19l0,0v0l0,0-.07-.07-.09-.09-.13,0-.11,0-.14,0h-.22l-.15,0H228l0,0-.07-.15-.09-.19-.08-.12,0,0,0,0-.16-.11-.05,0h-.26l-.22,0-.05,0h-.17l-.16,0h0l0,0-.06,0-.14,0-.13,0h-.29l-.12,0-.2-.09-.2-.1-.09,0-.06,0-.07,0-.08,0-.15,0,0,0-.21-.16-.09-.07-.08-.11-.06-.09,0,0-.06,0-.06,0,0,0h-.37v-.08l0,0-.07-.1,0,0-.05,0-.23-.12-.11,0-.08-.08-.07-.13,0-.06-.06,0-.17-.1-.07,0-.33-.18-.09-.11-.09-.12-.06-.14-.05-.1,0,0,0,0-.08-.09,0,0V88.1l0-.06-.06-.12,0-.1-.1,0-.17-.06,0,0h-.15l0,0-.09-.11-.11-.11,0,0-.06,0-.08,0-.11,0-.11.07-.15.11h0l0,0-.06.06,0,0h-.09l-.13-.13-.12-.12,0,0-.09-.11,0-.06,0,0,0,0-.09-.1-.1-.21,0,0,0,0-.18-.18,0,0,0,0-.15-.09h-.07l-.28-.06-.24-.11-.27-.23-.19-.16-.14-.12-.09-.08-.11,0-.23,0h0l0,0-.15.08-.24,0-.06,0v-.12l0-.2v-.08l0-.22-.2,0L217,85l-.17-.24-.11-.14v0l0,0-.17-.14,0,0h0l-.25-.11,0,0h0l-.27,0-.09-.06-.05,0h-.13l-.11,0V84l-.05,0-.21-.19,0,0-.06,0-.19-.06h-.29l-.17,0-.06,0-.18,0-.16,0-.13,0-.22-.09-.17-.07-.09,0-.06-.07-.19-.19-.13-.09-.1-.1-.07,0-.14-.16-.12-.1,0,0h0l-.05,0,.05,0,.13-.06.19-.08.13,0h.09l.06,0,.05,0,.08-.07,0,0,0,0,.1-.22.1-.17.05-.05,0,0,.16,0,.21,0,.17-.06.16,0,.2-.06.28-.1.06,0,0,0,.23-.19,0,0,0,0,.06-.11,0-.12.15-.16,0,0v0l.06-.11.06-.16v0l.06,0,0,0,.11-.06,0,0,0,0,0,0,0,0,0,0,0-.09.05-.12-.07-.11-.07-.11,0,0,0-.09,0-.11v-.13l0-.14v0l0,0,0-.06,0,0,0,0-.13-.12,0,0h0v-.15l-.11-.09-.14-.09-.16-.19-.12-.18-.1-.16v-.12l0-.11,0-.1,0-.09-.05-.1v-.1l0,0h0l.27.11.13.07.16.08.12.1,0,0h.06l.18,0H216l.14,0h.06l0,0,.16-.11,0,0,0,0,.05-.1,0,0h0l.07-.07.13-.06.37-.16,0,0,0,0,.14-.1.15-.07.28,0H218l.29,0,.16.06.12.19.16.24.22-.19.1-.09.16-.13.24,0,.19,0,.28-.08.1,0,.1.18.08.22,0,.07.06,0,.27.19.05,0h.19l.24,0,.19.12.14.16,0,0,0,0,.21.12,0,0h.48l.17-.06.26,0h.29l.22,0h.08l.07,0,.07,0,.08,0,0-.07.17-.33.08-.28.18-.35.08-.19.14-.25.22-.29.09-.14.13-.12.11-.1.26-.14,0,0h0l.16-.15.11-.07.23-.11,0,0,0,0,.08-.09.2,0,.2,0,.15,0h0l.12-.06,0,0,0,0,.09-.09,0,0,0-.06.09-.27v0l0-.25V74l-.07-.3-.05-.17v0l0,0-.15-.23-.09-.11,0-.19,0-.18,0-.12.08-.14.06-.08.12-.11.09-.07.11,0,.23-.07.11,0h.05l.08-.06.06,0,0-.07.06-.15,0-.09.16,0h.09l0-.07.05,0,0,0V71.4l.05,0,.07,0,0-.07,0-.06.08-.11.16-.19.17-.18.09-.13,0-.06v-.32l0-.08-.18-.23-.13-.12-.23-.19-.12-.11-.05,0v-.27l-.08-.06-.05,0-.09-.06h-.18l-.13,0-.09,0h-.28l-.23-.08-.23-.1-.18-.08-.12-.08-.31-.2-.13-.07-.13-.06-.16,0H225l-.24-.05-.24-.13-.2-.06-.14,0H224l-.14,0-.35-.15-.22-.08-.09,0-.06-.1-.05-.1,0-.08h0v-.13l0-.16v-.36l0-.15V66.5l0-.14,0-.06,0,0,.15-.1.26-.11.05,0,0-.05.05-.07.12,0,.15,0,.13,0h.15l.23,0v-.43l-.05-.06-.19-.23-.06-.08,0,0,0,0-.14-.1-.16-.13,0,0,0-.15,0-.13-.12-.06-.07,0,0,0h-.22l-.11,0h-.06l0,0-.14.1,0,0,0,0-.1.14,0,0v.06l0,.15V65l-.05.07-.13.06-.15,0-.23,0h-.42l-.07.07-.18.17,0,0,0,0-.08.17-.06.06-.13,0-.17,0-.42,0-.2-.07-.1-.08-.17-.13-.1,0,0,0V65.3l0-.08,0,0,0,0-.21-.28-.1-.09V64.7l0-.08,0-.06.16,0,.23-.12.15-.11.1-.1.21,0h0l0,0,.19-.11.24-.12.17-.12.06-.06.05,0,.22-.09.24-.15,0,0,0,0,.13-.16.12-.07.13-.1.17-.11.1-.07.06,0,.08,0,.18,0h.09l.17,0,.1,0,.06-.09.06-.11,0-.1.06-.08,0-.11-.06-.25,0-.12.08-.25V61.5l0-.14,0-.1-.09,0-.1-.06,0,0H223l-.16,0-.25,0-.27,0-.13,0-.06-.09,0,0h0l-.11-.11,0,0,0,0-.22-.09-.19-.08-.3-.07-.16-.13,0-.31-.05-.22,0-.14-.13,0-.15-.05-.23-.07-.38-.15-.22-.11-.25-.18-.24-.3-.18-.2-.15-.24v0l0,0-.29-.31-.05-.14,0,0,0,0-.19-.2,0,0-.05,0-.31-.13h-.07l-.19,0h-.11l-.08.07,0,0-.1-.18-.06-.12-.05-.09-.1,0-.15,0-.28-.11h-.06l-.39-.05-.45-.12-.12-.05-.1-.11,0,0-.06,0-.17-.05h-.31l-.06,0-.26.16-.17.11h0l0,0-.08.09-.08.11v.23l0,.12-.07.08h-.08l-.3,0-.36,0-.22.05-.07,0,0,.05,0,0-.07,0-.21,0h-.22l0,0-.19.08-.21.1-.21.09-.15.09-.25.18-.12,0H211l-.13,0-.06.12,0,0-.05.05-.06.06v.25l0,.07v0l0,.07h0l-.09,0,0,0,0,0-.05,0-.06,0,0,.06,0,.07,0,.08,0,.08,0,.12v.22l0,.1,0,.09,0,.11v.15l-.07,0h-.29l-.14,0-.13,0-.1,0-.06.09-.06.08,0,.06v.22l0,.05,0,.06,0,.08,0,.21,0,.09,0,0h0l-.21.06h-.3l0,0,0-.07v-.11l0,0,0-.09,0,0,0,0-.08-.08,0,0h0l-.14-.06-.1-.07,0-.06,0,0-.05,0-.12-.08h0l-.11,0,0,0-.09-.06h0l0-.07-.06,0-.08-.06-.09-.05,0,0h0l-.14,0-.25,0H207l-.16,0h-.1l-.14,0,0,0,0,0v0l0-.06v0l-.06-.12-.07-.1-.07-.08,0-.07v-.18l0-.1-.07-.06-.08-.06-.08-.07-.08-.24-.27.15-.09,0,0,0,0,0,0,0-.09.1,0,0,0,.06v.12l-.1,0-.07,0-.07,0H205l-.12,0,0,.1h-.05l-.3-.25-.1-.08-.13,0-.08,0-.1-.06L204,59l-.12-.07-.14-.08,0,0h0l-.08,0,0-.06,0-.07-.09,0-.12,0h-.41l0,0h-.11l-.13,0v0l0,0v-.36l0,0-.08-.11-.08-.09,0,0h0l.07-.1-.25-.13-.12-.07,0,0h-.24l-.24,0h-.23l-.21,0-.17,0h-.13l-.09-.09,0-.1v0l0,0-.1-.17-.09-.22v0l0,0-.19-.26-.19-.41L200,56l-.2-.56,0-.09-.07,0v0l0-.05,0,0-.1-.06,0,0h0l-.1,0-.11,0L199,55h-.1l-.11,0,0,0,0,0v-.28l0-.12,0-.07,0-.05-.13-.11-.14-.13,0-.09-.06-.29,0-.1,0-.11-.12,0-.1,0-.09-.08-.05-.13,0-.31,0-.14,0-.15v-.06l.05-.18-.16-.1-.15-.09,0,0,0,0-.06,0-.31-.11-.15,0H197l-.18.05h-.1l.12-.07L197,52l.22-.13.23-.17.12-.11.08-.06v-.1l0-.53v-.07l0-.12-.05-.13.1-.23.13-.22.15-.21.19-.31.11-.19,0,0v-.46l-.23,0-.17,0h-.07l-.06,0-.16.08,0-.07.17-.32.12-.16.2-.14.22-.18.29-.35,0,0,0,0,.26-.5.15-.34,0-.07,0-.08,0-.26,0-.16L199,46l0-.2,0-.25v0l0-.23,0-.12,0-.13V44.8l0,0-.1-.21-.07-.16-.18,0-.21,0h-.07l-.1,0-.27.09-.18,0h0l0,0-.34.14,0,0,0,0,0,0-.06,0,0-.09v-.92l0-.14,0-.37v-.05l0,0-.09-.18V43l0-.12v-.11l-.1-.06-.13-.08,0,0-.13-.09-.14.07-.08,0-.1.07-.07,0,0,.08,0,.1V43l0,.19v.07l0,.17.06.2v.17l0,.21v.27l0,.18v.12l-.13.14-.11.11-.11.06-.12.07-.07,0,0,.06-.12.2,0,.1,0,0v.07l-.07.07-.07.07-.14,0-.25,0h0l-.23,0-.16,0-.11,0,0-.07,0-.24,0-.19v0l0,0-.1-.16-.08-.22,0-.17.11-.24,0,0v0l0-.31v-.08l-.1-.39-.09-.25v0l0,0-.16-.24v-.08l0-.09,0-.08-.06-.12,0-.09-.09,0-.13,0v0h0l0-.22v-.3l0-.07,0-.09-.07-.06-.14-.11,0,0h0l-.27-.1-.17-.06-.22-.14-.26-.2,0,0h0l-.13-.06-.14-.12-.18-.13-.11-.17,0,0h0l.09-.05.11,0h0l0,0,.11-.08V39.7l-.15-.06-.19-.08,0,0h-.15l0,0-.09-.13,0,0,0,0,0,0-.09-.14,0,0,0,0-.13-.09v0l0-.21v0l0,0,0-.09v0l0,0-.17-.19-.16-.14,0,0h0l-.36-.17-.1,0,0-.09-.06-.15,0-.11-.11,0-.16,0-.12,0h-.07l-.05,0,0-.18,0-.05,0,0-.08-.09,0,0,0,0L189,37l0,0h0l-.1,0-.14,0-.1-.1-.06-.11,0-.06-.06,0-.12-.06h-.05l-.23-.07,0,0,0-.14V36l0,0-.1-.19,0,0,0,0-.1-.09,0,0h0l-.12-.07-.09-.06-.09-.07v-.2l0-.17,0-.16-.14-.09-.1-.07,0,0H187l0-.08,0-.16v-.08l-.05-.06-.1-.11,0,0,0,0L186.6,34h0l.11-.16.08-.09.08-.07h.33l.11,0,.18,0h.17l.13.06,0,0,.05,0,0,0,0,0L188,34h.06l.09,0h.14l.09-.07.07,0,0-.09,0-.13,0-.09,0-.08-.06-.13,0,0,0,0-.11-.11,0-.08h0l.05-.18,0-.08v0l0,0h0l.11,0,0-.09.06-.1h0l.06,0,0-.06.06-.09,0-.06,0-.11,0-.08,0-.05.05,0,0,0,0,0,0-.05v-.05h.08l0-.12,0,0,0,0v0h0l.05,0,.08-.05.06,0h0l.23-.09,0-.23v-.05l0,0,.21-.06L190,31l.08,0,0-.09,0-.05.11-.19.05-.06.1-.1h.06l.2,0v-.37l-.07-.08,0,0,0-.05-.06,0-.05,0h0l-.09-.21,0-.05h.1l.08-.05.12-.09,0,0,0,0,.06-.1.21-.18L191,29l.09-.12.05-.06V28.5l0-.08,0-.06,0,0,.15-.07.07,0,.13.09.15.08.12.13.11.2.13.18,0,0,0,0,.29.17,0,0h0l.35.05h.33l.2.08.31.12h.06l.21,0h.08l.07-.05.1-.06.13,0,.22.22.15.14,0,0h0l.2.12.32.28.24.17h0l.25.1.22.05.41.09.26.26.08.28.16.39.38.63.21.32,0,.07.07,0,.41.16.33.17.32.18.71.28.37.08.14,0,.1-.12.16-.18.05-.07v-.3l0-.19.08-.2.34-.28.37-.14,0,0,0,0,.17-.13.22-.06.1,0,.05-.09.07-.13.07-.14-.1-.13-.16-.21-.08-.19,0-.27.11-.17.2-.12.28-.12.28-.11.2-.07h0l.22-.15.21-.19,0,0,0-.05.07-.16.11-.26,0,0v0l.06-.38.08-.17.15-.2.12-.22.1-.24v-.05l0-.14.11-.14.24.15.09.11,0,0,0,0,.33.2,0,0h0l.14,0,.27.17,0,.08-.05.07-.16.27-.06.1,0,.12,0,.12,0,0,0,0,.08.09.14.18.15.23.14.23.12.2.1.14.1.16,0,0,0,0,.21.21.11.08.1.15,0,.05,0,0,.05,0,.17.08.18.08L207,31l.14-.18,0,0,0-.05v-.1l.05-.06,0,0,0,0,.06-.15.14-.09,0,0,0,0,.06-.08,0-.06V29.8l0-.2v-.11l-.08-.06-.06,0,0,0,0-.1,0-.1,0-.06.11-.09,0,0,0,0,0-.08.11-.12.06-.07.14-.18.06-.12.08-.13.09-.17V28l0-.07h0l.06,0,0,0,0,0h0l.06,0V28l0,.06,0,0,0,0,.15.17v0l0,0,.11.11.1.09h0l.07.14.11.17,0,0,.05,0,.12.06,0,0h.13l.07.08h0l0,.08.06.05.09.07.06,0,0,0h.05l.08,0h0l.07.06.06.11.08.12.18.21,0,0,.08.11.12.2v0l0,0,.06.08.06.05.08.15v0l0,0,.1.09.13.1.08.09.07.09,0,0,0,0,.1.08.15.17,0,0,0,0,.14.06.05,0,.13.07.12.07h0v.05l0,0,0,.12.05.11.12,0,.09,0h.19l.06.11v0l0,0,.06.07,0,0,0,0,.12.06.14,0,.1,0,.07,0,.08,0,.11,0h.08l.19-.11.21-.14.11-.09v-.46l0-.15.05-.08,0,0v-.05l0-.15,0-.08.09-.25v0l0-.12.1-.22v-.06l0-.2v-.09l0-.08,0-.13,0-.08-.07-.05,0,0,0-.05h0l.07-.18.11-.22,0-.05v0l0-.25.08-.22.19-.14,0,0,0,0,.12-.17.23-.18,0,0,0-.05.08-.15.14-.21.09-.13h0l.05,0,.08.05.1,0,.21-.06.2-.09.08,0,.26-.06.09,0,.28,0,.12,0h.08l.06-.07.07-.08.06,0,.14,0h.1l0,0v.13l-.06.17-.07.12v.06l0,.16V28l0,.11,0,.13,0,.11,0,.08.06.06.09.07.06.07,0,0,.06,0,.16.06.11,0,.14.08.08,0,.09,0h0l0,0,.08.05.06,0v.16l0,0,.09.12.08.09,0,0,0,0,.1,0,.07,0h.16l0-.25.07.25h.07l.06,0,.11-.07h.14l.06,0,.13-.08.18-.15.24-.2,0,0,.38-.26.22-.16.18-.14.15-.14,0,0,.28-.16,0,0,0,0,.18-.23,0-.09.06-.06.05-.05v-.06l0-.07,0-.06h0l0,0,.15-.13,0-.05,0-.07v-.05h.07l0,0v.44l.22,0,.12,0h.08l.07,0,.12-.06,0,0,0,0v0h0l.06,0,.08,0,.21.08.12.05.15.07.07,0h.08l.25-.05h.34l.17-.07.12,0,0-.12,0-.16v-.16l0-.07.13-.09h0l0,0,.18-.19,0-.05,0-.06v0l.13-.12.39-.18.34-.2.05,0h.14l.07-.09.18-.22.07-.09,0-.11,0-.25v0l0,0-.09-.14-.17-.21-.07-.06-.05-.14,0-.3v-.05l0-.14-.07-.23v-.1l0-.21v-.22l-.05-.22v-.06l-.08-.13,0-.13v-.15h0l.2.14.05,0h.07l.17,0h.11l.08-.07.25-.2,0,0,0,0,.08-.16,0-.05v-.21l0-.08,0-.09.06-.06h.11l.15.06.13.05.14.06.21.08.1-.2.07-.12,0,0v0l0-.1.11-.15.13,0,.23-.09.22-.12.16-.13.2-.11.18-.12,0,0,0,0,.08-.11.08-.09.07-.1.12,0,0,0,0,0,0,0,.33.14.08,0,.08,0,.16,0h0l0,0,.28-.17.2-.17,0,0,0,0,0,0,.15,0,.16.09.11.06.11.06.11,0,.24-.11.1-.07,0-.08,0-.08,0,0,.05,0,.06,0,0-.06,0-.09v0l0,0,0-.05v-.05l0-.08,0-.08v-.2h.05l.18,0,.07,0,0,0,.07,0,0-.07,0-.05h0l0-.12,0,0v0l0,0,.07-.1v0l0-.08v0h0l.11-.05,0,0m26.28,39.26-.07,0,.4.08.24.07.19,0,.12,0,.29.06.05.12-.14.62-.1.35-.17.27-.23.16-.09,0-.15-.23-.1-.18-.24-.37-.13-.15-.11-.16,0-.21v-.34l.08-.12h.22m7.1,67.51h0l0,.07,0-.07m9.88,6.86.09,0,0,.05.06,0,.16.08,0,0h0l.12,0h.3l.05,0,.07,0h0l-.06.08-.15.06h-.35l-.16,0h-.06l-.05,0-.15.12v-.06l0-.06,0-.07,0-.05,0,0-.08-.06,0,0,.1-.09.08-.07h.06m15.09,35.85,0,0,.08.16v0h-.23v0h0l0,0,.09-.05,0-.11M233.32,18h0l-.11,0-.11.05H233l-.07,0,0,0,0,.06v0l0,.09,0,0,0,0,0,.05h0l0,.07v.07l-.05.12v0h0l-.18,0h0l-.14,0,0,0,0,.05h0l0,.08v0l0,.1h0l0,.07v.07h0l0,.07-.06.06v0l0,0,0,.09-.06,0h0l-.07.08h0l-.05.1v0l-.24.11-.11-.06-.19-.1h0l-.31-.05-.05,0-.09.14-.2.17-.25.15-.16,0-.33-.14-.11-.1h-.05l-.28.08,0,0-.12.15-.07.07h0l-.09.12-.18.12-.18.1h0l-.19.15-.18.09-.2.08-.16,0,0,0-.19.25v0l0,.14-.07.12-.14-.05-.12,0h0l-.19-.08H227l-.12.13h0l-.09.15v0l0,.1v.21l-.09.15-.25.21-.17,0-.2-.15h0l-.17-.08h0l-.12,0,0,0,0,.1v.25h0l0,.18h0l.09.17,0,.22v.17h0l0,.22v.12l.07.25h0l0,.14,0,.3v0l.07.23v0l.12.1.13.17.07.12,0,.24-.18.22h-.09l-.1.05h0l-.35.21-.4.17v0l-.19.17,0,0,0,.09-.17.19-.18.12,0,0-.05.13h0l0,.2,0,.12-.18.06h-.26l-.29.05-.14-.07h0l-.14-.05-.26-.1h0l-.15,0L223,27l0,0-.09.12-.11.06-.13,0v-.31l0-.07,0,0-.16-.1h0l-.26.05,0,0,0,.16-.15.14-.08.05,0,0-.05.13h0l0,.09-.06.07h0l-.07.12-.15.19-.3.17h0l-.05,0-.13.13-.16.12-.22.16-.37.25h0l-.07.07-.21.18-.18.15-.1.06h-.16l-.15.1h-.09l-.07,0h0l-.1,0-.08-.09-.06-.09,0-.14h0l0-.05,0,0-.12-.07h0l-.1-.05h0l-.12,0h0l-.1,0-.17-.09h0l-.13,0-.13,0-.06-.07h0l-.1-.09,0-.11h0l-.05-.16,0-.09v-.11l0-.17.07-.12h0l.07-.2h0l0-.09,0-.1h0l0-.09L218,27l-.05-.1-.13,0-.15-.07h-.18l-.16.05h0l-.11.05h0l-.11.11-.12,0-.25,0h0l-.14.05-.23.05h0l-.11.05h0l-.2.1-.16,0-.08,0h0l-.19,0,0,0-.05.05h0l-.11.18-.15.2h0l-.09.17-.25.2h0l-.13.2-.23.17,0,0-.12.31v0l0,.26-.12.22h0l-.09.25v0l0,.1v0l.07.1h0l.06,0,0,.14h0l0,0-.05.2-.11.25v0l0,.14-.09.25h0l0,.1h0l0,.16-.09.15v0l0,.22V32l-.2.14-.18.1-.12,0-.1-.05h0l-.16,0-.08,0-.06-.07-.09-.17,0,0-.12,0h-.18l-.08,0-.06-.11v-.1l0-.07,0,0-.17-.1h0l-.14-.08-.05,0h0l-.15-.07-.16-.17h0l-.11-.1-.06-.1h0l-.09-.11h0l-.16-.13-.06-.06-.09-.17v0l-.07-.07-.07-.07-.11-.2h0l-.09-.13h0l0,0-.16-.2-.07-.1-.07-.12v0l-.12-.1h0l-.07,0h0l-.11,0-.06,0-.08-.07,0-.06v0l-.14-.15,0,0-.16,0-.12-.06-.11-.16-.07-.13h0l-.05-.05h0l-.11-.1-.09-.09,0,0v0l-.15-.17,0-.05v-.09l0-.05-.14-.1h0l-.12-.05h-.09l-.09,0,0,0,0,.06-.06,0-.05,0,0,0,0,.08h0l0,.1-.09.17-.07.13-.07.12-.12.15,0,.05-.12.12h0l-.07.1-.11.09h0l-.09.13v0l0,.18h0l0,.15v0l0,0,.07.08h0l.07.06,0,.21v.1l-.05.08-.18.12,0,0-.09.19-.09.1v0l0,.09,0,0h0l-.16.19-.17-.08,0-.05-.08-.15h0l-.14-.11-.19-.18-.1-.17h0l-.1-.15-.1-.17h0l-.15-.24h0l-.15-.24h0l-.16-.2-.07-.08-.05-.13.15-.27.1-.13v-.05l-.07-.24,0,0-.32-.21h0l-.18-.07-.33-.2-.1-.13h0l-.35-.22h0l-.13,0,0,0-.19.23v0l0,.19-.1.24-.11.2-.13.17h0l-.12.22v0l-.06.42-.11.26h0l-.07.16-.21.19-.18.11-.2.07h0l-.3.12h0l-.27.12h0l-.26.15,0,0-.17.25v0l-.05.37v0l.11.27v0l.18.22-.07.13-.26.07h0l-.2.15-.4.16h0l-.39.33,0,0-.1.24h0l-.05.22h0V33l-.16.18-.37-.08-.67-.27-.28-.17h0l-.33-.17h0l-.42-.17-.21-.33-.38-.62-.13-.35-.09-.31,0,0-.33-.33,0,0-.47-.1-.21-.06-.21-.08-.24-.16-.3-.26h0l-.23-.14-.16-.14-.25-.25h0l-.26-.08h-.05l-.17.11-.2,0-.31-.12-.24-.1H193l-.34-.05-.29-.17-.13-.17-.09-.17h0l-.16-.2h0l-.17-.1L191.6,28h-.16l-.12.07-.17.08h0l-.07.08h0l-.07.1v0l0,.11h0l0,.14h0v.17l-.1.12-.09.1-.18.16h0l-.1.15-.12.08-.19,0H190l-.05.06v.07h0l0,.14h0l.09.15.07.18h0l0,.09,0,0,.13.05,0,0v.06h-.07l-.08,0h0l-.13.11h0l-.06.08h0l-.12.21h0l0,.08-.11,0-.19.05h-.09l-.07,0,0,.05V31l0,.11h0l0,.07v0h-.07l0,0-.06,0-.08.05h0l0,0v0h0l0,.08,0,0,0,0h0l0,0-.05.05v0l0,.05h0l0,.08,0,0,0,0h0l0,.08h0l0,.1h0l0,.12,0,.05,0,.06,0,0h0l-.07,0,0,.05v0l0,0v0l0,0-.05,0h0l-.05,0,0,0-.07.1v0l0,.07,0,0h0v0h0l0,0,0,0,0,0v.07l0,.05,0,.07h0l.07.13h0l.13.15.06.12,0,.14,0,0-.08,0-.08-.05,0,0-.05,0h0l-.16-.08h0l-.09,0h-.18l-.13,0-.09,0h0l-.11,0h0l-.09,0h-.09l-.17,0,0,0-.12.1h0l-.09.11h0l-.16.23V34h0l0,.13,0,0,.2.09.09.11,0,.16h0l.09.23.05,0,.15,0,.1.07,0,.2h0l0,.31,0,0,.14.13h0l.12.07h0l.13.08.11.09.11.18v.29l.09.22,0,0,.11.08h0l.25.08.12.06.06.12h0l.17.17,0,0,.19.05h0l.11,0,.13.06.08.09.06.21,0,0,.11.12,0,0,.14,0,.11,0,.14,0,.06.15,0,.18,0,0,.21.05.31.14.16.15.16.17,0,.08,0,.24v0l.05.1,0,0,.18.12.11.17h0l.06.05.11.16,0,0,.11.08h.19l.19.08V40l0,0-.11.05h0l-.14.08h0l-.12.16v.06l.09.15h0l.15.2h0l.21.15L192,41h0l.16.07.25.2h0l.23.15h0l.21.07.28.1.14.11,0,.08V42l-.05.22h0v.17l.1.1h0l.17.07v0l0,.08,0,.06v0l0,.15v0l.19.27.09.24.09.37,0,.31-.12.24h0l-.07.25v0l.09.28h0l.11.19.05.19,0,.25v0l.09.18,0,0,.24.07h0l.21-.05.2,0,.25,0h0l.24,0h0l.11-.11h0l.12-.13v0l0-.1.05-.09.1-.19.13-.07h0l.12-.07h0l.14-.13h0l.15-.15h0l.07-.1v0l0-.17h0l0-.2V44l0-.18h0v-.25l-.07-.22,0-.14,0-.19,0-.1.1-.07.06,0,0,0h0l.14.09,0,.12v.1l.12.22,0,.37h0l0,.15v.88h0l0,.23,0,0,.1.07,0,0,.24-.06h0l.06-.07.34-.14.18,0h0l.3-.1h0l.11,0,.2,0,.1.21V45h0l0,.16h0l0,.15,0,.19,0,.24-.05.23v0l.09.27,0,.12,0,.26-.16.34-.26.5-.29.34L198,48l-.21.15h0l-.14.18h0l-.19.35h0l-.09.21-.23.25,0,0,0,.26,0,0,.12.05h.06l.19-.16h0l.18-.24.23-.11.17,0v.16l-.11.19-.19.3-.14.2h0l-.14.23h0l-.14.33v0l.07.2,0,.09,0,.53-.13.1-.2.15-.21.12-.18.08h0l-.19.1h0l-.17.12,0,0,0,.12v.07l.1.07,0,0,.14,0h0l.24,0h0l.2-.05.15,0,.27.09,0,0h0l.17.11v.06h0l0,.17,0,.12v0l0,.35h0l.08.23v0l.17.15h0l.14,0,0,.1,0,.27h0l.07.15v0l.17.15h0l.13.12,0,.12,0,.14v0l0,.15v0l.07.07h0l.07,0h0l.18.07H199l.13,0,.1,0h0l.11,0,.09.06,0,.07,0,0h0l.21.56h0l.12.25.18.4h0l.21.3.09.22h0l.12.2,0,.14,0,0,.18.17,0,0H201l.19,0,.21,0h.2l.21,0h.2l.12.07,0,.06,0,.09.11,0,.06,0,.08.09.06.08v.16l-.07.07,0,.07,0,.09h0l.06.11,0,0,.24.1h.17l.11,0h.26l.13,0,.08.12,0,0,.16,0,.14.08.1.07h0l.09,0,.16.09h0l.16,0,.33.27h0l.14,0h0l.15-.07,0,0,0-.05.08,0,.17.06h0l.17,0,0,0,0-.1h0v-.08l0,0,.08-.08h0l.05-.06.09,0v0l0,0h0l.1.08.07,0v0l0,.12v0l.08.14h0l.09.11,0,.08,0,.07v.05h0l0,.08v0l0,.07v0l.08.07h0l.19.06h.15l.15,0h.39l.24,0,.09,0,.09.06.07,0,0,0,0,0,.12.1h0l.08,0h0l.14.05.12.08.05.1,0,0,.14.09h0l.17.08.08.07.05.09v.12l.07.14v0l.11.08h.46l.28-.08,0,0,.09-.11v0l0-.11v0l-.09-.1h0l0,0,0-.2h0l0-.11,0-.06v-.11l.06-.09.13,0h0l.15,0h.15l.14,0h0l.14-.07,0,0,.08-.13V60h0l0-.11h0l0-.11h0l0-.1h0l0-.11V59.4h0l0-.16,0-.07,0,0,.14,0h0l.06-.07h0l.1-.19v-.06l0-.1v-.08l.07-.07v0l0-.06h.47l.2,0h0l.28-.19.14-.09.17-.07h0l.23-.1.18-.08h.17l.22,0h0l.13-.07h0l.07-.07.23-.05.31,0,.27,0h0l.19,0,0,0,.15-.17v0l.05-.17h0V57.1h0v-.05l.09-.09.17-.1h0l.27-.17h.17l.16,0,.13.13h0l.14.07h0l.49.13h0l.41,0,.28.11h0l.17.06.06.12h0l.15.27,0,0,.16,0h.05l.13-.12.18,0,.3.12.18.2.07.18v0l.32.34.14.25h0l.2.22.25.31v0l.27.19h0l.24.13h0l.42.16h0l.23.08.15,0,0,.22h0l.07.36,0,0,.24.21,0,0,.34.08.15.06h0l.22.09.11.11.1.16,0,0,.2,0h.34l.22,0,.13,0,.1.06,0,.14-.07.26h0l0,.16v0l.06.3,0,0h0l0,.09,0,.08-.17,0-.22,0h0l-.13,0h0l-.1,0h0l-.12.09-.16.1h0l-.14.1-.13.08v0l-.15.19-.24.14-.22.09h0l-.07.06h0l-.07.07-.13.1-.2.09h0l-.21.13-.25.05h0l-.15.14-.13.09-.19.09-.17,0,0,0-.09.11v0l-.09.17v0l0,.18,0,0,.14.13.18.25,0,.08v.15l.07.12,0,0,.15.08.14.11.11.1h0l.24.08h0l.5.06h0l.21-.06h0l.17,0h0l.13-.12h0l.09-.21.18-.17h.35l.24,0,.18,0h0l.2-.1h0l.12-.16v-.16l0-.11.1-.14.14-.11h.24l.06,0,0,.19v0l.07.1h0l.18.14h0l.15.1.06.08.18.22v.12h-.08l-.18,0h0l-.2.06h0l-.18.07,0,0-.08.11-.25.12h0l-.17.11h0l-.09.07v0l0,.12h0l0,.14h0v.15h0l0,.19v.27l0,.17h0v.16h0v.09l0,.09h0l0,.11h0l.11.17,0,0,.14.06h0l.24.07.33.15h0l.19.06h.17l.14,0,.16.06.22.11h0l.28.07h.3l.16,0,.09,0,.12.07.3.19.1.07h0l.22.1.22.1h0l.26.08h.18l.13,0,.13,0h0l.16,0h.06l.05,0v.13l0,.12,0,0,.08.09h0l.13.13h0l.24.2.12.1.15.2v.17l-.09.13-.14.14h0l-.17.2-.11.14h0l0,.1-.1.07,0,0,0,.09-.05.06-.25,0-.05,0,0,.07h0l0,.13,0,.13-.09.06-.1.05-.21.06h0l-.14.06h0l-.12.08h0l-.14.12h0l-.09.11h0l-.09.15h0l-.07.2v0l0,.22h0l.07.27v0l.12.14.13.2.05.17.06.29,0,.24-.09.27-.09.09-.11.06-.16,0-.19,0h0l-.25.07h0l-.12.12-.22.12h0l-.13.08h0l-.17.16-.29.15h0l-.12.12-.12.11h0l-.13.18-.21.28h0l-.15.27h0l-.09.2-.17.34h0l-.1.3-.15.29-.07,0-.23,0h-.35l-.28.06h0l-.2.06h-.32l-.22-.13-.15-.19h0l-.25-.16h0l-.28,0h0l-.14,0-.27-.18-.08-.22h0l-.16-.27,0,0-.23,0h0l-.34.08-.17,0-.28,0h0l-.21.17h0l-.11.09-.15-.23,0,0-.22-.08h0l-.33,0h-.24l-.32,0h0l-.22.09h0l-.16.13-.37.16h0l-.17.08h0l-.13.11,0,0v0l-.06.1-.16.11-.14,0-.18,0-.13-.1h0l-.18-.1h0l-.13-.07h0l-.28-.12h0l-.18,0h0l-.1.12h0l0,.11v.22l.06.14-.06.15V78l.13.21h0l.13.19h0l.17.21h0l.17.12v0h0v.07l0,0,.07.06h0l.05,0,.12.1,0,.07,0,.13,0,.16v0l0,.18v0l.07.09.05.08,0,.1-.05,0-.11.06h0l-.05,0h0l-.12.09,0,0,0,.13-.05.11-.05.09-.17.19,0,0,0,.16,0,.07-.23.18h0l-.29.11-.18,0-.15,0h0l-.19.06-.18,0h0l-.17,0h0l-.12.06,0,0-.07.08h0l-.12.2h0l-.12.23-.08.07-.09,0-.13,0h0l-.22.09h0l-.13,0-.09,0-.16,0h0l-.13,0h0l-.08.06,0,0,0,.15,0,0,.09.08h0l.15,0h0l.13,0,.08,0,.11.1.12.13h0l.09.07.1.09h0l.13.1.17.17.08.09h0l.12.06h0l.17.07h0l.22.09L214,84h0l.22,0h0l.18,0h0l.09,0,.15,0h.15l.2.06.2.19,0,.11,0,0,.23.1h.11l.12.08h0l.31,0,.25.12.17.13.11.14.19.29,0,0,.24.07v.08l0,.19v.27l0,0,.18.13h0l.35,0h0l.21-.1.23,0,.13.12h0l.19.16h0l.31.25h0l.26.12h0l.32.07.16.09.17.18.11.23v0l.12.12,0,.1h0l.12.14h0l.06,0,.1.1h0l.13.13.05,0h0l.22,0h0l.12-.06h0l.08-.09.15-.1.08,0,.11.11.08.1h0l.13.1h.2l.17.07.06.12v.15l.07.11h0l.1.11.05.1,0,.13v0l.12.14.1.14,0,0,.37.2h0l.08,0,.15.09.08.14h0l.14.14h0l.15.05.19.11.07.09,0,.08h0l.06.09,0,0,.13,0h.3l.06,0,.06.09.09.13v0l.12.09.21.16h0l.09.07h0l.23,0h0l.12,0,.08,0,.16.08h0l.24.11h0l.16,0h.23l.13,0h0l.25.06h0l.12-.07.16,0H227l.09,0,.19,0h.12l.16.11.08.12.07.16h0l.09.2h0l.11.09,0,0h.17l.18,0h.17l.14,0h0l.14,0,.07.07.06.09,0,0,.15,0h.08l.1.09.09.11,0,0,0,0,.26.14h0l.38,0h0l.07,0,.3.08.12.06h0l.14,0,.1.08,0,.17v0l.08.19,0,0,.22.1.17.1.07.11v.27l0,.16,0,.13h0l0,.09-.05,0-.13.05h0l-.16.15h0l-.05.08v0l0,.16-.13.26v.26l-.08.17h0l-.05.13h0l-.06.23-.12.42h0V96h0l.07.27v0l.19.28h0l.14.21h0L231,97h0l.14.07h0l.35.11.1.1.12.37,0,.18-.07.13h0l-.05.23,0,.06.09.07h0l.17.12h0l.36.2.1.11.06.17h0l.1.14,0,0,.2.06.16.17h0l.11.1h.08l.16-.15h0l.12-.13.16.08-.05.25,0,.1,0,.13V100h0v.16l.12.17v0l.3.19.2.14h0l.23.09h0l.21.09h0l.25,0,0,0,.14-.18v0l.06-.17h0v-.2l.13-.18.16-.07h.15l.16,0,.31.2,0,0,.15.36.07.16.05.16h0l.13.23.12.26,0,.18h0l0,.1,0,0,.21.05h0l.17,0,.11.13v.19h0l0,.15h0l0,.18v.34l.17.19.05,0,.2,0,.13,0,.05.16,0,0,.2.13h0v.13l0,.07v.19l0,0-.07.08-.07,0,0,0,0,.16v.15h0v.26l0,.08,0,.06,0,.06h0v.13l0,.08h0l.09.09h0l.21.17h0l.15.11h0l.27.19.11.14.09.2v.16h0l0,.28h0l.07.18v0l.09.1h0l.25.22.19.27.13.2h0l.13.17v0h0l.05.25,0,.2h0l0,.14.06,0h.47l.1,0,.18.06.16.15h0l.19.11h0l.3.15,0,0,.28.24.2.28.14.27h0l.14.21h0l.35.41.16.21h0l.18.22h0l.26.25.2.26h0l.14.15h0l.13.14.18.23.13.17h0l.13.12.23.31.09.16h0l.16.19h0l.26.23.26.26.09.13h0l.24.3h0l.53.38.21.16h0l.24.18.13.1h0l.33.17.21.13h0l.19.1h.18l0,0,.16-.2v-.23l0-.17.12-.07.15,0,.13.08,0,.13h0l.09.26,0,0,.22.16.1.13,0,.1,0,.05-.09,0h0l-.2.1,0,0,0,.07v0l.1.23v0l.2.18h0l.11.1.12.21h0l.33.45.11.18.07.13v0l.32.25h0l.14.08.2.14v.16l-.05.14-.13.14v0l0,.23v0l0,.08h0l.15.21h0l.35.27h0l.12.07,0,0h0l.09,0,.28.13h0l.15.07h0l.23,0h0l.12,0h0l.07,0h0l.12-.07,0,0h0l.06,0v.08l0,.79-.09,0H251l0,0h0l-.07.1v.2l.1.2h0l.11.12h0l.11.09.09.12.06.1v.13l-.05.42h0l0,.29,0,.34v.27l0,.29h0l0,.44v.23l.1.12h0l.14.17.11.19h0l.17.21,0,.09,0,.05v.15l0,.29,0,0,.17.15h0l.27.12.09.09h0l.16.07.09,0h0l.14,0,.19.07,0,0v.11l-.1.18-.09.12h0l-.07.12v0l0,.17v0l.05.18h0l.13.19,0,.18h0l.12.37h0l0,.07.09.19,0,0,.18.1.14.09h0l.16,0,.13,0,.09.07h0l.16.09h.11l.12,0h0l.11-.07h0l.12-.1h0l.09-.14.13-.11.13-.07.14-.08h0l.12-.12h0l.07-.09h0l.07-.15.14-.27h0l0-.1,0-.19v0l0-.16,0-.14.06-.07.15,0,.13.12h0l.19.07h0l.22.07.07.05,0,.15,0,.21h0v.14h0l0,.14v.12l0,.19h0v.26l0,.32,0,.12h0v.1l0,0,.14.1.11.09.05.05,0,.06h0l.07.08.07.07.16.17,0,0,.09,0,.13.07.08.07.08.07,0,.2h0v.25h0l0,.1,0,0,.14.05h.05l.1-.06H258l.14,0,.15,0v0l0,0,.14,0h.06v0h.09l.06,0h0l0,0,.1,0h0l.1,0h0l.06,0h.22l.06,0h0l.12,0h.07l.41.3h0l.26.15h0l.22,0h0l0,.1v.1l0,.17-.12.34-.06.16v.05l.07.19.06.17h0l.23.28h0l.2.14.25.19h0l.33.06h0l.38,0,.2.09.19.1.28.31.14.19h0l.17.14.08.16h0l.12.18,0,0,.21.08h0l.22-.06.27,0h0l.18-.06h0l.22-.08h0l.25-.14.18,0,.33.09,0,.18-.08.17h0l-.08.2v.05l.12.22h0v0l.05,0,.05.31,0,.12-.09.14-.16.16h0l-.09.16h0l-.09.22h0l-.06.22h0l-.06.32-.19.12-.17,0h0l-.25,0h-.14l-.29,0h0l-.37.1h0l-.13.11-.19.09-.15,0h0l-.17.07h0l-.35.23-.29.15-.23.09-.14.05,0,0-.09.24v0l.08.2,0,0,.12.09,0,.23-.09.17h0l-.06.2v0l.18.35,0,0,.17.06h0l.21.06.24.18.07.11,0,.38-.06.25v0l0,.19,0,0,.19.16h0l.36.13.27.17.17.14.13.24v.35l.2.28h0l.17.25.12.29h0l.2.21h0l.4.14h0l.28-.07h.36l.19.12.22.16.27.27.1.26.07.2h0l.08.21,0,0,.39.17h0l.35,0H267l0,.05-.07.09h0l-.07.09v.09l0,0,.18.2.11.16.13.23.11.36,0,.17-.18.3h0l-.06.14v0l.05.14h0l.07.2.09.35-.12.12-.15.14-.12.09h0l-.1.11,0,.06.08.23h0l.16.2.09.23,0,.1,0,.41-.08.16-.08.14v.3l.07.1-.08.27-.25.15h0l-.07.06-.12-.09h0l-.19-.08h0l-.18,0h0l-.2.06h0l-.25.12-.53.12h0l-.22.14,0,0-.06.17v.06l.14.14.05.1.05.2.06.2v0l.16.26,0,0,.17.11.14.15h0l.28.18.15.1h0l.6.29.07.07v.17l-.19.31-.14.12-.2.1-.2.11h0l-.06.07-.2.23h0l-.09.13v0l0,.24v0l.11.17.06.27-.07.14v0l0,.2,0,.06.12.06.24.14v.11h0l0,.31h0l.06.27,0,.17h0v.16l-.27.43h0l0,.08-.12.17-.11.15v.06l.12.21,0,.12v.19l0,.15,0,.09-.08.14-.12.15,0,0,0,.22-.1.14v0l0,.12h0l0,.25h0l0,.11,0,.11-.16.46-.1.11-.07,0-.08-.07h0l-.15-.06h0l-.17,0,0,0-.16.24h0l-.09.19-.18.28h0l-.05.18-.15.19h0l-.11.22v.22h0l0,.14h0l.05.23h0l.1.35v.14l-.14.2v0l-.1.32-.15.34-.13.15h0l-.13.18h0l-.1.14-.11.14-.16.17v0l-.05.36h0v.19l.17.24,0,0,.15.09h0l.16.05.05.06v.15l-.08.26h0l-.05.24h0v.21l.11.18h0l.13.15h0l.28.1h0l.23,0h.33l.13.11.11.1.06.22,0,.18h0v.23h0v.08l0,0,.09.08,0,.17h0v.49l.08.16v.1l-.21.22h0l-.15.36v0l0,.36,0,0,.2.08h0l.15,0,.27.19h0l.37.25.1.1.21.31.17.33.1.21.14.33,0,.2h0l.25.74h0l.16.28.25.46.13.45.08.59,0,.35,0,1.35,0,.3,0,.28-.07.16h0L267,175h0l0,.11-.12.11v0l-.22.42h0l-.12.37h0l-.12.35-.21.47-.18.37h0l-.28.54h0l-.13.4-.2.51h0l-.13.48v.45h0l0,.41-.15.41v0l.06.3h0l.07.19.07.37h0l.05.25h0l.06.26,0,0,.09.1.3.37.06.1.13.24.12.23h0l0,0v.19l0,.19h0l0,.33h0l0,.23h0l.07.38v0l.09.15h0l.09.13v.19l0,.14h0l0,.4v0l.08.2h0l.11.19,0,.2,0,.3h0l.06.24-.12.24h0l-.11.24v.41l.05.15-.13.23h0l-.09.23h0l-.1.25h0l-.06.24h0l-.06.56v0l0,.11-.06.27,0,.07-.08,0,0,0-.13.18-.14.11-.3.17-.09,0h0l-.08.06h0l-.18.14-.24.18h0l-.15.22,0,0v.17l-.08.15-.14.09-.28,0-.11-.16-.12-.29h0l-.2-.35,0,0-.31-.19h0l-.31-.13h-.27l-.19.05-.26,0h0l-.2.06h0l-.22.13-.17.09-.12,0-.11,0h-.23l-.25.08h0l-.17.07-.13,0h0l-.09.08h0l-.16.18h0l-.09.18-.39.56-.47.45h0l-.4.48h0l-.25.3-.54.42-.19.13-.2.13-.37.23-.27.08-.36.05h0l-.22,0h-.4l-.37-.13-.26-.13h0l-.29,0h0l-.16,0,0,0-.28.27h0l-.29.6h0l-.1.29-.19.29-.33.18h-.31l-.2,0-.1-.14-.05,0h-.13l-.05.06,0,.15-.12,0-.22-.07h0l-.27,0h0l-.33,0h0l-.26,0h-.36l-.18,0-.09-.06h0l-.21,0h0l-.26.07-.21,0-.16,0-.09-.14-.06,0-.16,0h0l-.14.08h0l-.13.09-.2,0-.05.09.16.26.13.28.21.48h0l.08.15h0l.16.21v.15l-.1,0,0,0-.13.22v0l0,.2,0,.2-.1.22-.09.17-.1.15v0l0,.28,0,.32h0V199l.06.16v0l.09.09.14.16h0l.11.13,0,.12,0,.13h-.16l-.1,0-.12,0h0l-.12,0-.06,0-.14-.1-.1-.06h0l-.13,0h-.18l-.16,0h0l-.14.08-.27.1-.1,0h-.18l-.14,0-.08-.11h0l-.07-.08h0l-.15-.09-.09-.11,0,0h0l-.1-.12h0l-.13-.07h0l-.12,0-.31-.07h-.11l-.29-.12-.08-.11,0,0H246l-.22.19h-.16l-.2-.12h-.26l-.22,0-.28-.24h0l-.23-.16h0l-.5-.06h0l-.31.12,0,0-.13.18v0l0,.23h0l.05.18-.13.11v0l0,.08-.06.1-.14.1h0l-.08.14v0l0,.2h0l0,.2-.18.23-.2.08-.14,0-.27-.19-.2-.15h0l-.32-.15h-.35l-.2.14h0l-.21.24h0l-.16.2h0l-.08.16-.14.11,0,0,0,.2v0l0,.23h0l.08.25.05,0h.2l.36.1.19.11.16.21,0,.25,0,.22-.06.32h0l0,.3h0l0,.16,0,0,.24.13v.13l-.07.11-.19.23v0l0,.35h0l0,.16h0l.07.2-.08.35h0l-.06.33v0l0,.17,0,0,.2.09.21.49.11.38,0,0,.33.25h0l.4.19h0l.21.07.52.23.11.18.05.23h0l.14.35,0,0,.41.21.48.44h0l.24.22h.07l.15-.1.48-.17.11.18.21.57.07.53h0l.18.43h0l-.12,0h0l-.22-.05h-.25l0,0-.12.12v0l0,.21v.23h0l0,.39v0l.22.34h0l.27.36.13.39,0,.25V213l-.16-.09-.15-.1h0l-.15-.07h-.31l-.25,0h-.41l-.15,0-.2-.06-.32-.25h0l-.53-.38-.18-.16-.39-.41h0l-.44-.38-.09,0,0,.21h0l.05.17,0,.11-.09.07-.19.15,0,.06,0,.17-.18.06-.35-.08-.37-.21,0,0,0-.15,0-.32v0l-.06-.12L241,211h0l-.13-.22h0l-.16-.17h0l-.23-.2-.27-.39-.13-.51,0,0-.13-.1h0l-.34,0h0l-.42.17h0l-.26.14-.5.17-.29.08-.32.06h0l-.35.08h0l-.54.14h0l-.28.11h0l-.33.14h0l-.22.13h-.1l-.06,0-.13-.07h0l-.22-.07h-.4l-.14-.13,0,0-.2,0-.07,0-.14.3h0l-.06.21-.23.27-.18.18-.19.17h0l-.15.19-.22.15-.41-.15h0l-.2-.06h-.18l-.31-.07-.31-.13h0l-.42-.16h-.28l-.11,0-.05-.11,0,0-.21-.09h-.35l-.15,0-.24.05-.1,0,.05-.13h0l0-.2v0l-.06-.1,0,0-.09,0h0l-.3.15-.22.11-.26.11h0L229,211h0l-.17.15h0l-.12.19v0l0,.18h0l0,.08v0l.34.42.09.17,0,.25v.18h0l.09.27v0l.13.15.1.11.1.16.08.15,0,.14v.16l-.09.15-.64.38h0l-.21.13-.54.29h0l-.36.25h0l-.36.43h0l-.31.42h0l-.32.48-.19.25-.28.22-.54.1-.27,0h-.43l-.19,0-.21,0h0l-.44-.06-.26,0h0l-.5-.1h0l-.26,0h0l-.25.11-.26,0h0l-.26,0,0,0-.25.24h0l-.32.52-.25.39h0l-.13.24h0l-.14.25H221l-.25-.14h0l-.25-.05h0l-.33.09,0,0-.07.11v0l0,.63.06.05h.55l.38.06.28.27.38.43h0l.3.32.18.66,0,.53v0l.28.84,0,0,.44.16h0l.36-.08h0l.4-.36h0l.28-.41.45-.28.46,0,.67.33.51.84.13.24h0l.24.33h0l.38.22h0l.29.08h0l.19-.06h0l.5-.15.44.08.58.34.54.46.31.47.08.5v.18l-.22,0h0l-.44.19h0l-.63.47-.59.42-.65.31h0l-.25.2h0l-.29.42v0l-.18,1.05-.2.67h0l-.12.55h0l-.09.67-.12.7h0v.23l-.05.21h0l0,.7,0,.95-.07.91h0l-.15,2.22-.06.44-.24,1v0l0,.46v1.33h0l0,.59,0,.85-.12.59-.16.39h0l-.12.5v0l.08.32,0,0,.21.24h.05l.34-.06h0l.31-.16h0l.4-.2h.14l-.07.18-.29.13-.32.1h0l-.28.19,0,0-.14.36h0l-.07.27-.14.13,0,0,0,.37v0l.12.28-.1.16-.28.12-.4.08-.37,0,0,0-.13.22v0l.1.27,0,0,.29.18h0l.43.14h0l.5.1h0l.43.09h0l.77,0h0l.73-.08h0l.79-.24h0l.46-.23.62-.25h0l.78-.42h0l.7-.49h0l.84-1,.29-.2.29-.13h0l.67-.53h0l.29-.32h0l.36-.55h0l.26-.49h0l.22-.44h0l.22-.46h0l.13-.49.22-.39.28-.38.11-.11.3-.21,0,0,.12-.22.22-.35.23-.16.43-.15h0l.84-.37h0l.19-.12.76-.25h0l.42-.19.65-.27h0l.31-.14h0l.46-.25.43-.18h0l.22-.09.21-.06.31,0h0l.32-.1.28-.05h0l.36-.13.66-.2.44-.09h0l.52-.14h0l.43-.13.6-.14.49-.06h0l.21,0h0l.25-.08h.15l.16-.07h0l.15-.13,0,0,.07-.23v0l0-.39,0-.47.23-.54.22-.15.47-.2,0,0,.19-.25v0l.12-.36h0l.07-.36,0-.05-.57-.61h0l-.37-.36-.71-.71-.56-.65-.21-.34.4.34h0l.33.23,1.21,1h0l.53.41h0l.44.28.51.36h0l.43.27h0l.49.06h.42l.44,0h0l.79-.38h0l.44-.34,0,0,.19-.39h0l.15-.52v0l-.13-.47h0l-.22-.51h0l-.36-.72v-.21l.23-.37h0l0-.2,0,0,0,0,.4.1h.29l.55-.16,0,0,.24-.31h0l.16-.43v-.31l-.25-.5,0,0-.62-.39.63-.3,0,0,.17-.32.19-.21.3-.16.26-.08h0l.2-.16h0l.26-.23h0l.26-.36v0l.16-.47v0l-.07-.3,0-.24,0-.42,0,0-.24-.09-.33-.16-.49-.29-.18-.23h0l-.25-.19.54.1.51.1h0l.35-.1,0,0,.06-.33v0l-.15-.4,0-.36L255,220l.37-.25,0-.07-.12-.43,0-.14h0l.08-.09.21-.1V219l-.1.26v0l.1.65.06.05.68,0h0l.33-.2h0l.26-.26,0,0,0-.3,0-.05-.2-.17-.1-.25.09,0h.19l0,0,.21-.32v0l0-.17,0-.27,0-.11.17-.05h0l.27-.09,0,0,.1-.12.21,0,.25.08h0l.06.13h0l.13.25,0,0,.16.12.28.27h0l.23,0h0l.36,0,.1.12v.21l-.17.13-.19.07-.21.05,0,0-.06.29v0l0,.14v0l.08.18h0l.11.2v0l.11.11h.07l.12-.08h0l.13-.18.16-.13.14-.09.25-.14h0l.24-.21h0l.27-.32.1-.06.08,0,.27.15.12.13h0l.23.18h.36l.29-.2h0l.2-.2h0l.24-.32.31-.23h0l.18-.21.25-.08.38-.06h.76l.26-.09h0l.21-.24.26-.12.44-.15,0,0,.18-.24.25-.23h0l0-.06.42-.19,0,0,.08-.15.26-.13.3-.14h0l.21-.12.47-.2.34-.08h0l.55-.14h0l.26-.11h0l.77-.6h0l.28-.25.17-.08.38-.12.2,0,.4,0h.21l.31.09h0l.35.1h0l.38,0h0l.32-.18,0,0,.35-.44v0l.18-.76h0l.19-.94.17-.44.46-.44.42-.11h0l.46-.11h0l.82-.38.25,0h.33l.25.18.19.17v0l0,.07h.17l.05,0,.12-.22.09-.17.16-.11h.11l.12-.09,0,0,.07-.32.12-.3.16-.19.3-.15.38-.09h0l.31-.11.23-.08h0l.34-.19,0,0,.25-.37h0l.14-.29.44-.52.29-.29.42-.17.36,0h0l.43-.09.45,0,.24,0,.28.16.1.12h.08l.22-.24h0l.11-.24.22-.33h0l.13-.36h0l.14-.39.15-.36.29-.19.3-.15.34-.08.1,0h0l.11.08h0l.26.12h0l.2.05h0l.38,0h0l.33-.06h0l.42-.24h0l.35-.21h0l.27-.3v-.34l-.15-.26,0-.23,0-.34h0l0-.29.07-.28.11-.31h0l.08-.45.11-.32.12-.17v-.3h0v-.18l.13-.06.2,0h.48l.16.08.11.11.09.15.08,0,.22-.17,0,0,.13-.3.16-.28h0l.17-.3h0l.26-.49h0l.05-.28.21-.44.23-.15h0l.24-.2v-.07l-.08-.15h0l-.12-.11-.13-.16h0l-.28-.24-.09-.22v-.17l-.07-.15h0l-.09-.09-.09-.17.1-.1.14-.14,0,0,0-.21v0l-.06-.15-.09,0-.19.16,0,0,0,.13-.09.21h0l-.09.2-.18.11-.14-.05-.16-.16-.05-.16V197l.14-.26.22-.2.26-.15h0l.24-.2v0l.22-.32v0l.08-.29.14-.09.06.16-.08.27v0l0,.16,0,.16-.09.15v.05l.14.32.06,0h.09l.13.05.08.08.05.1,0,.11-.07,0-.18-.06-.07,0,0,.12v0l0,.13,0,0,.09.08h0l.15,0h.21l0,0,.07-.17v-.13l.16-.06h0l.15-.08,0,0,0-.24v0l-.11-.15h0l-.12-.09,0-.1.05-.17.08-.16h0l.07-.21v0l0-.2h0l-.18-.29h0l-.15-.13-.29-.29-.14-.32-.1-.26-.11-.29h0l-.13-.24,0-.17.1-.22.22-.21,0,0,.14-.32v0l-.09-.32h0l-.07-.24V192l.1-.16v-.05l0-.1h0l-.21-.44h0l0,0,.07-.17.2-.37.11-.05,0,0,.07-.19v0l-.08-.15h0l-.24-.42-.05-.61v0l-.11-.28,0,0-.32-.24-.18-.19.14-.16.35.07.18.28.1.17,0,.21v0l.11.21,0,0,.38.3.19.2h.05l.43-.08,0,0,0-.3.15,0h0l.21-.14,0,0v-.34l-.2-.23h0l-.46-.31-.11-.47,0,0-.22-.17h0l-.21-.13-.24-.48,0-.22.1-.34h0l0-.27,0-.07h-.25l-.14,0v0l0-.6.13-.16h0l.2-.28.36-.29v0l.34-.56.14-.18.33-.29.32-.08.1.05.09.2v.38l-.12.26-.23.32h0l-.12.44-.21.3h0l-.09.22v.06l.36.37h0l.22.17h0l.31.18.4.24h0l.37,0h0l.35-.27,0,0V186l0-.47.21-.37h0l.08-.38,0-.06-.45-.29-.29-.2-.29-.47-.28-.75,0-.21v-.28l.16-.24.09-.07,0,0,.06-.07.14-.16h0l.09-.1.19-.11.06,0-.07.09h0l-.06.14V182l0,0,0,0,.22,0,0,0,.15-.13v0l0-.11h0l0-.19v-.29l-.08-.15-.08-.17h0l-.16-.2-.18-.26-.2-.33h0l-.22-.24-.24-.34h0l-.26-.3-.31-.52-.2-.43,0,0-.14-.1-.13-.26,0-.07,0-.16h0l0-.21,0-.24,0-.17h0l0-.06,0,0,0-.07-.06-.13-.08-.19v-.17l.09-.15h0l.11-.3h0v-.27l-.16-.33h0l-.14-.24,0-.18,0-.08v0l.06,0h0l0,0,.07-.08v-.12h0l0-.1v-.2l-.06-.1-.05,0h-.2l-.13.07-.12,0-.06,0-.12-.18v-.16l-.05-.08,0,0h-.06l0-.07,0-.07v-.05l-.07-.11v-.1l0-.15v0l0-.12,0-.23.09-.14.09-.13.06,0,.2.08.22.18,0,.09,0,.08-.08.06-.17.06,0,0-.05.11v.22l.11.18,0,0,.26.12h0l.19,0h0l.27-.19,0,0,.08-.34.12-.46.1-.26-.05-.08-.2,0-.12-.12,0-.09,0-.28v0l-.15-.2,0,0-.17,0,0-.05.11-.14h0l.07-.11h0l.05-.12v-.11l0-.05-.13-.05-.16-.09-.15-.08-.05-.08h0l-.3-.42-.13-.26-.05-.15,0-.2h0v-.12h0v-.08h0l0-.24v0l-.11-.17,0-.18,0-.16v-.16l0-.15.16-.15h0l.08-.09v0l0-.09V168l-.07-.14-.07-.15,0-.18v-.26h0v-.14l0-.2.14-.08h0l0,.09.06.21h0l.05.21h0l0,.14h0l.09.15,0,.09-.08.05,0,0-.05.1v.17h0l0,.1,0,0,.11.05h.35l.15,0,0,0,0-.23v0l-.11-.22v-.17l.12-.14v0l.05-.31v0l-.07-.23,0-.24,0-.19v0l-.05-.11,0,0-.13-.05-.11-.13-.18-.24-.15-.24-.06-.17,0-.13v-.15h0V165l0-.15h0l0-.16h0v-.19h0l-.06-.37v0l-.11-.17,0,0-.1-.07-.15-.32-.12-.33,0-.2h0l0-.13.07,0h0l.1-.09,0,0v-.16l-.06-.14h0l-.09-.16-.18-.45-.06-.24v-.29l.06-.16v0l-.05-.26h0l-.09-.34h0l-.13-.26h0l-.16-.25-.42-.73-.12-.26,0-.22h0l-.08-.19v-.23l0-.31v0l-.11-.28h0l-.14-.35-.13-.43h0l-.15-.39h0l-.12-.26-.1-.27.07-.1v0l-.05-.21h0l-.08-.21,0-.29v-.12h0v-.16h0v-.14h.16l.05,0v0h0l.1-.31v-.05l-.89-1.41-.31-.66-.13-.51,0,0-.25-.29-.16-.39h0l-.52-1-.18-.46-.09-.42h0l-.14-.48v-.89l.07-.24v0l0-.34v0l-.09-.21h0l-.07-.16,0-.2.07-.13.15-.1h0l.22-.15h.27l.07,0,0,0,.07-.24,0-.06-.24-.17h0l-.31-.06-.24-.13-.2-.14-.07-.08-.16-.3v-.09l0-.08h0l.05-.29,0-.05-.07-.06-.07-.07V144l0,0-.07-.07-.05,0h-.2l-.07,0-.09-.1,0-.2v-.19l-.08-.13-.06-.12.09-.07,0-.06,0-.06,0,0-.08,0h0l-.05,0h0l-.06.06h0l0,0,0-.05h0l-.05-.07-.05,0h0l0,.06V143l0,.05h0l.05.08v0l0,0-.09.05h0l-.11.06-.1.05-.11,0-.1,0-.12,0,0,0h0l-.05,0,0,0h0l-.15-.1-.23-.24-.08-.17-.06-.28h0l-.25-.42h0l-.21-.26-.12-.22,0,0-.44-.09-.47-.26-.32-.24-.3-.35-.4-.8h0l-.19-.29-.37-.72h0l-.31-.49-.29-.47-.21-.45h0l-.34-.46-.12-.4h0l-.13-.35h0l-.09-.24,0,0-.33-.28h0l-.27-.17-.19-.17h0l-.34-.24-.21-.17-.15-.25,0-.08h0l-.16-.24-.18-.29-.13-.38h0l-.08-.18-.06-.23,0-.17v-.09l.06-.14,0-.08.15-.12.17,0h.36l.23-.09h0l.17-.21,0,0V132l0,0-.14-.12h0l-.07,0h0l-.16.07h-.18l-.12,0-.16-.08,0-.05,0,0-.21-.06h0l-.16,0h0l-.12.09h0l-.11.1h0l-.11.16v.05l.05.12v0l.14.1,0,.07v.07l-.15.09-.15,0h0l-.14.12-.2,0-.15,0-.15-.08-.12-.13h0l-.18-.16-.11-.17h0l-.1-.15,0-.21.09-.22.15-.21.24-.19.14-.09h0l.15-.12h0l.1-.08v0l0-.07,0,0,0,0h0l-.08-.07h-.52l-.14,0h-.3l-.14,0-.23-.15-.21-.16-.08-.09-.27-.42-.32-.52V129l-.1-.19v0l-.12-.09h-.1l0,0,0,.07v0l0,.11h0l0,.08v0l-.12.07-.12,0-.27-.06-.27-.2-.14-.16h0l-.11-.07H272l0,0-.07,0-.21-.18h0l-.27-.21h0l-.35-.25-.86-.8h0l-.5-.45h0l-.63-.52h0l-.53-.4-.38-.29h0l-.29-.17h0l-.22-.11h0l-.2-.1h0l-.07,0,0,.07,0,.05,0,0,.14.1h0l.35.19.31.21.41.35.24.25.17.19v0h-.07l-.09,0-.17-.19h0l-.18-.1-.06-.09h0l-.09-.09,0-.08,0,0,0,0H268l-.07.09-.09.08v0l-.07.1-.05,0-.07,0h0v-.1l0,0v0l0-.12v0l0-.16h0l-.19-.28v0l-.19-.13h0l-.16-.1h0l-.18-.08-.18-.13-.05-.06h0l.35.16.12,0h.07l0,0v-.08L267,125h0l-.14-.09-.12-.09h0l-.23-.15h0l-.38-.23-.25-.22h0l-.34-.24h0l-.4-.25-.23-.17-.18-.19h0l-.29-.22-.15-.15-.08-.11h0l-.21-.19h0l-.12-.06v0l0-.07v0l-.11-.15h0l-.12-.1-.12-.1-.11-.1h0l-.16-.1-.09-.07-.28-.26-.14-.17h0l-.33-.29h0l-.18-.12-.33-.31h0l-.31-.24h0l-.28-.22-.25-.22-.14-.17-.3-.46h0l-.32-.36-.14-.29h0l-.23-.27-.08-.14.07-.23h0l0-.17h0l0-.19h0v-.14l-.05-.12,0-.1,0,0-.09-.1h0l-.11-.09h0l-.16-.12h0l-.21-.1-.13-.1h0l-.19-.1-.23-.12-.11-.09-.12-.1h0l-.09-.08-.13-.11,0,0h0v0h0l-.18-.28,0,0-.27-.16-.11-.09h0l-.34-.23-.27-.21-.11-.12h0l-.33-.26-.12-.12h0l-.28-.2-.25-.26-.1-.16,0,0-.51-.36-.34-.3h0l-.34-.27-.27-.37h0l-.6-.6-.16-.19-.54-.69-.18-.24-.16-.26-.19-.4h0l-.38-.41-.46-.77h0l-.18-.32h0l-.36-.45-.36-.69-.12-.25-.09-.28h0l-.17-.45h0l-.12-.26h0l-.08-.17,0-.14,0-.25h0l0-.22v-.15l0-.2h0l0-.14.1-.18.08-.1h0l0-.09.06-.08.13-.08v0l.06-.08,0,0,.07,0h0l.13-.08,0,0,.05-.08V104l0,0h0l0,0v0h0l0,0v0l0,0-.08-.12v0l-.18-.14-.11-.13h0l-.15-.16h0l-.18-.1h0l-.23-.12-.11-.1,0-.19v-.15h0l0-.15v0l-.14-.29-.06-.18,0-.23h0l0-.23,0-.19v0l-.06-.09-.06,0-.12,0,0,0,0,.11v0l0,.08,0,.13,0,0-.15,0-.37-.1-.15-.13h0l-.42-.34h0l-.17-.11-.2-.24h0l-.5-.53h0l-.23-.21h0l-.24-.18h0l-.26-.16-.25-.16-.24-.18h0l-.44-.25-.15-.09h0l-.22,0h-.27l-.09,0-.15,0-.11-.09h0l-.31-.22-.09-.15h0L244,98h0l-.3-.29-.13-.17-.21-.27-.21-.28-.25-.33h0l-.15-.14-.12-.23-.1-.19,0-.17h0l0-.31-.09,0-.08,0,0,0,0,.12h0l-.09-.06-.18-.17h0l-.2-.16-.16-.15-.23-.34-.17-.34h0l-.16-.22-.27-.44-.21-.5h0l-.19-.36-.1-.52,0-.23v-.25h0l0-.25h0l-.11-.36h0L240,91.3l-.07,0-.09,0h0l-.06-.15,0,0-.12-.07,0,0,0-.09h0l-.11-.1-.14-.17,0-.15,0-.14h0l0-.16v-.12h0l0-.1,0,0-.11-.08-.1-.09-.07-.13,0,0-.26-.12-.21-.1-.19-.1-.1-.09-.23-.39h0l-.18-.22-.06-.24h0l-.1-.3.06-.22h0v-.22l0-.3h0v-.23l.12-.34.14-.17v0l0-.22.13-.19.23-.12.21.06.15.08h0l.2.06h.28l.23-.13,0,0,0-.18v0l0-.28v-.27h0l0-.35h0v-.48l.18-.35.12,0h.19l0,0,.16-.14,0,0,.08-.21v-.22l.09-.06h.07l0,0,.08-.18h0l0-.06h0v0l.17-.19,0,0v-.14l-.05-.15h0l-.1-.14-.11-.26-.07-.21,0,0-.08-.09h0l-.14-.1-.09-.1-.07-.19,0-.2.13-.15h0l.12-.15h0l.09-.17h0l.06-.24h0V80h0v-.3l0-.3.12-.19v0l.06-.24.09-.29h0l.08-.49.08-.39h0l0-.27.09-.31.12-.23h0l.19-.39.11-.15.18-.12.14.09H242l.15-.11v0l.1-.33h0l.11-.58h0l.06-.39.07-.5.18-.36h0l.07-.17v0l0-.22h0v-.21l.07-.23L243,73l.15-.06.26,0,.13,0,0,0,.08-.34h0s-.05-.28,0-.29h0s0,.1,0,.1v0l.11.16,0,.1v.13h0l0,.1h0l.09.23,0,0,.15.06h0l.23-.07h0l.17-.11,0,0,.1-.28h0v-.06l.07,0h.68l.27,0,0,0,.13-.12v0l.06-.16.09-.14.13-.14.17-.14h0l.24-.19h0l.18-.22h0l.14-.19.17-.09h0l.2-.14h0l.18-.16h0l.32-.3.18-.17h0l.16-.17h0l.21-.26h0l.13-.16h0l.16-.22.18-.2.09-.06h0l.21-.19h0l.13-.21.25-.14.2,0h0l.23,0h0l.27-.06h0l.15,0,.13,0,.19,0h.11l.11,0,0,.06v.07l.06.09h0l.1.06h.26l.13,0h0l.13-.06h0l.19-.11,0,0,.16-.25h0l.11-.21h0l.06-.27v0l-.06-.13-.05-.24v-.16l.14-.21h0l0-.13,0-.12h0l0-.16h0l0-.1h0v-.21h0l0-.21h0l-.1-.47v-.24l.09-.22.12-.25v-.47h0l-.05-.18,0-.15v0l-.1-.17-.07-.15h0l-.09-.16h0l-.08-.13,0-.2,0-.13.07-.12.1-.17.13-.11h0l.07-.1h0l.17-.27h0l.05-.14,0-.06h0v-.14h0v0l0-.11.06-.09.09-.08.09-.07.11,0h.12l.11,0,.11.08h0l.09,0,.15.08h0l.19,0h.17l.16,0,.24-.08h0l.13-.07h0l.1-.14h0l.08-.21.19-.16.09-.07,0,0V60.9l-.07-.15h0L255,60.6l0-.09.2-.09h0l.13-.06h0l.24-.17h0l.11-.13h.08l.08,0,.17.08h.24l.05,0,.15-.21v0l0-.36v0l-.12-.2h0l-.17-.29v-.16l.12-.15.24-.21h0l.17-.18h0l.13-.14v-.06l-.16-.26h0l-.09-.13h0l-.16-.25-.07-.1,0-.2.17-.29.1-.13.11-.09,0,0v-.12h0l.41.19.16.08h0l.18.08.25.13h.61l.29-.23h0l.16-.16.33-.07.21.22-.06.32,0,0,.12.14h0l.48.1.35.17h0l-.2,0-.33-.1-.2-.07h0l-.38,0-.05,0-.17.25v0l0,.41h0l.07.28v0l.11.19h0l.15.18.22.34.09.16h0l.18.3,0,0,.25.09h.05l.35-.23v0l.21-.33v0l.11-.38h0l.16-.68v0l-.11-.28,0,0-.39-.08.27-.08,0,0,.23-.26v0l.1-.25.36-.22.16-.08h0l.22-.1h0l.36-.17.17,0h.29l.44.06h0l.35,0,.06,0,.19-.38v-.33l.54-.16h0l.35-.16h0l.3-.3v0l0-.42h0v-.66l.06-.36h0l0-.38.19-.63v0l-.06-.51,0,0-.3-.24-.2-.19.22-.14.51-.09h0l.31-.12.52,0,.36.12h0l.38,0h0l.41-.06,0,0,.35-.32h0l.37-.41h0l.21-.32.53-.29.38-.16h0l.18-.2h0l.32-.35v0l.09-.26.19-.35.24-.26.38-.22.39-.15.28,0,.35.12.12.22.07.26-.14.31-.18.15,0,0-.05.42v0l.07.19-.13-.08h0l-.09,0h-.13l-.24.07h0l-.15.11,0,0-.05.12,0,.08.25,0h0l.13,0h.38l.05,0,.06-.09v-.05l0-.13h0l.33,0h0l.3-.17h0l.15-.15h0l.16-.2.22-.2.38-.22.25-.09.19,0h0l.21-.17v-.08l-.09-.12,0,0-.34-.07h0l-.16,0-.19-.05-.06-.16.09-.15v0l.05-.2v0l0-.08-.06,0h-.4l-.22.12-.18,0h-.11l-.24-.22-.12-.21h0l-.12-.2,0,0-.16-.08-.21-.22-.16-.22h0l-.22-.22v0l-.59-.24h0l-.45-.09h-.24l-.2,0h0l-.23.08h0l-.3.12h0l-.37.28-.21.11-.35.07-.38,0h-.74l-.3-.06h-.24l-.27,0-.29,0-.15-.13-.15-.16-.08-.18h0l-.16-.23,0,0-.21,0h0l-.24.1h0l-.16.14-.23.17h0l-.24.24-.14,0h-.06V46.3h0l0-.15,0-.12h0l0-.18h0l-.05-.12-.05-.13,0,0-.23-.18-.08-.11-.09-.18h0l-.15-.25-.11-.23h0l-.09-.08h0l-.14,0h0l-.24.08h0l-.21.16,0,0-.07.15,0,.13H262l-.3-.14-.16-.12-.13-.12-.12-.15-.07-.1,0,0-.26-.1-.12,0-.23-.13-.12-.06-.09-.16,0-.19,0,0-.12-.11h0l-.26-.11h0l-.18,0-.31-.06-.3-.05-.17,0-.17-.16-.06-.22,0-.23.11-.14h0l.09-.17.06-.07.16-.12h0l.12-.15v0l-.05-.2v0l0-.07-.07-.13,0,0-.16-.1-.14-.1h0l-.17-.07h0l-.14,0h0l-.26,0-.05,0,0,.07h0l-.05.1,0,0-.2,0h-.2l-.1,0-.09-.11-.05-.11h0l-.09-.23h0l-.14-.27,0,0-.09,0h0l-.16,0-.19-.05h0l-.23.05h-.26l-.19,0-.19,0h0l-.15,0-.17-.06,0-.12h0l-.07-.14h0l0,0-.07-.05h0l-.12,0h0l-.14,0h0l-.17,0h0l-.12,0,0,0-.11.28h0l0,.18-.07,0-.12,0h-.11l-.16-.17,0-.19.11-.21v0l0-.23h0v-.56l.06-.09h0l.09-.16h0l0-.1V38.8l-.12-.12h0l-.11-.09,0-.11,0-.28,0-.11v0l0-.16v0l-.12-.12-.06-.14h0l-.07-.13,0-.12,0-.12v-.18l.16-.29h0l.07-.23h0l0-.2h0l0-.2h0l0-.13h0l0-.12-.05-.13v0l-.11-.12-.07-.12-.07-.17v0l-.14-.17,0,0-.14,0h0L253,35l-.14,0h-.33l-.16,0-.2-.08v-.14l0-.12,0-.1,0-.1v0l0-.13v0l0-.05,0,0h0l-.07-.05h0l-.09-.06h0l0-.12h0l-.12-.16,0-.18,0-.12.12-.14.08-.08h0l.2-.27v0l.05-.31.07-.28.1-.27h0l.07-.44.05-.25.11-.06.28.09h0l.32.07h0l.27,0h0l.33-.17h0l.2-.22v0l.07-.16.11-.23h0l.12-.42.12-.15h0l.11-.21.22-.3h0l.08-.13V29h0v-.24l.12-.19.16-.15.18-.17h0l.14-.25h0l.06-.14.09-.1v0l0-.22,0-.05-.08,0h0l-.15,0h-.17l-.11,0-.18-.06,0,0-.12-.1h0l-.11-.06h0l-.21-.08-.11-.08h0l-.47-.33-.08-.23-.06-.23-.06,0-.12,0,0,0-.15.15h0l-.08.08h-.17l-.16-.06h0l-.2,0-.08-.19h0l-.05-.11-.07-.19v0l-.13-.13h0l-.14-.07h-.17l-.16.05h-.08l-.17-.1-.19-.12h-.22l-.25.08h0l-.21.16h0l-.22.22-.23.13-.35.17-.28.09-.46,0-.29,0h0l-.25.09h0l-.09.11-.11.05h0l-.2-.1h0l-.27-.06h-.19l-.14-.09-.19-.18-.1-.31h0l-.08-.15h0l-.13-.21-.07-.14h0l-.16-.25h0l-.07-.08h0l-.28-.14h0l-.31-.1-.14-.07-.24-.1h0l-.31,0h0l-.09.05-.2,0H245l-.08,0-.18-.11h-.53l-.18,0h0l-.15,0h0l-.16.08h-.23l-.06.07,0,.11v0l.07.12,0,.09-.09.07h0l-.11.09-.1.07-.2.07-.21-.07h0l-.17,0-.21,0h-.26l-.24.11h0l-.15.11h-.14l-.28-.29-.28-.43h0l-.14-.18h0l-.22-.28h0l-.3-.24h0l-.09,0-.26-.17h0l-.29-.15-.2-.2-.23-.27h0l-.21-.08h0l-.22,0h-.34l-.31,0h0l-.12,0h0l-.37.07-.13,0h-.18l-.19,0-.06-.08-.05-.15,0-.22h0L237,22.5h0l0-.06,0-.08.11-.09,0-.05v-.1l0-.17v0l0-.07-.05-.08-.11-.23h0l0-.05-.09-.12,0,0-.13-.07-.09-.08h0l-.11,0h-.12l-.12,0L236,21l-.06-.09,0-.19v0l-.07-.1-.07-.11h0l-.09-.12-.14-.26h0l-.12-.1-.13-.15-.07-.14h0l-.1-.13,0,0-.12-.05h0l-.07,0h0l-.12.13,0,0h-.07l-.05-.06h0l-.14-.11h0l-.12,0-.16-.1h0l-.19-.12-.07-.19h0l0-.06,0-.14v-.05h0l0-.1v0l0-.07,0-.09,0-.11h0l0-.08-.05-.1,0,0-.09-.07h0l-.09,0Zm33.34,107.06-.28-.09h0l-.17-.06h0l-.23-.06-.18-.18h0l-.41-.11-.45-.2-.39-.21,0-.1.06,0h0l.19,0,.46.22.12.1h0l.28.22h0l.23.1.16.06.29.19h0l.17.07,0,0h0l.08,0Z"/></g><path class="cls-2" d="M292.18,191.49h0l-.11,0-.07-.08h0l-.23,0h0l-.13,0-.18,0h-.05l-.1.08h0l-.12-.09H291l-.1.1v.07l.15.23h0l.16.17h0l.17.12.28.29h0l.12,0h.05l.11-.08,0,0v-.1l.07,0h0l.18,0,.05,0,.13-.14v0l0-.31,0-.06Z"/><path class="cls-2" d="M368,220.65h-.07l0,0,0,0v0l-.12-.09h-.14l-.12,0,0,.06v.09l0,.06.15,0,0,0,0,.13,0,0,0,0,0,0h.14l.05,0,.07-.1h0l0-.07,0-.07Z"/><path class="cls-2" d="M366.45,220.6l0,0-.06,0-.14,0h0l-.08,0v.09l.11.12h.06l.09,0h0l.11-.07,0,0,.07-.12v-.07l-.05-.06Z"/><path class="cls-2" d="M366.38,224l.06,0,0-.12,0-.07v0l0-.09-.06,0h-.06l-.07,0h0l-.05,0v0l-.05.09v0l0,.12.06,0Z"/><path class="cls-2" d="M366.48,231.21l-.08,0h0l-.12,0,0,.06v0l0,0,.09.07,0,0h.12l0,0,0-.05,0,0v-.07l-.06-.06Z"/><path class="cls-2" d="M361.52,226.17l0,0h-.16l-.06,0,0,.08v0l0,.05h0l0,.05,0,0h.11l.07,0,0-.05v-.09Z"/><path class="cls-2" d="M365.22,210.63l0,0,0,0h-.07l0,0,0,0v.05l0,0,0,.05.05,0h.05l0,0,0-.05,0,0v-.06Z"/><polygon class="cls-2" points="376.07 209.5 376.05 209.48 376.01 209.46 375.97 209.46 375.92 209.49 375.89 209.54 375.89 209.56 375.89 209.59 375.89 209.61 375.92 209.66 375.97 209.69 375.99 209.69 376.01 209.69 376.06 209.66 376.08 209.65 376.1 209.63 376.12 209.59 376.12 209.54 376.07 209.5"/><path class="cls-2" d="M214.94,219.91v0l-.15-.42-.13-.37v0l-.26-.3-.17-.21h0l-.37-.32,0,0-.24,0-.05,0-.24.26v0l0,.28-.24.35h0l-.08.21-.17.12h-.26l-.48-.23h-.3l-.32,0-.05.06v.35l.31.47h0l.42.34h0l.35.2.32.18.14.18.12.23.18.46h0l.14.28.08.31,0,.43,0,.26h0l.11.51,0,.35h0l0,.26h0l.07.15.09.22,0,.16v.16l0,.13v0l0,.1,0,0,.06,0,.09,0,.12-.27.21-.39h0l.07-.3h0l0-.36h0l0-.28v-.46l0-.29h0l0-.38.15-.46h0l.22-.67h0l0-.29h0v-.62h0Z"/><path class="cls-2" d="M219.76,228.73h0l-.22-.26-.07,0-.18.09h0l-.05,0h0l0,0,0,0h0v-.11l.06-.07h0l.06-.1V228l-.05-.05h-.09l-.14,0h0l-.18.14,0,0-.12.27h0l-.07.24v0l0,.22,0,.23h0l.05.26,0,0,.13.12h0l.2,0,0,0,.1-.14.23-.07.17,0h0l.14-.12,0,0,0-.2v0Z"/><path class="cls-2" d="M223.62,226.93l-.16-.1h0l-.16,0h0l-.15.09,0,0-.07.14-.06,0h-.06l-.11,0h0l-.06,0,0,.06,0,.06.05,0,.24,0h.14l.19,0h0l.17-.07h0l.11-.12,0,0V227Z"/><path class="cls-2" d="M226.05,225.23h0l0,.1.07,0,.07,0,0,0,0-.07v-.16l0-.06v-.15l0,0-.09,0-.05,0-.08.07h0l0,0L226,225v.05l0,.07Z"/><path class="cls-2" d="M292.45,175.34l-.05,0h0l0,0v.14l0,0,0,0,.05,0h.09l0,0,0,0v0l0,0v0l-.06-.06h0v0l-.07,0Zm0,.19h0v-.06h0v0l0,0h0Z"/><path class="cls-2" d="M289,143.65l.19.08h0l.12,0h.13l.05,0h0l.07-.06h.16l.1,0,0,0v0l0,0v0l0,0,0,0-.05,0-.09-.05h0l-.19-.07h0l-.18,0h0l-.12,0h0l-.12.08,0,0,0,.07v0l0,.12Z"/><path class="cls-2" d="M267.36,54.5l-.05-.19-.05-.05h-.4l-.05,0-.13.19-.18.19-.21.08h0l-.09.06h0l-.25.2h0l-.22.18h0l-.23.19-.51.3h0l-.14.08-.25.13h0l-.65.49-.2.15h0l-.56.51-.21.17h0l-.24.22,0,0-.06.44v0l.25.35,0,0,.51.07h0l.41-.22h0l.36-.19.36.17,0,.46,0,0,.27.33,0,0,.35,0h0l.4-.28,0,0,.06-.44.12-.54.22-.46.41-.36h0l.27-.43h0l.3-.5h0l.23-.7h0l0-.22v0l0-.14,0-.38Z"/><path class="cls-2" d="M272,50.5h0l.3-.08h0l.29-.16h0l.22-.23,0,0,0-.11-.05-.07-.42,0h0l-.3.09-.34.1-.26,0h0l-.27,0h0l-.2.09-.63.18h0l-.2.11h0l-.15.08h0l-.35.21-.21.08h0l-.32.17h0l-.25.14-.41.21h0l-.25.16-.36.19,0,0,0,.19.08.06.29-.1h0l.37-.18h0l.48-.23h0l.29-.2h0l.27-.19.34-.13.43-.11h0l.35-.11.22,0h0l.35-.1h.31Z"/><path class="cls-2" d="M267.62,52.8l.19-.33v0l0-.25v0l-.06-.17v0l-.11-.13h0l-.26,0h-.07l-.1,0-.37-.12h0l-.29,0-.29-.07h0l-.28,0h0l-.2,0,0,0-.06.09h0l-.1.2h0l-.09.26h0l0,.2-.08.29h0l-.06.29-.09.32v0l0,.3v.26l-.1.27,0,.07.61.12h0l.31-.07,0,0,.17-.17h0l.12-.2.18-.27.43-.33.27-.19h0l.31-.31Z"/><path class="cls-2" d="M271.15,55.7l.2-.19v0l.17-.41V55l-.07-.09h-.07l-.22.15-.27.17h0l-.27.19-.13,0-.07-.07v-.08l0-.17v-.2l0,0-.08-.05H270l-.05,0-.06.11v0l0,.21,0,.2h0l0,.22v0l.1.24V56l-.06.15v.23l.1.14h.08l.21-.14h0l.22-.23.3-.28.31-.2Z"/><path class="cls-2" d="M262.2,59l.26,0,.05,0,.14-.31v-.17h0v-.21l0-.11v0l-.1-.14,0,0-.11-.07h0l-.21,0h0L262,58h0l-.11.07-.19.12,0,0,0,.23v0l0,.14v0l.1.18h0l.31.2Z"/><path class="cls-5" d="M268.15,52.77l-.18,0,0,0-.08.11h0l-.06.11-.12.2h0l-.09.28h0l0,.21-.1.24v.16l.05.06h.11l.05,0,.18-.2h0l.15-.25h0l.19-.33h0l.08-.21h0l.07-.3,0-.06s-.13,0-.12-.06.06,0,.06,0h0l.24-.12,0,0,.09-.17v0l0-.2,0-.07-.14,0-.05,0-.05,0-.07.07-.14.12v0l-.09.15v0l0,.1Z"/><path class="cls-2" d="M270.66,54.06l.09,0h.1l.1,0,0,0,0-.1V53.8l0-.08,0,0-.05,0h0l-.19,0-.06,0,0,.1v.15l0,.1Z"/><path class="cls-2" d="M272.68,52.24l.14,0,.05,0,0-.07v-.06l-.07-.08h-.06l-.09,0,0,0,0,.07v.06l0,.08Z"/><path class="cls-2" d="M271.55,53.32l-.05,0h-.12l-.06,0,0,.07v0l0,0,.05,0h.08l.07-.06,0,0Z"/><polyline class="cls-2" points="273.52 52.52 273.54 52.44 273.52 52.39 273.43 52.38 273.4 52.4 273.38 52.43 273.37 52.47 273.37 52.49 273.42 52.55 273.44 52.55"/><polygon class="cls-2" points="245.33 245.56 245.31 245.58 245.28 245.6 245.27 245.64 245.27 245.71 245.3 245.76 245.35 245.79 245.4 245.79 245.44 245.76 245.48 245.71 245.48 245.69 245.48 245.64 245.48 245.59 245.4 245.54 245.33 245.56"/><path class="cls-2" d="M242.26,81.55l-.07,0h-.05l-.14,0h0l-.07,0-.07,0,0,.05v.12h0l0,.1,0,0,.14,0h.11l.12,0,0,0,0-.08h0l0-.1h0v-.08l0-.08Z"/></svg>