<svg id="MAJOR_CITIES" data-name="MAJOR CITIES" xmlns="http://www.w3.org/2000/svg" viewBox="0 0 460.37 259"><defs><style>.cls-1,.cls-4{fill:none;stroke-miterlimit:10;}.cls-1{stroke:#fff;stroke-width:0.5px;}.cls-2,.cls-3{fill:#fff;}.cls-3{font-size:4px;font-family:CourierNewPSMT, Courier New;}.cls-4{stroke:#e8e0d5;stroke-width:0.15px;opacity:0.99;}</style></defs><circle class="cls-1" cx="13.03" cy="12.18" r="1.46"/><circle class="cls-1" cx="97.83" cy="75.89" r="1.46"/><circle class="cls-1" cx="193.41" cy="103.86" r="1.46"/><circle class="cls-1" cx="162.11" cy="168.47" r="1.46"/><circle class="cls-1" cx="227.53" cy="201.76" r="1.46"/><circle class="cls-1" cx="251.74" cy="212.38" r="1.46"/><circle class="cls-2" cx="272.72" cy="183.72" r="1.03"/><circle class="cls-2" cx="272.97" cy="164.08" r="1.03"/><circle class="cls-2" cx="272.71" cy="158.79" r="1.03"/><circle class="cls-2" cx="274.65" cy="196.99" r="1.03"/><circle class="cls-1" cx="241.2" cy="55.74" r="1.46"/><text class="cls-3" transform="translate(305.68 184.94)">Buôn Ma Thuột (Đắk Lắk)</text><text class="cls-3" transform="translate(305.68 165.31)">Pleiku (Gia Lai)</text><text class="cls-3" transform="translate(305.68 160.01)">Kon Tum (Quảng Ngãi)</text><text class="cls-3" transform="translate(305.68 57.17)">Ha Noi (Ha Noi)</text><text class="cls-3" transform="translate(305.86 198.22)">Đà Lạt (Lâm Đồng)</text><text class="cls-3" transform="translate(305.86 213.6)">Ho Chi Minh (Ho Chi Minh)</text><line class="cls-4" x1="276.45" y1="196.99" x2="303.7" y2="196.99"/><line class="cls-4" x1="254.93" y1="212.38" x2="303.7" y2="212.38"/><line class="cls-4" x1="274.65" y1="183.72" x2="303.7" y2="183.72"/><line class="cls-4" x1="274.65" y1="164.08" x2="303.7" y2="164.08"/><line class="cls-4" x1="274.65" y1="158.79" x2="303.7" y2="158.79"/><line class="cls-4" x1="243.28" y1="55.95" x2="303.7" y2="55.95"/></svg>