<?xml version="1.0" encoding="UTF-8"?>
<svg xmlns="http://www.w3.org/2000/svg" width="914.5" height="791.3" viewBox="285.89 1.32 914.5 791.3" style="background-color:#ffffff">
  <!-- Created using SVG Map Generator: dojo.amcharts.com/svg-map-generator -->
  <style>
    .land { fill: #ffffff; stroke: #000000; stroke-width: 3.65; }
  </style>
  <g id="polygons">
    <path d="M851.782,612.283L852.381,609.028L866.174,601.556L863.863,598.692L867.495,592.655L875.493,590.322L877.835,585.683L877.035,578.709L889.587,568.616L885.76,562.321L880.537,558.855L881.413,552.33L876.697,545.514L876.65,540.638L885.386,542.006L887.486,549.04L902.505,542.465L908.504,548.671L921.347,550.139L923.249,554.988L930.945,558.239L936.964,552.034L942.134,554.315L940.125,552.19L938.344,540.368L929.754,540.023L925.705,536.985L927.124,526.82L937.016,529.086L935.765,523.164L938.798,517.623L947.6,514.233L949.688,505.573L957.486,505.492L968.696,497.02L982.653,497.786L980.24,486.067L972.693,484.652L974.096,477.674L980.474,475.934L982.601,480.243L995.812,475.877L999.161,477.08L1002.085,484.44L1006.544,484.896L1007.295,493.761L1014.535,498.251L1019.027,497.297L1028.406,511.874L1021.262,512.372L1019.688,520.786L1014.979,524.432L1019.77,538.975L1025.41,548.4L1036.907,551.222L1047.896,558.272L1060.684,554.915L1067.377,556.967L1070.576,560.851L1067,569.882L1061.717,572.538L1057.52,578.223L1060.021,585.667L1036.796,596.341L1034.773,601.803L1024.583,609.21L1020.641,614.829L1014.236,616.499L1007.052,624.406L1007.997,633.787L1000.415,634.657L996.405,637.831L989.31,638.369L972.95,643.783L960.382,641.884L956.283,646.496L952.847,640.815L945.579,638.46L944.905,635.461L935.238,632.594L932.949,634.052L922.829,632.553L924.885,629.091L920.419,620.435L915.377,623.14L904.054,623.455L898.763,615.159L895.589,614.597L886.545,621.51L874.296,620.534L874.706,615.432L871.01,612.944Z" class="land" id="FR-PAC" title="Provence-Alpes-Côte d'Azur"/>
    <path d="M518.053,205.794L531.757,206.483L536.96,211.44L543.591,210.814L552.265,205.739L563.811,204.682L570.776,201.451L574.476,209.803L580.352,210.25L580.331,216.253L601.857,207.939L605.21,209.631L607.455,220.409L616.245,226.147L625.33,225.691L632.322,230.435L635.606,235.23L633.69,246.837L635.568,250.462L630.18,253.559L630.696,258.962L619.503,267.971L620.156,271.598L612.03,273.725L607.109,279.634L599.261,276.327L595.422,282.088L597.113,285.176L594.702,294.568L588.233,302.504L586.829,311.84L582.988,312.158L575.429,320.599L567.018,316.484L558.244,319.588L552.872,318.251L546.415,325.146L530.749,327.313L532.058,334.096L540.258,340.073L538.915,344.384L545.331,355.07L543.236,363.162L549.947,374.044L543.206,379.515L538.578,380.703L532.034,377.862L525.529,380.077L522.875,376.755L514.078,379.563L492.245,377.509L489.387,372.576L481.046,371.286L470.887,365.292L468.262,356.038L462.692,349.042L450.782,339.107L450.243,333.722L461.151,322.589L449.709,311.482L449.491,303.878L441.565,306.38L426.482,301.829L425.682,295.163L432.007,289.32L440.672,288.29L454.267,282.595L454.358,274.816L462.114,269.867L481.389,268.619L483.761,264.353L498.175,259.262L506.826,263.335L512.553,248.484L521.071,245.467L516.013,224.773L519.473,219.86L517.32,213.133Z" class="land" id="FR-PDL" title="Pays de la Loire"/>
    <path d="M876.697,545.514L881.413,552.33L880.537,558.855L885.76,562.321L889.587,568.616L877.035,578.709L877.835,585.683L875.493,590.322L867.495,592.655L863.863,598.692L866.174,601.556L852.381,609.028L851.782,612.283L845.684,610.152L843.788,604.635L835.407,605.188L819.791,617.235L814.697,618.64L806.154,628.247L796.319,627.709L785.599,636.099L782,641.412L776.912,655.352L778.361,657.196L776.616,674.99L777.963,688.517L784.016,690.626L786.432,697.057L780.599,698.175L777.124,694.053L766.732,694.696L762.244,698.784L758.065,698.291L748.129,703.792L742.102,705.312L738.909,700.87L727.608,697.148L721.152,698.35L716.728,703.467L708.928,701.797L706.991,695.897L693.829,692.377L694.147,682.209L678.698,679.186L675.139,683.375L669.922,673.691L658.013,674.574L652.225,667.943L642.469,667.876L637.988,664.775L628.549,661.841L621.482,674.798L610.333,676.039L606.349,673.275L594.625,672.21L583.266,676.546L576.248,673.134L563.483,662.863L565.127,649.915L570.807,644.812L571.187,640.889L579.149,635.684L585.343,621.651L578.947,614.3L580.915,607.913L577.354,602.175L568.349,602.125L567.665,591.847L569.645,588.287L572.129,572.744L586.985,570.918L595.583,566.495L602.46,568.492L618.604,563.167L625.422,565.698L630.231,562.633L633.379,555.908L640.004,556.376L642.116,545.834L638.378,542.293L640.052,536.485L650.471,537.746L647.693,531.279L647.507,523.802L660.521,511.833L673.997,495.888L671.945,485.587L679.79,482.162L685.816,483.325L696.613,492.279L703.215,487.809L712.812,487.947L714.772,496.271L719.91,503.175L717.358,510.682L720.064,515.556L729.786,512.821L731.427,515.262L739.695,514.429L744.415,508.772L747.066,498.52L755.265,490.732L763.04,496.181L764.953,503.118L768.046,504.358L768.145,512.037L771.016,514.936L774.854,502.229L780.069,493.794L785.831,493.33L795.059,489.209L802.505,501.716L812.928,496.059L818.612,499.148L826.219,509.49L829.077,519.037L832.24,520.957L834.656,529.012L843.823,540.105L851.984,545.973L853.818,541.867L860.327,539.294L867.468,539.516Z" class="land" id="FR-OCC" title="Occitanie"/>
    <path d="M504.859,405.796L509.43,414.322L508.919,418.838L497.049,408.769ZM488.051,388.774L490.316,384.34L494.762,388.822L503.045,389.931L501.153,393.315L492.517,388.766ZM725.053,371.278L726.494,377.413L737.763,382.469L743.107,392.487L742.211,398.061L745.485,402.173L742.818,411.944L732.431,419.064L740.996,428.364L740.956,433.859L737.229,437.586L740.801,440.975L738.671,455.901L732.762,452.522L731.153,458.61L720.884,467.965L717.902,485.872L712.812,487.947L703.215,487.809L696.613,492.279L685.816,483.325L679.79,482.162L671.945,485.587L673.997,495.888L660.521,511.833L647.507,523.802L647.693,531.279L650.471,537.746L640.052,536.485L638.378,542.293L642.116,545.834L640.004,556.376L633.379,555.908L630.231,562.633L625.422,565.698L618.604,563.167L602.46,568.492L595.583,566.495L586.985,570.918L572.129,572.744L569.645,588.287L567.665,591.847L568.349,602.125L577.354,602.175L580.915,607.913L578.947,614.3L585.343,621.651L579.149,635.684L571.187,640.889L570.807,644.812L565.127,649.915L563.483,662.863L558.283,667.061L551.179,664.7L548.249,668.808L540.226,659.913L531.958,654.397L523.373,654.215L512.529,648.338L497.963,642.49L497.308,647.973L489.763,643.012L495.623,634.657L495.251,628.967L473.151,622.966L469.935,619.351L481.94,614.416L491.827,596.704L501.625,550.418L504.329,523.197L508.356,513.825L518.264,514.74L518.437,510.747L510.09,504.276L504.064,515.94L510.666,461.732L511.085,447.354L516.742,444.423L525.127,450.213L533.086,457.831L541.662,475.804L538.65,459.323L534.478,448.56L519.507,435.459L508.179,429.487L506.238,422.276L512.711,420.912L517.872,404.806L513.165,394.803L508.309,393.331L508.725,387.995L514.354,384.115L514.078,379.563L522.875,376.755L525.529,380.077L532.034,377.862L538.578,380.703L543.206,379.515L549.947,374.044L543.236,363.162L545.331,355.07L538.915,344.384L540.258,340.073L532.058,334.096L530.749,327.313L546.415,325.146L552.872,318.251L558.244,319.588L567.018,316.484L575.429,320.599L582.988,312.158L586.829,311.84L588.449,315.403L602.227,320.822L601.506,325.671L610.608,330.54L614.752,328.197L626.245,327.01L627.06,332.629L632.753,336.904L633.946,341.733L640.017,346.709L638.781,354.503L646.717,361.953L654.457,364.267L658.7,370.155L659.148,375.6L667.544,372.873L671.386,377.18L678.208,370.717L688.124,371.374L694.141,368.328L697.644,370.797L706.309,369.41L713.146,372.055Z" class="land" id="FR-NAQ" title="Nouvelle-Aquitaine"/>
    <path d="M686.984,149.458L682.158,160.782L674.056,163.496L674.909,172.08L672.46,177.401L666.5,180.316L664.743,186.035L658.047,186.284L651.864,183.834L646.608,188.618L632.875,193.656L635.466,199.988L640.032,201.725L640.934,209.874L639.381,216.425L631.648,218.903L629.693,222.167L632.322,230.435L625.33,225.691L616.245,226.147L607.455,220.409L605.21,209.631L601.857,207.939L580.331,216.253L580.352,210.25L574.476,209.803L570.776,201.451L563.811,204.682L552.265,205.739L543.591,210.814L536.96,211.44L531.757,206.483L518.053,205.794L506.836,203L500.671,208.871L492.457,207.289L487.469,195.915L496.383,195.258L487.783,187.385L486.894,179.201L488.642,165.363L486.603,156.857L479.757,141.896L473.572,138.487L469.852,116.325L472.993,113.894L490.517,116.664L494.205,113.392L506.803,113.454L508.941,120.348L504.026,124.938L512.601,135.815L524.842,136.582L537.568,140.339L559.493,141.571L569.918,145.633L583.36,142.214L591.146,136.287L593.424,132.293L587.398,127.651L595.963,112.158L603.821,109.559L618.906,101.106L630.157,99.713L641.449,95.773L645.02,96.619L655.618,92.481L666.62,85.15L671.146,87.047L686.947,98.789L691.523,108.364L687.153,110.507L686.25,122.256L692.027,128.347L687.475,135.807L691.113,144.796Z" class="land" id="FR-NOR" title="Normandie"/>
    <path d="M686.984,149.458L690.113,153.821L697.942,154.807L709.926,151.119L719.222,155.708L724.09,152.974L740.617,161.225L743.592,159.002L749.798,162.687L764.047,160.3L775.941,159.756L776.226,166.475L788.543,173.006L789.567,177.401L795.834,178.929L791.283,184.24L794.982,187.806L794.097,195.829L796.066,203.133L790.812,212.294L792.282,215.022L782.54,217.029L769.883,217.437L770.049,226.045L763.422,232.848L754.958,232.4L749.287,235.961L740.304,234.585L737.616,227.922L731.862,225.267L730.597,220.872L724.132,221.139L718.247,218.652L715.871,222.222L704.195,223.046L704.388,214.191L693.579,209.098L692.624,202.288L687.846,200.457L681.248,193.578L678.716,175.975L674.909,172.08L674.056,163.496L682.158,160.782Z" class="land" id="FR-IDF" title="Île-de-France"/>
    <path d="M839.114,93.219L840.59,100.182L837.918,106.984L840.616,108.757L833.296,114.851L828.494,128.092L828.485,139.455L821.543,135.854L804.796,143.075L811.339,155.079L803.668,155.739L805.585,164.071L803.905,170.047L795.834,178.929L789.567,177.401L788.543,173.006L776.226,166.475L775.941,159.756L764.047,160.3L749.798,162.687L743.592,159.002L740.617,161.225L724.09,152.974L719.222,155.708L709.926,151.119L697.942,154.807L690.113,153.821L686.984,149.458L691.113,144.796L687.475,135.807L692.027,128.347L686.25,122.256L687.153,110.507L691.523,108.364L686.947,98.789L671.146,87.047L666.62,85.15L679.308,70.438L676.064,68.416L678.828,48.873L677.234,34.563L680.233,28.642L678.23,23.517L687.988,17.957L709.215,13.372L735.737,6.973L741.196,17.729L739.387,25.159L746.835,28.148L750.928,34.525L757.996,37.16L760.676,32.606L772.525,29.707L778.011,39.751L781.364,49.934L786.5,52.469L795.033,49.995L803.687,55.105L803.748,61.734L815.347,63.073L818.521,64.994L825.841,62.545L829.057,66.226L837.101,69.197L834.106,77.552L838.849,84.766L834.756,86.31L833.944,91.873Z" class="land" id="FR-HDF" title="Hauts-de-France"/>
    <path d="M1022.763,284.955L1019.598,277.838L1014.595,277.102L1016.969,270.8L1014.744,265.988L1005.43,262.861L1000.307,257.502L991.557,253.283L989.039,250.036L981.316,254.718L975.617,248.807L964.51,249.855L959.868,244.176L947.569,247.475L942.543,253.212L933.135,259.806L933.489,270.547L916.853,271.179L913.086,277.996L898.352,273.614L888.298,264.464L890.242,260.832L884.498,251.896L877.551,245.215L864.34,243.389L863.001,248.208L839.23,248.886L835.791,251.533L822.561,251.273L823.615,247.302L817.902,242.231L815.867,236.433L808.221,234.68L805.026,224.561L797.802,216.88L792.282,215.022L790.812,212.294L796.066,203.133L794.097,195.829L794.982,187.806L791.283,184.24L795.834,178.929L803.905,170.047L805.585,164.071L803.668,155.739L811.339,155.079L804.796,143.075L821.543,135.854L828.485,139.455L828.494,128.092L833.296,114.851L840.616,108.757L837.918,106.984L840.59,100.182L839.114,93.219L843.798,92.412L852.107,94.857L866.842,90.39L866.691,83.537L874.526,77.145L875.704,87.147L872.752,92.473L878.856,97.027L876.474,100.321L880.235,106.56L885.615,105.458L891.684,108.333L896.228,113.693L902.462,113.446L912.427,121.205L915.306,128.788L925.452,124.752L939.315,128.726L946.196,132.386L953.475,132.239L961.789,127.558L969.499,131.743L973.219,130.428L980.365,133.872L982.142,140.47L988.612,145.664L993.187,154.644L999.103,155.506L1005.126,150.094L1016.733,156.399L1027.07,158.513L1031.187,154.131L1039.051,154.325L1041.384,159.865L1050.43,163.947L1057.688,162.29L1082.775,169.923L1076.697,182.797L1062.05,195.399L1059.883,199.855L1053.059,228.267L1047.93,236.221L1047.794,243.019L1051.258,247.925L1047.56,255.255L1046.279,272.46L1050.684,276.944L1045.22,282.08L1046.106,285.351L1038.648,290.564L1029.86,291.428Z" class="land" id="FR-GES" title="Grand Est"/>
    <path d="M1147.085,767.918L1155.767,759.967L1149.006,757.741L1143.54,752.527L1147.748,742.534L1137.361,741.285L1138.158,732.712L1141.742,728.441L1134.623,722.474L1131.767,714.662L1133.485,708.185L1133.148,698.942L1136.327,699.026L1136.689,690.651L1144.353,687.491L1145.018,683.425L1158.464,680.202L1165.106,672.685L1171.281,672.377L1176.411,677.254L1179.113,672.318L1176.467,664.243L1179.399,656.69L1177.773,650.886L1182.99,649.45L1188.277,666.438L1185.818,677.395L1191.873,687.983L1192.566,702.799L1194.69,710.157L1194.739,725.118L1186.549,737.681L1186.015,750.605L1187.149,757.766L1183.751,770.752L1179.385,773.157L1179.945,778.728L1176.627,786.973L1169.89,780.976L1161.843,776.582L1156.807,776.658Z" class="land" id="FR-COR" title="Corse"/>
    <path d="M674.909,172.08L678.716,175.975L681.248,193.578L687.846,200.457L692.624,202.288L693.579,209.098L704.388,214.191L704.195,223.046L715.871,222.222L718.247,218.652L724.132,221.139L730.597,220.872L731.862,225.267L737.616,227.922L740.304,234.585L749.287,235.961L754.958,232.4L763.422,232.848L769.133,235.191L770.458,239.91L775.128,243.326L775.409,247.822L770.725,252.7L769.386,262.49L758.757,264.819L763.435,270.8L764.184,277.363L758.831,282.175L764.049,290.089L760.295,297.995L767.426,304.084L770.649,315.243L769.939,319.779L773.699,323.003L771.155,341.262L764.315,341.422L759.968,345.191L750.828,347.348L742.752,352.128L745.644,360.584L729.934,363.522L725.053,371.278L713.146,372.055L706.309,369.41L697.644,370.797L694.141,368.328L688.124,371.374L678.208,370.717L671.386,377.18L667.544,372.873L659.148,375.6L658.7,370.155L654.457,364.267L646.717,361.953L638.781,354.503L640.017,346.709L633.946,341.733L632.753,336.904L627.06,332.629L626.245,327.01L614.752,328.197L610.608,330.54L601.506,325.671L602.227,320.822L588.449,315.403L586.829,311.84L588.233,302.504L594.702,294.568L597.113,285.176L595.422,282.088L599.261,276.327L607.109,279.634L612.03,273.725L620.156,271.598L619.503,267.971L630.696,258.962L630.18,253.559L635.568,250.462L633.69,246.837L635.606,235.23L632.322,230.435L629.693,222.167L631.648,218.903L639.381,216.425L640.934,209.874L640.032,201.725L635.466,199.988L632.875,193.656L646.608,188.618L651.864,183.834L658.047,186.284L664.743,186.035L666.5,180.316L672.46,177.401Z" class="land" id="FR-CVL" title="Centre-Val de Loire"/>
    <path d="M383.236,294.116L389.808,298.741L384.892,301.646ZM487.469,195.915L492.457,207.289L500.671,208.871L506.836,203L518.053,205.794L517.32,213.133L519.473,219.86L516.013,224.773L521.071,245.467L512.553,248.484L506.826,263.335L498.175,259.262L483.761,264.353L481.389,268.619L462.114,269.867L454.358,274.816L454.267,282.595L440.672,288.29L432.007,289.32L428.911,283.276L410.029,286.285L406.495,282.587L396.314,278.977L391.191,279.713L381.348,270.547L371.063,269.717L366.65,264.345L346.55,262.214L343.736,258.757L328.759,257.006L325.881,261.772L315.053,261.787L315.826,254.561L312.12,248.681L303.123,245.735L294.341,240.634L304.308,239.713L312.7,237.29L319.493,238.683L321.899,235.482L319.085,229.658L310.1,226.901L306.692,230.561L300.109,223.705L314.198,224.098L309.719,215.453L301.518,219.099L292.17,215.633L291.544,205.215L296.134,200.95L301.842,200.442L318.208,192.562L339.325,189.868L341.035,192.804L348.133,192.812L350.151,189.274L361.062,191.109L364.743,182.484L371.301,180.028L373.65,183.101L381.068,179.973L395.43,177.674L397.848,184.552L411.489,194.82L411.123,199.003L422.58,203.548L427.484,198.651L435.738,196.337L450.822,198.901L452.069,196.008L459.492,194.656L465.388,190.649L469.388,195.633L474.878,198.291Z" class="land" id="FR-BRE" title="Bretagne"/>
    <path d="M1022.763,284.955L1011.13,290.517L1016.03,295.282L1012.695,305.633L1005.812,313.08L997.617,318.402L992.857,325.496L985.209,326.986L983.044,342.867L971.991,350.233L962.438,358.727L965.406,361.24L960.06,371.582L948.342,383.713L939.387,384.027L934.323,378.945L927.779,383.408L921.32,379.643L908.497,368.216L906.282,364.155L897.336,366.125L890.125,363.354L880.822,390.823L874.398,384.187L863.469,383.489L857.294,381.225L856.355,387.858L849.823,392.367L845.19,389.361L838.663,389.015L834.146,391.378L825.424,387.762L825.347,382.076L831.272,379.7L831.758,367.904L823.61,365.805L815.634,361.76L812.667,352.128L804.948,344.911L799.561,352.647L795.378,347.715L790.858,350.113L785.998,347.476L781.759,350.721L772.864,344.752L771.155,341.262L773.699,323.003L769.939,319.779L770.649,315.243L767.426,304.084L760.295,297.995L764.049,290.089L758.831,282.175L764.184,277.363L763.435,270.8L758.757,264.819L769.386,262.49L770.725,252.7L775.409,247.822L775.128,243.326L770.458,239.91L769.133,235.191L763.422,232.848L770.049,226.045L769.883,217.437L782.54,217.029L792.282,215.022L797.802,216.88L805.026,224.561L808.221,234.68L815.867,236.433L817.902,242.231L823.615,247.302L822.561,251.273L835.791,251.533L839.23,248.886L863.001,248.208L864.34,243.389L877.551,245.215L884.498,251.896L890.242,260.832L888.298,264.464L898.352,273.614L913.086,277.996L916.853,271.179L933.489,270.547L933.135,259.806L942.543,253.212L947.569,247.475L959.868,244.176L964.51,249.855L975.617,248.807L981.316,254.718L989.039,250.036L991.557,253.283L1000.307,257.502L1005.43,262.861L1014.744,265.988L1016.969,270.8L1014.595,277.102L1019.598,277.838Z" class="land" id="FR-BFC" title="Bourgogne-Franche-Comté"/>
    <path d="M999.161,477.08L995.812,475.877L982.601,480.243L980.474,475.934L974.096,477.674L972.693,484.652L980.24,486.067L982.653,497.786L968.696,497.02L957.486,505.492L949.688,505.573L947.6,514.233L938.798,517.623L935.765,523.164L937.016,529.086L927.124,526.82L925.705,536.985L929.754,540.023L938.344,540.368L940.125,552.19L942.134,554.315L936.964,552.034L930.945,558.239L923.249,554.988L921.347,550.139L908.504,548.671L902.505,542.465L887.486,549.04L885.386,542.006L876.65,540.638L876.697,545.514L867.468,539.516L860.327,539.294L853.818,541.867L851.984,545.973L843.823,540.105L834.656,529.012L832.24,520.957L829.077,519.037L826.219,509.49L818.612,499.148L812.928,496.059L802.505,501.716L795.059,489.209L785.831,493.33L780.069,493.794L774.854,502.229L771.016,514.936L768.145,512.037L768.046,504.358L764.953,503.118L763.04,496.181L755.265,490.732L747.066,498.52L744.415,508.772L739.695,514.429L731.427,515.262L729.786,512.821L720.064,515.556L717.358,510.682L719.91,503.175L714.772,496.271L712.812,487.947L717.902,485.872L720.884,467.965L731.153,458.61L732.762,452.522L738.671,455.901L740.801,440.975L737.229,437.586L740.956,433.859L740.996,428.364L732.431,419.064L742.818,411.944L745.485,402.173L742.211,398.061L743.107,392.487L737.763,382.469L726.494,377.413L725.053,371.278L729.934,363.522L745.644,360.584L742.752,352.128L750.828,347.348L759.968,345.191L764.315,341.422L771.155,341.262L772.864,344.752L781.759,350.721L785.998,347.476L790.858,350.113L795.378,347.715L799.561,352.647L804.948,344.911L812.667,352.128L815.634,361.76L823.61,365.805L831.758,367.904L831.272,379.7L825.347,382.076L825.424,387.762L834.146,391.378L838.663,389.015L845.19,389.361L849.823,392.367L856.355,387.858L857.294,381.225L863.469,383.489L874.398,384.187L880.822,390.823L890.125,363.354L897.336,366.125L906.282,364.155L908.497,368.216L921.32,379.643L927.779,383.408L934.323,378.945L939.387,384.027L948.342,383.713L960.06,371.582L966.74,375.528L962.758,382.1L955.364,387.601L956.421,393.388L964.804,393.79L974.948,386.926L970.048,379.964L971.904,376.097L988.181,368.328L998.32,368.521L1006.974,370.725L1004.124,376.474L1010.194,382.453L1006.661,388.605L1006.439,393.918L1012.784,394.964L1021.117,406.763L1022.49,411.178L1016.295,417.354L1008.8,418.169L1008.323,427.16L1015.31,433.139L1020.631,434.101L1021.08,445.014L1027.421,447.88L1032.318,452.732L1028.529,459.396L1030.319,465.197L1022.065,468.111L1012.769,475.682L1007.58,473.05Z" class="land" id="FR-ARA" title="Auvergne-Rhône-Alpes"/>
  </g>
</svg>