<svg id="Layer_3" data-name="Layer 3" xmlns="http://www.w3.org/2000/svg" viewBox="0 0 32 32"><defs><style>.cls-1{fill:none;}.cls-2{fill:#fff;}</style></defs><circle class="cls-1" cx="16" cy="16" r="16"/><path class="cls-2" d="M16,22.6c-5.79,0-9.23,1.9-10.27,5.66a16,16,0,0,0,20.54,0C25.23,24.5,21.79,22.6,16,22.6Z"/><path class="cls-2" d="M16,0A16,16,0,0,0,4.14,26.72C5.73,22.74,9.8,20.6,16,20.6s10.27,2.14,11.86,6.12A16,16,0,0,0,16,0Zm0,19.45a6.2,6.2,0,1,1,6.2-6.2A6.21,6.21,0,0,1,16,19.45Z"/><path class="cls-2" d="M16,9.05a4.2,4.2,0,1,0,4.2,4.2A4.2,4.2,0,0,0,16,9.05Z"/><path class="cls-2" d="M16,.51A15.5,15.5,0,1,1,.5,16,15.51,15.51,0,0,1,16,.51M16,0A16,16,0,1,0,32,16,16,16,0,0,0,16,0Z"/></svg>