<svg id="Layer_3" data-name="Layer 3" xmlns="http://www.w3.org/2000/svg" viewBox="0 0 32 32"><defs><style>.cls-1{fill:none;stroke:#fff;stroke-miterlimit:10;stroke-width:0.05px;stroke-dasharray:0.5 0.2;}.cls-2{fill:#fff;}</style></defs><rect class="cls-1" x="5" y="21.33" width="22" height="10.67"/><rect class="cls-1" x="5" y="10.67" width="22" height="10.67"/><rect class="cls-1" x="5" width="22" height="10.67"/><path class="cls-2" d="M16,0A16,16,0,1,0,32,16,16,16,0,0,0,16,0ZM26.15,22.33H6a1,1,0,0,1,0-2H26.15a1,1,0,0,1,0,2Zm0-5.33H6a1,1,0,0,1,0-2H26.15a1,1,0,0,1,0,2Zm0-5.33H6a1,1,0,0,1,0-2H26.15a1,1,0,0,1,0,2Z"/></svg>