<svg id="Layer_3" data-name="Layer 3" xmlns="http://www.w3.org/2000/svg" viewBox="0 0 32 32"><defs><style>.cls-1{fill:none;}.cls-2{fill:#fff;}</style></defs><path class="cls-1" d="M18.71,7.67a2,2,0,0,0-2-2H15.27a2,2,0,0,0-2,2v.27h5.44Z"/><path class="cls-2" d="M21,9.94h-.29v2.64h-2V9.94H13.27v2.64h-2V9.94H11a1,1,0,0,0-1,.85L8.16,23.13a1,1,0,0,0,.23.8,1,1,0,0,0,.76.35H22.83a1,1,0,0,0,.76-.35,1,1,0,0,0,.23-.79L22,10.79A1,1,0,0,0,21,9.94Z"/><path class="cls-2" d="M16,0A16,16,0,1,0,32,16,16,16,0,0,0,16,0Zm9.1,25.24a3,3,0,0,1-2.27,1H9.15a3,3,0,0,1-3-3.44L8,10.5a3,3,0,0,1,3-2.56h.29V7.67a4,4,0,0,1,4-4h1.44a4,4,0,0,1,4,4v.27H21a3,3,0,0,1,3,2.56L25.8,22.84A3,3,0,0,1,25.1,25.24Z"/><path class="cls-2" d="M21,9.94h-.29v2.64h-2V9.94H13.27v2.64h-2V9.94H11a1,1,0,0,0-1,.85L8.16,23.13a1,1,0,0,0,.23.8,1,1,0,0,0,.76.35H22.83a1,1,0,0,0,.76-.35,1,1,0,0,0,.23-.79L22,10.79A1,1,0,0,0,21,9.94Z"/><path class="cls-2" d="M18.71,7.67a2,2,0,0,0-2-2H15.27a2,2,0,0,0-2,2v.27h5.44Z"/></svg>