<svg id="Layer_3" data-name="Layer 3" xmlns="http://www.w3.org/2000/svg" viewBox="0 0 32 32"><defs><style>.cls-1{fill:#fff;}</style></defs><path class="cls-1" d="M19.43,11.67A7.73,7.73,0,0,0,17,7.72v4Z"/><path class="cls-1" d="M15,11.67v-4a7.56,7.56,0,0,0-2.44,4Z"/><path class="cls-1" d="M22,16a20.7,20.7,0,0,1-.14,2.33h2.82a8.64,8.64,0,0,0,0-4.66H21.86A20.7,20.7,0,0,1,22,16Z"/><path class="cls-1" d="M10,16a20.7,20.7,0,0,1,.14-2.33H7.32a8.64,8.64,0,0,0,0,4.66h2.82A20.7,20.7,0,0,1,10,16Z"/><path class="cls-1" d="M21.51,11.67h2.37a9,9,0,0,0-4.05-3.8A11,11,0,0,1,21.51,11.67Z"/><path class="cls-1" d="M15,24.28v-4H12.57A7.73,7.73,0,0,0,15,24.28Z"/><path class="cls-1" d="M15,13.67H12.15a18.17,18.17,0,0,0,0,4.66H15Z"/><path class="cls-1" d="M10.49,20.33H8.12a9,9,0,0,0,4.05,3.8A11,11,0,0,1,10.49,20.33Z"/><path class="cls-1" d="M17,20.33v4a7.56,7.56,0,0,0,2.44-4Z"/><path class="cls-1" d="M16,0A16,16,0,1,0,32,16,16,16,0,0,0,16,0Zm0,27A11,11,0,1,1,27,16,11,11,0,0,1,16,27Z"/><path class="cls-1" d="M21.52,20.33a11.11,11.11,0,0,1-1.65,3.78,8.94,8.94,0,0,0,4-3.78Z"/><path class="cls-1" d="M19.85,13.67H17v4.66h2.85a18.17,18.17,0,0,0,0-4.66Z"/><path class="cls-1" d="M10.48,11.67a11.11,11.11,0,0,1,1.65-3.78,8.94,8.94,0,0,0-4,3.78Z"/></svg>