<svg id="Layer_3" data-name="Layer 3" xmlns="http://www.w3.org/2000/svg" viewBox="0 0 32 32"><defs><style>.cls-1{fill:#fff;}</style></defs><circle class="cls-1" cx="16" cy="10.43" r="1.15"/><path class="cls-1" d="M16,5.67h0A4.92,4.92,0,0,0,11.7,8.55,4.23,4.23,0,0,0,11.54,12L16,26l4.45-13.9A4.7,4.7,0,0,0,16,5.67Zm0,7.91a3.15,3.15,0,1,1,3.15-3.15A3.15,3.15,0,0,1,16,13.58Z"/><path class="cls-1" d="M16,0A16,16,0,1,0,32,16,16,16,0,0,0,16,0Zm6.35,12.69L17.91,26.56a2,2,0,0,1-3.81,0L9.64,12.66a6.2,6.2,0,0,1,.26-5,6.94,6.94,0,0,1,6.11-4h0a6.71,6.71,0,0,1,6.31,9Z"/></svg>