<svg id="Layer_3" data-name="Layer 3" xmlns="http://www.w3.org/2000/svg" viewBox="0 0 32 32"><defs><style>.cls-1{fill:#fff;}</style></defs><circle class="cls-1" cx="16" cy="14.31" r="4.63"/><rect class="cls-1" x="14.39" y="20.69" width="3.21" height="5.95" rx="0.88"/><path class="cls-1" d="M16,0A16,16,0,1,0,32,16,16,16,0,0,0,16,0Zm4.85,7.69,1.9-1.9A.88.88,0,0,1,24,7l-1.9,1.9a.88.88,0,1,1-1.24-1.24ZM15.12,3.48a.88.88,0,1,1,1.76,0V6.17a.88.88,0,1,1-1.76,0ZM7.86,15.19H5.17a.88.88,0,0,1,0-1.76H7.86a.88.88,0,0,1,0,1.76ZM7.71,7.26A.88.88,0,0,1,7.71,6,.86.86,0,0,1,9,6l1.9,1.9a.88.88,0,0,1,0,1.24.87.87,0,0,1-.62.26.89.89,0,0,1-.62-.26ZM18.84,20a2.6,2.6,0,0,1,.52,1.55v4.2a2.63,2.63,0,0,1-2.63,2.63H15.27a2.63,2.63,0,0,1-2.63-2.63v-4.2A2.6,2.6,0,0,1,13.16,20a6.39,6.39,0,1,1,5.68,0Zm8-4.83H24.14a.88.88,0,0,1,0-1.76h2.69a.88.88,0,1,1,0,1.76Z"/></svg>