<?xml version="1.0" encoding="UTF-8"?>
<svg xmlns="http://www.w3.org/2000/svg" width="376.61" height="788" viewBox="551.69 -4 376.61 788" style="background-color:#ffffff">
  <!-- Created using SVG Map Generator: dojo.amcharts.com/svg-map-generator -->
  <style>
    .land { fill: #ffffff; stroke: #000000; stroke-width: 2; }
  </style>
  <g id="polygons">
    <path d="M625.571,43.681L628.197,47.049L626.831,50.508L630.566,54.543L635.545,53.512L637.244,59.148L646.135,68.583L648.408,77.888L643.403,81.137L647.531,88.603L645.268,92.418L641.84,92.889L637.088,86.573L631.664,76.741L625.289,74.811L623.867,77.741L618.439,67.549L613.328,70.172L613.142,74.023L604.074,70.586L598.238,74.648L595.617,70.885L589.866,72.506L586.101,69.013L586.605,64.774L583.475,62.677L582.755,66.978L577.73,61.909L574.504,61.926L568.052,53.747L564.807,45.663L567.826,39.499L574.131,33.712L576.807,36.548L582.992,37.827L591.842,42.786L595.743,49.651L602.416,51.724L602.789,48.468L607.925,45.777L608.535,40.706L612.859,39.122L614.896,31.536L620.828,34.636L620.258,37.149Z" class="land" id="VN-01" title="Lai Châu"/>
    <path d="M666.371,37.455L672.449,42.721L670.035,47.267L672.757,53.016L676.789,55.29L678.734,62.509L677.489,71.385L670.549,65.242L668.271,72.19L670.66,79.6L666.971,82.864L660.373,78.899L658.977,82.191L649.658,80.523L648.408,77.888L646.135,68.583L637.244,59.148L635.545,53.512L630.566,54.543L626.831,50.508L628.197,47.049L625.571,43.681L627.325,37.674L631.065,32.679L640.288,42.508L647.264,48.495L649.743,47.715L651.114,36.712L654.915,31.869L662.767,30.42L661.991,33.75Z" class="land" id="VN-02" title="Lào Cai"/>
    <path d="M728.027,15.048L724.171,21.057L718.461,22.141L714.983,27.1L715.638,30.387L723.42,35.013L724.68,41.541L722.276,42.994L707.015,38.155L705.276,44.757L705.467,51.25L700.331,61.501L695.437,57.911L694.172,66.134L691.924,66.009L687.585,66.967L685.544,62.073L679.702,60.259L678.734,62.509L676.789,55.29L672.757,53.016L670.035,47.267L672.449,42.721L666.371,37.455L669.254,37.86L678.271,29.594L685.629,31.377L688.351,26.755L692.605,24.419L689.566,14.889L693.164,14.56L703.875,6.724L710.941,6.697L715.885,0L718.264,4.052L721.671,4.979Z" class="land" id="VN-03" title="Hà Giang"/>
    <path d="M778.252,53.109L772.688,56.652L762.008,50.955L759.321,54.908L755.572,54.412L756.076,48.397L753.384,45.112L745.511,49.166L740.098,47.589L736.348,41.754L738.627,38.865L736.908,35.778L733.047,36.712L726.334,41.579L724.68,41.541L723.42,35.013L715.638,30.387L714.983,27.1L718.461,22.141L724.171,21.057L728.027,15.048L728.677,17.76L736.535,18.089L743.853,25.398L750.078,24.457L750.123,21.972L759.951,22.108L763.989,27.778L767.36,29.376L779.568,25.267L789.512,31.853L786.942,43.922L780.636,43.338Z" class="land" id="VN-04" title="Cao Bằng"/>
    <path d="M623.867,77.741L625.289,74.811L631.664,76.741L637.088,86.573L641.84,92.889L645.268,92.418L653.66,95.482L660.207,93.849L666.22,94.918L663.09,100.436L664.204,106.514L673.14,111.186L678.815,107.397L683.276,109.968L685.463,108.647L690.286,112.16L695.085,124.255L692.126,126.124L698.451,135.323L699.812,141.628L698.179,144.991L691.425,143.757L691.798,149.005L686.592,153.275L681.406,148.989L665.736,138.02L663.871,134.427L654.542,131.518L650.746,135.55L644.088,135.49L639.139,138.425L638.605,143.924L635.772,148.202L632.783,148.229L629.064,144.134L624.422,143.568L621.529,139.908L618.137,141.8L610.697,139.228L609.921,135.884L613.419,135.242L613.651,125.033L620.364,126.551L621.04,114.805L617.35,112.257L615.571,107.857L621.11,106.964L622.017,102.246L624.926,101.455L628.948,93.405Z" class="land" id="VN-05" title="Sơn La"/>
    <path d="M678.734,62.509L679.702,60.259L685.544,62.073L687.585,66.967L691.924,66.009L693.588,72.147L699.424,73.751L700.508,79.572L703.986,86.589L703.89,91.381L695.498,95.596L693.134,100.176L695.1,106.14L690.286,112.16L685.463,108.647L683.276,109.968L678.815,107.397L673.14,111.186L664.204,106.514L663.09,100.436L666.22,94.918L660.207,93.849L653.66,95.482L645.268,92.418L647.531,88.603L643.403,81.137L648.408,77.888L649.658,80.523L658.977,82.191L660.373,78.899L666.971,82.864L670.66,79.6L668.271,72.19L670.549,65.242L677.489,71.385Z" class="land" id="VN-06" title="Yên Bái"/>
    <path d="M691.924,66.009L694.172,66.134L695.437,57.911L700.331,61.501L705.467,51.25L705.276,44.757L707.015,38.155L722.276,42.994L724.68,41.541L726.334,41.579L729.695,49.45L725.663,54.287L724.338,60.107L721.268,64.311L724.403,67.506L722.871,72.032L727.548,78.393L724.433,85.444L723.698,93.774L726.883,99.212L721.238,102.88L715.916,102.831L709.883,94.408L703.89,91.381L703.986,86.589L700.508,79.572L699.424,73.751L693.588,72.147Z" class="land" id="VN-07" title="Tuyên Quang"/>
    <path d="M759.321,54.908L762.008,50.955L772.688,56.652L778.252,53.109L778.746,57.486L782.869,57.573L785.404,63.739L783.741,65.987L785.641,74.773L796.195,77.469L798.418,80.48L803.372,79.806L801.432,85.509L812.097,92.032L815.615,90.139L818.629,97.846L815.096,98.247L812.132,102.165L813.09,110.439L805.489,109.881L801.976,112.674L799.658,106.476L795.873,106.985L792.556,103.497L792.455,99.981L786.921,100.767L783.726,97.309L778.02,98.149L776.231,103.221L768.958,108.972L764.457,103.682L758.414,102.522L759.261,97.575L761.927,91.512L755.587,87.946L756.575,80.404L754.911,79.475L754.997,72.19L757.86,71.646L761.721,66.368L762.391,62.122Z" class="land" id="VN-09" title="Lạng Sơn"/>
    <path d="M817.596,135.652L817.596,135.652L817.596,135.652ZM838.109,128.949L838.109,128.949L838.109,128.949ZM828.477,127.825L826.446,134.481L824.304,133.235ZM843.472,127.766L843.472,127.766L843.472,127.766ZM795.595,132.825L795.595,132.825L795.595,132.825ZM823.619,115.438L827.762,119.586L827.258,122.915L820.227,127.674ZM850.987,108.707L842.968,111.965L843.079,109.86ZM832.197,123.471L832.197,123.471L832.197,123.471ZM829.652,123.92L829.652,123.92L829.652,123.92ZM785.566,130.271L780.762,129.105L772.174,126.038L775.243,118.131L780.697,121.018L789.93,122.196L791.609,120.077L797.123,121.126L801.976,112.674L805.489,109.881L813.09,110.439L812.132,102.165L815.096,98.247L818.629,97.846L823.891,94.3L825.479,98.079L834.556,97.287L843.593,94.874L848.457,101.135L853.33,100.203L853.971,103.454L849.223,106.839L845.332,102.658L840.866,104.705L838.235,108.555L834.47,109.681L829.919,115.016L821.194,115.53L817.571,130.509L812.53,130.719L810.459,133.791L794.895,132.193L793.171,137.308ZM791.815,138.759L788.721,138.311L789.134,133.952Z" class="land" id="VN-13" title="Quảng Ninh"/>
    <path d="M738.284,153.69L742.78,161.18L735.139,161.933L734.161,167.663L726.898,164.616L720.013,164.046L712.554,160.749L709.767,156.219L703.522,152.968L700.714,154.018L696.97,149.457L691.798,149.005L691.425,143.757L698.179,144.991L699.812,141.628L698.451,135.323L692.126,126.124L695.085,124.255L706.153,133.596L716.919,133.445L715.543,129.591L722.659,129.532L724.842,134.006L730.623,139.347L735.028,151.676Z" class="land" id="VN-14" title="Hòa Bình"/>
    <path d="M738.284,153.69L735.028,151.676L730.623,139.347L724.842,134.006L722.659,129.532L715.543,129.591L714.015,121.294L717.594,114.638L721.893,115.941L723.209,120.71L736.429,123.634L736.61,130.477L739.68,130.995L739.428,134.821L744.861,135.366L745.461,139.422L750.093,146.198L740.612,149.974Z" class="land" id="VN-15" title="Hà Tây"/>
    <path d="M726.898,164.616L734.161,167.663L735.139,161.933L742.78,161.18L746.656,164.309L749.029,169.952L752.754,172.402L757.265,171.865L758.414,177.074L755.718,181.56L754.745,188.773L751.252,186.243L753.707,181.04L747.986,180.535L736.888,174.115Z" class="land" id="VN-18" title="Ninh Bình"/>
    <path d="M763.53,147.254L770.501,144.899L772.633,150.734L782.501,150.771L779.694,154.325L780.546,158.377L778.172,168.808L773.212,168.545L767.023,163.782L763.968,166.368L763.762,162.406L759.185,158.017L756.035,150.89Z" class="land" id="VN-20" title="Thái Bình"/>
    <path d="M691.798,149.005L696.97,149.457L700.714,154.018L703.522,152.968L709.767,156.219L712.554,160.749L720.013,164.046L726.898,164.616L736.888,174.115L747.986,180.535L753.707,181.04L751.252,186.243L747.643,188.377L746.902,195.134L742.996,199.359L740.491,207.638L739.342,218.147L740.164,222.233L733.082,220.813L726.399,213.108L719.862,213.6L717.352,208.841L714.6,211.67L712.105,202.427L706.43,197.801L707.357,188.21L702.005,187.776L694.858,184.156L698.129,180.761L695.599,176.424L680.922,171.757L680.251,164.669L684.904,162.019L682.383,158.544L673.054,164.25L670.358,163.852L668.1,158.926L675.67,154.379L681.406,148.989L686.592,153.275Z" class="land" id="VN-21" title="Thanh Hóa"/>
    <path d="M694.858,184.156L702.005,187.776L707.357,188.21L706.43,197.801L712.105,202.427L714.6,211.67L717.352,208.841L719.862,213.6L726.399,213.108L733.082,220.813L740.164,222.233L736.752,225.848L736.822,231.957L732.82,232.757L730.734,238.164L731.641,242.959L734.398,244.233L738.037,250.127L738.017,255.087L734.302,259.044L727.075,261.378L724.963,258.278L718.557,259.975L713.738,257.571L709.091,258.805L709.484,256.486L695.206,248.897L687.524,248.621L678.437,242.816L674.138,237.311L671.597,238.387L669.239,234.704L659.844,230.623L658.176,226.99L652.631,224.305L649.118,225.132L642.733,220.994L652.843,213.536L654.426,207.114L652.082,204.412L660.852,199.766L666.159,201.329L669.43,199.954L674.642,204.112L680.992,204.267L685.09,197.217L691.022,195.246L691.677,187.991Z" class="land" id="VN-22" title="Nghệ An"/>
    <path d="M775.737,292.808L767.093,291.118L763.046,295.15L752.245,293.529L753.883,291.325L749.246,287.281L744.67,285.923L742.976,289.125L736.379,288.871L731.984,291.086L728.839,289.942L728.335,286.231L722.735,279.776L720.175,282.513L715.674,280.057L716.243,277.282L708.839,273.455L704.762,266.932L705.346,262.085L709.091,258.805L713.738,257.571L718.557,259.975L724.963,258.278L727.075,261.378L734.302,259.044L738.017,255.087L738.037,250.127L742.77,261.825L753.621,274.893L762.683,279.277L770.369,285.409Z" class="land" id="VN-23" title="Hà Tĩnh"/>
    <path d="M731.984,291.086L736.379,288.871L742.976,289.125L744.67,285.923L749.246,287.281L753.883,291.325L752.245,293.529L763.046,295.15L767.093,291.118L775.737,292.808L772.451,300.181L775.349,307.69L783.066,319.807L792.153,328.959L800.127,334.932L790.449,342.446L789.184,347.205L780.556,346.736L777.683,343.669L772.118,343.801L765.289,332.563L765.264,327.961L761.831,330.336L754.564,324.45L742.986,310.414L738.858,307.897L730.189,297.2Z" class="land" id="VN-24" title="Quảng Bình"/>
    <path d="M819.894,357.105L815.806,362.461L816.91,364.171L807.45,366.074L803.125,368.74L806.593,370.738L803.372,372.567L801.76,379.811L795.222,375.62L794.638,368.703L791.825,367.289L788.408,373.796L784.638,373.066L782.536,364.907L777.743,359.631L777.683,343.669L780.556,346.736L789.184,347.205L790.449,342.446L800.127,334.932L806.326,339.035L806.019,342.768L810.03,348.527Z" class="land" id="VN-25" title="Quảng Trị"/>
    <path d="M860.578,385.056L856.808,386.589L844.495,385.775L841.627,393.026L836.033,396.309L828.241,393.776L823.881,394.788L822.676,391.751L817.414,393.189L813.574,388.918L808.392,387.292L808.236,382.647L801.76,379.811L803.372,372.567L806.593,370.738L803.125,368.74L807.45,366.074L816.91,364.171L815.806,362.461L819.894,357.105L829.506,365.033L822.868,361.53L825.363,364.639L834.868,368.893L841.138,375.84L841.562,380.888L845.075,381.638L848.487,377.999L852.549,378.509L852.842,384.095ZM834.798,367.547L846.597,377.243L843.21,377.547Z" class="land" id="VN-26" title="Thừa Thiên–Huế"/>
    <path d="M823.881,394.788L828.241,393.776L836.033,396.309L841.627,393.026L849.938,395.48L850.059,400.356L865.346,397.819L871.016,402.813L871.914,406.554L880.835,420.965L880.356,423.324L887.987,427.611L875.195,432.347L865.911,433.606L865.623,439.65L862.816,446.786L858.139,446.024L858.98,449.739L856.163,450.944L850.261,448.482L848.326,445.617L850.957,441.086L847.282,437.608L839.621,437.033L831.839,426.749L828.588,427.815L824.103,422.471L819.627,422.623L817.686,416.324L811.099,409.786L810.993,405.218L820.383,401.865Z" class="land" id="VN-27" title="Quảng Nam"/>
    <path d="M831.839,426.749L839.621,437.033L847.282,437.608L850.957,441.086L848.326,445.617L850.261,448.482L856.163,450.944L858.98,449.739L858.139,446.024L862.816,446.786L869.751,456.462L877.412,461.681L875.18,466.964L878.33,469.803L875.638,472.188L871.072,469.36L870.099,473.104L864.625,480.381L854.742,483.159L853.799,486.66L848.754,488.599L845.695,486.072L841.557,489.353L835.629,489.27L836.622,483.513L835.791,476.868L825.836,476.644L828.629,468.178L826.048,459.059L830.065,455.503L824.481,450.569L823.936,448.038L831.688,445.747Z" class="land" id="VN-28" title="Kon Tum"/>
    <path d="M905.279,470.412L902.018,465.839L897.553,463.885L889.04,465.808L882.417,472.152L878.33,469.803L875.18,466.964L877.412,461.681L869.751,456.462L862.816,446.786L865.623,439.65L865.911,433.606L875.195,432.347L887.987,427.611L892.256,426.995L898.248,435.706L895.592,442.078L898.868,452.509L905.068,463.786Z" class="land" id="VN-29" title="Quảng Ngãi"/>
    <path d="M825.836,476.644L835.791,476.868L836.622,483.513L835.629,489.27L841.557,489.353L845.695,486.072L848.754,488.599L853.799,486.66L854.742,483.159L864.625,480.381L870.099,473.104L871.072,469.36L875.638,472.188L878.33,469.803L882.417,472.152L881.752,479.033L884.887,492.706L889.277,500.802L888.264,505.18L892.185,510.843L891.787,516.292L893.627,522.857L888.516,522.966L886.212,527.119L891.399,529.71L891.54,533.803L894.786,537.828L893.052,543.476L889.166,545.314L888.894,550.612L885.139,552.418L876.631,550.519L871.329,538.941L868.577,535.264L856.395,530.736L847.887,532.985L840.765,531.917L835.307,533.13L830.992,536.476L832.137,533.632L831.466,525.092L827.258,513.832L823.15,511.212L824.259,507.874L822.712,500.677L818.362,499.067L817.147,495.035L820.978,488.324L820.116,483.607Z" class="land" id="VN-30" title="Gia Lai"/>
    <path d="M882.417,472.152L889.04,465.808L897.553,463.885L902.018,465.839L905.279,470.412L907.346,481.016L911.186,488.277L909.125,491.62L914.155,501.041L916.015,511.902L914.256,513.106L912.89,506.473L912.91,517.614L909.054,517.184L906.872,521.603L899.105,525.626L893.627,522.857L891.787,516.292L892.185,510.843L888.264,505.18L889.277,500.802L884.887,492.706L881.752,479.033Z" class="land" id="VN-31" title="Bình Định"/>
    <path d="M893.627,522.857L899.105,525.626L906.872,521.603L909.054,517.184L912.91,517.614L914.624,522.194L912.26,529.104L916.04,533.461L914.09,537.522L917.199,539.086L916.101,545.158L924.306,557.61L920.864,560.402L909.669,561.275L908.339,563.596L900.91,567.477L899.71,561.829L894.574,561.823L885.139,552.418L888.894,550.612L889.166,545.314L893.052,543.476L894.786,537.828L891.54,533.803L891.399,529.71L886.212,527.119L888.516,522.966Z" class="land" id="VN-32" title="Phú Yên"/>
    <path d="M830.992,536.476L835.307,533.13L840.765,531.917L847.887,532.985L856.395,530.736L868.577,535.264L871.329,538.941L876.631,550.519L885.139,552.418L894.574,561.823L899.71,561.829L900.91,567.477L900.34,571.682L895.819,574.037L894.71,580.609L890.098,577.889L884.595,582.018L885.129,587.653L880.819,589.691L875.573,588.19L868.698,590.81L863.345,594.837L856.455,594.435L852.741,589.061L848.341,587.514L846.32,583.309L850.81,579.376L845.16,576.149L847.464,573.908L843.054,561.999L840.841,563.674L828.593,562.816L825.534,558.639L825.075,550.571Z" class="land" id="VN-33" title="Đắk Lắk"/>
    <path d="M917.552,571.078L920.586,571.718L921.332,575.633ZM914.83,591.975L914.83,591.975L914.83,591.975ZM900.91,567.477L908.339,563.596L909.669,561.275L920.864,560.402L910.808,571.419L913.213,577.6L918.399,583.5L915.516,586.002L910.083,580.294L912.149,593.043L911.408,600.725L914.795,605.187L914.871,611.183L911.428,610.132L911.126,605.718L906.514,611.008L911.045,613.639L906.686,613.866L903.641,609.18L893.49,604.976L890.754,595.729L887.664,595.595L885.129,587.653L884.595,582.018L890.098,577.889L894.71,580.609L895.819,574.037L900.34,571.682Z" class="land" id="VN-34" title="Khánh Hòa"/>
    <path d="M885.129,587.653L887.664,595.595L884.937,597.678L886.636,601.003L884.111,605.914L883.702,612.017L885.209,620.672L878.672,622.874L880.114,626.805L863.779,630.992L866.218,634.139L860.109,639.645L853.688,642.893L852.207,638.591L846.128,636.705L837.575,636.54L834.677,638.781L827.747,636.761L822.066,632.761L823.205,629.578L817.354,627.304L813.78,621.382L815.56,617.346L820.06,615.941L828.215,614.669L835.115,608.057L839.263,611.698L845.412,610.581L845.145,613.155L849.46,614.721L855.84,610.241L849.702,601.209L850.216,597.658L855.886,596.889L856.455,594.435L863.345,594.837L868.698,590.81L875.573,588.19L880.819,589.691Z" class="land" id="VN-35" title="Lâm Đồng"/>
    <path d="M887.664,595.595L890.754,595.729L893.49,604.976L903.641,609.18L906.686,613.866L911.045,613.639L912.825,616.935L907.411,625.925L902.502,625.75L901.555,635.671L899.302,639.131L894.443,638.242L888.939,634.221L889.116,631.218L884.983,631.033L883.214,627.109L880.114,626.805L878.672,622.874L885.209,620.672L883.702,612.017L884.111,605.914L886.636,601.003L884.937,597.678Z" class="land" id="VN-36" title="Ninh Thuận"/>
    <path d="M772.638,620.919L774.785,626.105L771.372,629.958L766.413,637.728L767.668,642.6L772.512,648.437L770.828,654.928L767.945,655.791L758.243,656.479L760.319,656.489L757.739,650.183L755.425,651.703L743.117,640.426L745.103,632.432L743.793,627.175L740.386,623.589L744.468,620.63L747.613,622.524L753.354,615.179L759.473,616.646L765.027,620.368Z" class="land" id="VN-37" title="Tây Ninh"/>
    <path d="M792.304,660.565L788.418,657.757L791.654,652.022L793.998,654.333L798.594,649.808L795.666,645.452L797.254,639.568L803.12,636.278L807.279,629.655L817.354,627.304L823.205,629.578L822.066,632.761L827.747,636.761L820.821,653.162L825.902,654.682L828.603,658.681L829.279,664.866L825.907,667.041L822.53,665.646L816.457,672.397L815.59,667.97L809.557,667.339L805.283,673.253L801.17,673.663L800.752,675.34L799.532,676.786L794.477,673.381L791.594,674.325L787.99,670.884L788.912,668.365L794.401,665.297Z" class="land" id="VN-39" title="Đồng Nai"/>
    <path d="M898.4,678.268L898.4,678.268L898.4,678.268ZM880.114,626.805L883.214,627.109L884.983,631.033L889.116,631.218L888.939,634.221L894.443,638.242L888.985,640.786L887.563,645.806L877.246,647.461L874.66,652.849L869.545,653.696L867.891,657.726L862.211,657.691L855.185,659.718L850.478,670.463L845.876,669.637L838.845,673.551L829.637,677.099L825.907,667.041L829.279,664.866L828.603,658.681L825.902,654.682L820.821,653.162L827.747,636.761L834.677,638.781L837.575,636.54L846.128,636.705L852.207,638.591L853.688,642.893L860.109,639.645L866.218,634.139L863.779,630.992Z" class="land" id="VN-40" title="Bình Thuận"/>
    <path d="M758.243,656.479L767.945,655.791L776.841,660.432L773.328,667.862L778.666,672.997L785.278,673.12L787.012,681.154L778.126,685.475L773.399,686.172L772.779,683.404L764.397,676.545L754.972,677.135L755.133,679.847L747.039,679.15L738.909,672.863L729.61,664.07L728.929,660.919L724.68,657.742L738.828,653.778L743.107,660.534L746.716,663.619L747.739,661.335L753.591,665.015L759.387,663.567L756.882,659.698Z" class="land" id="VN-41" title="Long An"/>
    <path d="M783.459,769.951L783.459,769.951L783.459,769.951ZM804.189,682.256L804.189,682.256L804.189,682.256ZM808.851,683.681L804.567,690.225L803.408,688.375ZM801.17,673.663L805.283,673.253L809.557,667.339L815.59,667.97L816.457,672.397L822.53,665.646L825.907,667.041L829.637,677.099L826.295,680.929L818.206,682.718L812.551,687.279L808.392,682.343L801.714,682.282Z" class="land" id="VN-43" title="Bà Rịa–Vũng Tàu"/>
    <path d="M709.006,659.898L713.527,669.109L717.13,669.883L716.848,673.961L720.512,678.432L726.722,679.345L728.501,684.629L724.529,689.968L716.505,694.625L714.751,692.432L711.213,695.92L709.943,697.231L700.523,690.353L692.741,688.416L688.391,680.083L692.917,679.903L697.393,673.956L704.52,669.694L701.007,660.981L703.764,657.593Z" class="land" id="VN-44" title="An Giang"/>
    <path d="M724.68,657.742L728.929,660.919L729.61,664.07L738.909,672.863L747.039,679.15L747.034,681.298L740.678,687.668L740.97,690.798L744.629,692.504L745.582,696.76L739.957,698.675L736.232,696.135L733.98,699.761L724.529,689.968L728.501,684.629L726.722,679.345L720.512,678.432L716.848,673.961L717.13,669.883L713.527,669.109L709.006,659.898L716.646,662.582L721.072,656.751Z" class="land" id="VN-45" title="Đồng Tháp"/>
    <path d="M747.039,679.15L755.133,679.847L754.972,677.135L764.397,676.545L772.779,683.404L773.399,686.172L778.126,685.475L787.012,681.154L789.658,684.962L789.477,691.464L787.032,696.453L768.374,689.267L754.009,692.407L751.711,691.341L748.762,689.876L744.629,692.504L740.97,690.798L740.678,687.668L747.034,681.298Z" class="land" id="VN-46" title="Tiền Giang"/>
    <path d="M649.053,683.527L653.181,687.637L653.297,694.061L648.685,704.107L647.067,695.459L642.163,691.162L641.049,687.253L645.187,688.191ZM688.391,680.083L692.741,688.416L700.523,690.353L709.943,697.231L711.213,695.92L726.389,710.75L721.283,716.035L720.346,719.446L716.127,721.921L720.064,724.442L718.385,727.264L714,727.1L716.193,730.78L714.439,737.923L699.732,729.201L695.357,729.027L693.598,732.482L691.234,730.606L692.383,721.348L694.681,714.244L697.358,714.121L702.776,709.24L703.794,706.313L699.172,701.604L694.596,702.244L689.359,696.315L686.244,694.983L681.688,699.602L678.482,693.554L671.345,684.993L674.39,685.787L678.82,679.545Z" class="land" id="VN-47" title="Kiên Giang"/>
    <path d="M751.711,691.341L761.317,699.315L764.563,704.076L756.771,705.407L749.08,712.622L744.765,709.798L742.129,707.454L739.131,703.17L733.98,699.761L736.232,696.135L739.957,698.675L745.582,696.76L744.629,692.504L748.762,689.876Z" class="land" id="VN-49" title="Vĩnh Long"/>
    <path d="M751.711,691.341L754.009,692.407L768.374,689.267L787.032,696.453L789.84,698.849L787.617,703.882L782.592,707.93L778.792,707.705L784.759,712.479L780.727,716.659L773.232,710.039L764.563,704.076L761.317,699.315Z" class="land" id="VN-50" title="Bến Tre"/>
    <path d="M749.08,712.622L756.771,705.407L764.563,704.076L773.232,710.039L777.491,714.372L776.08,718.546L778.726,720.141L778.298,725.888L775.379,729.165L768.968,730.719L764.034,727.136L753.44,717.953Z" class="land" id="VN-51" title="Trà Vinh"/>
    <path d="M744.765,709.798L749.08,712.622L753.44,717.953L764.034,727.136L763.142,731.955L760.496,731.388L759.432,738.439L741.283,745.283L741.756,737.254L732.316,737.944L727.039,734.725L727.085,727.795L733.304,725.387L742.074,719.466Z" class="land" id="VN-52" title="Sóc Trăng"/>
    <path d="M726.334,41.579L733.047,36.712L736.908,35.778L738.627,38.865L736.348,41.754L740.098,47.589L745.511,49.166L753.384,45.112L756.076,48.397L755.572,54.412L759.321,54.908L762.391,62.122L761.721,66.368L757.86,71.646L754.997,72.19L754.911,79.475L751.439,77.828L742.921,84.45L737.865,85.911L737.422,75.371L733.254,73.49L727.548,78.393L722.871,72.032L724.403,67.506L721.268,64.311L724.338,60.107L725.663,54.287L729.695,49.45Z" class="land" id="VN-53" title="Bắc Kạn"/>
    <path d="M744.519,112.614L747.981,106.66L751.318,108.674L752.825,97.645L759.261,97.575L758.414,102.522L764.457,103.682L768.958,108.972L776.231,103.221L778.02,98.149L783.726,97.309L786.921,100.767L792.455,99.981L792.556,103.497L795.873,106.985L799.658,106.476L801.976,112.674L797.123,121.126L791.609,120.077L789.93,122.196L780.697,121.018L775.243,118.131L771.327,117.785L765.032,123.666L762.769,121.04L754.493,119.153L750.511,116.249L746.817,117.104Z" class="land" id="VN-54" title="Bắc Giang"/>
    <path d="M714.439,737.923L716.193,730.78L714,727.1L718.385,727.264L727.085,727.795L727.039,734.725L732.316,737.944L741.756,737.254L741.283,745.283L726.45,751.89L720.583,756.391L711.919,752.604L711.284,746.815L714.383,743.45L712.08,740.636Z" class="land" id="VN-55" title="Bạc Liêu"/>
    <path d="M746.817,117.104L750.511,116.249L754.493,119.153L762.769,121.04L765.032,123.666L763.394,130.903L756.363,131.13L750.007,130.25L750.955,128.031L745.562,123.471Z" class="land" id="VN-56" title="Bắc Ninh"/>
    <path d="M797.254,639.568L795.666,645.452L798.594,649.808L793.998,654.333L791.654,652.022L788.418,657.757L792.304,660.565L789.709,661.93L782.768,658.799L782.627,656.361L776.362,651.58L775.536,648.062L772.512,648.437L767.668,642.6L766.413,637.728L771.372,629.958L778.787,631.897L777.905,636.273L784.21,635.671L789.84,630.22L789.557,635.913L796.17,637.126Z" class="land" id="VN-57" title="Bình Dương"/>
    <path d="M797.254,639.568L796.17,637.126L789.557,635.913L789.84,630.22L784.21,635.671L777.905,636.273L778.787,631.897L771.372,629.958L774.785,626.105L772.638,620.919L770.843,615.998L773.499,610.771L770.727,605.3L786.241,605.496L789.981,599.719L796.16,600.766L804.411,595.534L808.009,589.732L810.746,588.69L812.45,598.085L812.036,602.549L816.694,603.76L821.92,611.132L820.06,615.941L815.56,617.346L813.78,621.382L817.354,627.304L807.279,629.655L803.12,636.278Z" class="land" id="VN-58" title="Bình Phước"/>
    <path d="M691.234,730.606L693.598,732.482L695.357,729.027L699.732,729.201L714.439,737.923L712.08,740.636L714.383,743.45L711.284,746.815L711.919,752.604L720.583,756.391L717.418,764.091L712.937,769.717L708.653,771.175L705.054,776.36L691.375,780L685.322,777.793L689.54,775.366L688.926,772.45L693.225,770.578L688.492,767.126L689.485,762.096L689.848,748.643Z" class="land" id="VN-59" title="Cà Mau"/>
    <path d="M765.032,123.666L771.327,117.785L775.243,118.131L772.174,126.038L780.762,129.105L778.429,129.208L779.003,134.001L774.981,138.845L773.147,145.212L770.501,144.899L763.53,147.254L756.554,140.684L756.363,131.13L763.394,130.903Z" class="land" id="VN-61" title="Hải Dương"/>
    <path d="M750.093,146.198L752.845,151.369L756.035,150.89L759.185,158.017L752.159,158.802L750.647,162.616L746.656,164.309L742.78,161.18L738.284,153.69L740.612,149.974Z" class="land" id="VN-63" title="Hà Nam"/>
    <path d="M750.007,130.25L756.363,131.13L756.554,140.684L763.53,147.254L756.035,150.89L752.845,151.369L750.093,146.198L745.461,139.422L744.861,135.366L745.698,131.578Z" class="land" id="VN-66" title="Hưng Yên"/>
    <path d="M778.484,169.351L778.484,169.351L778.484,169.351ZM746.656,164.309L750.647,162.616L752.159,158.802L759.185,158.017L763.762,162.406L763.968,166.368L767.023,163.782L773.212,168.545L778.172,168.808L777.547,170.995L770.506,173.143L766.332,176.381L758.959,185.487L754.745,188.773L755.718,181.56L758.414,177.074L757.265,171.865L752.754,172.402L749.029,169.952Z" class="land" id="VN-67" title="Nam Định"/>
    <path d="M703.89,91.381L709.883,94.408L715.916,102.831L717.337,107.635L722.503,113.388L721.893,115.941L717.594,114.638L714.015,121.294L715.543,129.591L716.919,133.445L706.153,133.596L695.085,124.255L690.286,112.16L695.1,106.14L693.134,100.176L695.498,95.596Z" class="land" id="VN-68" title="Phú Thọ"/>
    <path d="M727.548,78.393L733.254,73.49L737.422,75.371L737.865,85.911L742.921,84.45L751.439,77.828L754.911,79.475L756.575,80.404L755.587,87.946L761.927,91.512L759.261,97.575L752.825,97.645L751.318,108.674L747.981,106.66L744.519,112.614L742.709,109.903L739.1,110.807L739.09,110.818L732.402,105.501L726.883,99.212L723.698,93.774L724.433,85.444Z" class="land" id="VN-69" title="Thái Nguyên"/>
    <path d="M726.883,99.212L732.402,105.501L739.09,110.818L739.095,110.823L735.996,116.666L739.272,119.645L736.429,123.634L723.209,120.71L721.893,115.941L722.503,113.388L717.337,107.635L715.916,102.831L721.238,102.88Z" class="land" id="VN-70" title="Vĩnh Phúc"/>
    <path d="M564.807,45.663L568.052,53.747L574.504,61.926L577.73,61.909L582.755,66.978L583.475,62.677L586.605,64.774L586.101,69.013L589.866,72.506L595.617,70.885L598.238,74.648L604.074,70.586L613.142,74.023L613.328,70.172L618.439,67.549L623.867,77.741L628.948,93.405L624.926,101.455L622.017,102.246L621.11,106.964L615.571,107.857L617.35,112.257L621.04,114.805L620.364,126.551L613.651,125.033L613.419,135.242L609.921,135.884L604.604,135.787L600.627,127.156L597.537,126.626L593.5,116.985L589.413,116.006L593.717,113.832L593.384,104.9L598.601,98.561L598.319,91.577L590.123,90.443L585.789,94.598L582.619,94.75L581.928,87.371L579.514,80.572L574.075,77.556L574.267,74.066L560.699,63.086L555.694,54.379L561.641,53.523Z" class="land" id="VN-71" title="Điện Biên"/>
    <path d="M828.593,562.816L840.841,563.674L843.054,561.999L847.464,573.908L845.16,576.149L850.81,579.376L846.32,583.309L848.341,587.514L852.741,589.061L856.455,594.435L855.886,596.889L850.216,597.658L849.702,601.209L855.84,610.241L849.46,614.721L845.145,613.155L845.412,610.581L839.263,611.698L835.115,608.057L828.215,614.669L820.06,615.941L821.92,611.132L816.694,603.76L812.036,602.549L812.45,598.085L810.746,588.69L817.722,586.688L822.238,591.326L827.852,585.816L830.121,575.137Z" class="land" id="VN-72" title="Đắk Nông"/>
    <path d="M726.389,710.75L728.511,706.927L730.774,709.414L742.129,707.454L744.765,709.798L742.074,719.466L733.304,725.387L727.085,727.795L718.385,727.264L720.064,724.442L716.127,721.921L720.346,719.446L721.283,716.035Z" class="land" id="VN-73" title="Hậu Giang"/>
    <path d="M724.529,689.968L733.98,699.761L739.131,703.17L742.129,707.454L730.774,709.414L728.511,706.927L726.389,710.75L711.213,695.92L714.751,692.432L716.505,694.625Z" class="land" id="VN-CT" title="Cần Thơ"/>
    <path d="M841.627,393.026L844.495,385.775L856.808,386.589L860.578,385.056L857.005,389.637L860.81,392.271L862.614,388.336L865.346,397.819L850.059,400.356L849.938,395.48Z" class="land" id="VN-DN" title="Đà Nẵng"/>
    <path d="M739.1,110.807L742.709,109.903L744.519,112.614L746.817,117.104L745.562,123.471L750.955,128.031L750.007,130.25L745.698,131.578L744.861,135.366L739.428,134.821L739.68,130.995L736.61,130.477L736.429,123.634L739.272,119.645L735.996,116.666L739.095,110.823Z" class="land" id="VN-HN" title="Hà Nội"/>
    <path d="M793.882,139.331L793.882,139.331L793.882,139.331ZM780.762,129.105L785.566,130.271L788.443,131.518L785.863,137.006L790.802,139.989L787.919,142.426L789.774,145.061L782.501,150.771L772.633,150.734L770.501,144.899L773.147,145.212L774.981,138.845L779.003,134.001L778.429,129.208ZM797.813,136.898L805.751,140.862L803.095,145.907L795.601,139.611Z" class="land" id="VN-HP" title="Hải Phòng"/>
    <path d="M789.658,684.962L787.012,681.154L785.278,673.12L778.666,672.997L773.328,667.862L776.841,660.432L767.945,655.791L770.828,654.928L772.512,648.437L775.536,648.062L776.362,651.58L782.627,656.361L782.768,658.799L789.709,661.93L792.304,660.565L794.401,665.297L788.912,668.365L787.99,670.884L791.594,674.325L794.477,673.381L799.532,676.786L800.752,675.34L801.644,678.863L796.951,682.384L798.872,685.813L794.335,686.71Z" class="land" id="VN-SG" title="Hồ Chí Minh"/>
  </g>
</svg>